<?xml version="1.0" encoding="UTF-8" standalone="no"?>
<svg
   id="vector"
   width="24"
   height="24"
   viewBox="0 0 24 24"
   version="1.1"
   xmlns="http://www.w3.org/2000/svg"
   xmlns:svg="http://www.w3.org/2000/svg">
  <defs
     id="defs8" />
  <g
     id="path_0">
    <path
       style="color:#000000;fill:#ff5722;fill-rule:evenodd;stroke-linecap:round;-inkscape-stroke:none"
       d="M 12,2 C 6.4895629,2 2,6.4885375 2,12 2,17.510571 6.4894287,22 12,22 17.511463,22 22,17.510437 22,12 22,6.4886716 17.511328,2 12,2 Z m 0,2 c 0.998124,0 1.952537,0.1811422 2.832277,0.5124668 0.311442,0.1172939 0.12918,-1.1439884 1.020887,-0.8249387 0.742702,0.2657365 0.399869,1.5225448 0.643759,1.68807 1.315345,0.892706 2.348557,2.1675675 2.942424,3.6673732 0.361909,0.9139967 0.97342,-1.71742 1.998153,-0.5273463 1.505438,1.748341 -1.443745,3.853418 -1.456036,4.035487 C 19.699896,16.721986 16.245214,20 12,20 7.8211042,20 4.4066435,16.821893 4.0337752,12.742836 4.011422,12.498299 2.7544304,12.212548 2.7544304,11.962025 2.7544304,11.612327 2.1235091,10.9566 2.5312195,8.7126322 2.6204495,8.2215279 4.312872,8.701354 4.3859279,9.5303734 4.9387619,7.8158346 6.0526735,6.3573079 7.5129557,5.3692691 7.7208039,5.2286373 7.2601235,4.0484364 7.9856803,3.7391501 8.5390494,3.5032631 8.8489781,4.630239 9.2152492,4.4949208 10.081859,4.1747533 11.0199,4 12,4 Z"
       id="path4717" />
    <path
       style="color:#000000;fill:#000000;fill-opacity:0;fill-rule:evenodd;stroke-width:2;stroke-linecap:round;-inkscape-stroke:none"
       d="m 21,12 c 0,4.97 -4.029,9 -9,9 -4.97,0 -9,-4.03 -9,-9 0,-4.971 4.03,-9 9,-9 4.971,0 9,4.029 9,9 z"
       id="path4715" />
  </g>
  <g
     id="g4664"
     transform="translate(-0.19586745,0.67039935)">
    <path
       style="fill:#356859;fill-opacity:0;stroke:#356859;stroke-width:1.79632;stroke-dasharray:none;stroke-opacity:1"
       d="M 5.7991837,9.2910372 C 6.4785835,10.798213 6.2710621,12.361277 5.3357329,12.783191 4.4003756,13.205111 3.0913874,12.325717 2.4120488,10.818833 1.732649,9.3119552 1.9401431,7.7487423 2.8754997,7.3268841 3.8108584,6.905147 5.1197848,7.7845679 5.7991837,9.2910372 Z"
       id="path3025" />
    <path
       style="fill:#356859;fill-opacity:0;stroke:#356859;stroke-width:1.79632;stroke-dasharray:none;stroke-opacity:1"
       d="M 10.683572,5.0496535 C 11.031827,6.6652779 10.500986,8.1501743 9.4979448,8.3665107 8.4949852,8.5825501 7.3995738,7.4479739 7.0513726,5.8325011 6.7031726,4.2169069 7.2340082,2.7319506 8.2370166,2.5158228 9.2400225,2.2996064 10.335379,3.434029 10.683572,5.0496535 Z"
       id="path3029" />
    <path
       style="fill:#356859;fill-opacity:0;stroke:#356859;stroke-width:1.79632;stroke-dasharray:none;stroke-opacity:1"
       d="m 10.489,11.259828 c -0.2448,0.422814 -1.3791849,1.82243 -2.1638008,2.299925 -0.7845505,0.477494 -1.7567498,1.176705 -1.5936014,2.782197 0.1630577,1.605795 1.8100265,2.293052 2.8942417,2.232097 1.0842765,-0.06066 3.1284975,-0.260263 4.5879845,-0.05799 1.459416,0.20229 3.301418,0.04899 3.732777,-1.488363 C 18.37796,15.490332 17.413229,14.510838 16.660412,13.955055 15.907626,13.399574 14.650481,11.737904 14.26317,10.975049 13.875914,10.21249 11.904775,8.8158635 10.489,11.259812 Z"
       id="path3033" />
    <path
       style="fill:#356859;fill-opacity:0;stroke:#356859;stroke-width:1.70879;stroke-dasharray:none;stroke-opacity:1"
       d="m 18.857565,9.0083587 c -0.639718,1.4484793 -0.444318,2.9506693 0.436383,3.3561523 0.880727,0.405488 2.113262,-0.439658 2.752923,-1.887855 C 22.68659,9.0284622 22.491215,7.5261286 21.610489,7.1206999 20.729761,6.7153874 19.497283,7.5605591 18.857565,9.0083587 Z"
       id="path1025" />
    <path
       style="fill:#356859;fill-opacity:0;stroke:#356859;stroke-width:1.70879;stroke-dasharray:none;stroke-opacity:1"
       d="m 13.800342,4.9058589 c -0.327915,1.5527034 0.171922,2.97977 1.116379,3.187681 0.944381,0.2076255 1.975814,-0.882764 2.303678,-2.4353216 C 17.548262,4.1055439 17.048431,2.6784197 16.104004,2.470709 15.159578,2.2629133 14.128198,3.3531554 13.800342,4.9058589 Z"
       id="path1027" />
  </g>
  <g
     id="g12730">
    <path
       id="path12726"
       style="color:#000000;fill:#ff5722;fill-rule:evenodd;stroke-linecap:round;-inkscape-stroke:none"
       d="M 2.6640625 15.574219 C 4.107096 19.32612 7.7484275 22 12 22 C 16.25226 22 19.893111 19.326095 21.335938 15.574219 L 19.160156 15.574219 C 17.850964 18.200636 15.143554 20 12 20 C 8.8567937 20 6.1471322 18.201226 4.8378906 15.574219 L 2.6640625 15.574219 z " />
    <path
       style="color:#000000;fill:#000000;fill-opacity:0;fill-rule:evenodd;stroke-width:2;stroke-linecap:round;-inkscape-stroke:none"
       d="m 21,12 c 0,4.97 -4.029,9 -9,9 -4.97,0 -9,-4.03 -9,-9 0,-4.971 4.03,-9 9,-9 4.971,0 9,4.029 9,9 z"
       id="path12728" />
  </g>
</svg>
