<svg xmlns="http://www.w3.org/2000/svg" width="200" height="180" viewBox="0 0 200 180"><path fill="#96551d" d="M110 45c2.5 1 4.5 4.1 5.6 6.4a12.1 12.1 0 0 1 0 9.8c.8-.4 1.2-.6 1.6-1.5l.4-1.2a9.6 9.6 0 0 1 5.1-5.3c2.3-1 4.4-1.5 7-1.4h.7c1.2 0 2.3 0 3.4.5.3.7.3 1 0 1.7a16 16 0 0 1-9.8 8c-1.3.2-2.5.3-3.8.3h-.4c-1.2 0-1.2 0-1.8-.2-.7 0-1.3.5-1.9 1l-.4.3c-1.2.8-2.3 1.7-3.4 2.7l.4-.3c3-1.3 6.1-2 9.2-1 2.1.9 4.8 2 5.8 4.2-.1.8-.5 1.1-1.1 1.6-2 1.3-4.2 2.1-6.5 2.4l.5.5c.8 1 1.5 2.5 1.5 4h.3a27 27 0 0 1 17.7 12.1l.4.8c2 3.4 3.6 7.8 3.6 11.8v1h.7a6604 6604 0 0 1 39-.1c3 0 5.5.2 7.7 2.4l.4.4.4.4c1.7 1.7 2 3.7 2 6-.2 3-1.5 5-3.6 7-1.5 1.5-2.8 2.9-3 5 .2 1.8 1 3.1 2.2 4.3l4 3c2 1.4 3.2 4 3.6 6.3.3 4.4-1 7.7-3.8 11a24.2 24.2 0 0 1-17.6 7.5h-.6a543 543 0 0 1-12 0c-2.9 0-5.2.3-7.5 2.2-1 1.2-1.4 2.7-1.9 4.2-1 3-2.4 5.3-5.1 6.9a46.7 46.7 0 0 1-9.4 3.5l-3 1-.5.3-1 .3a25.2 25.2 0 0 1-9.4 1.3h-1.3a574.3 574.3 0 0 1-10.2 0c-4 0-7.4-.8-11-2.4-5.8-2.5-12-2.5-18.3-2.5h-3a3008 3008 0 0 0-22.5 0c-3 0-5.5-.2-7.7-2.4l-1-1c-2.4-2.3-4.8-3-8-3.2-3.7-.4-6.9-1.3-9.4-4.2a14 14 0 0 1-2-4.3 5.7 5.7 0 0 0-2.8-3.4c-3.3-1.5-6.8-1.3-10.3-1.3-5 0-5 0-7.4-1l-.7-.3a13.3 13.3 0 0 1-4.6-3.5c-2.2-2.2-3-5-3-8 0-3.5 1.8-6.1 4.2-8.4l1.8-1.4a8 8 0 0 0 3.4-4.2c.2-1.7-.2-3-1.2-4.3l-1.8-1.9a9 9 0 0 1-3-7.2c0-2.2.7-4 2.3-5.6 2.4-2.3 4.8-2.5 8-2.5a940.8 940.8 0 0 0 4.4 0H24a2808.9 2808.9 0 0 1 28.3.1v-2l.3-2.7.1-.5A27.1 27.1 0 0 1 64 81.7a19 19 0 0 1 9-3.6l-.1-.7c0-1.4 1-2.4 2-3.4 2.7-2.6 2.7-2.6 4-2.6l.2-.4a13.5 13.5 0 0 1 5.8-5.8c3.4-1.8 7.6-3.9 11.4-3.8l-.2-.7v-2.6c0-1.2.1-2.4.5-3.6.2-.2.2-.2 1-.2 3 .3 5.7 2.6 7.5 4.8a10.5 10.5 0 0 1 2 7c0 .9-.2 1.6-.3 2.4l.5-.6a49 49 0 0 1 5.7-5l-.3-.2c-3.1-2.8-5.4-5.2-5.7-9.6 0-2.5.4-5.9 2.2-7.8.5-.4.5-.4 1-.3Z"/><path fill="#e3ebb9" d="M86.4 3.9a9 9 0 0 1 5.7 3.6 9.6 9.6 0 0 1 1.4 7.4c-.7 2.4-2.3 4.6-4.2 6.2-1 .8-1.9 1.8-2.6 3l-.3.3c-.9 1.4-.8 3.1-.6 4.7.6 1.5 2 2.4 3.1 3.3.9.7 1.7 1.5 2.4 2.3 7.1-2 13.6-4.5 20.2-7.7 10.3-5 21-8.2 32.4-4.5a42 42 0 0 1 4.6 2A26.7 26.7 0 0 1 162 40c.7 2.4 1.1 4.6 1.1 7v.6a488 488 0 0 1 0 12.6 22.1 22.1 0 0 0 5 14.8c1.5 1.9 2.7 3.7 3.9 5.7l.2.5a34 34 0 0 1 4.5 16.6v.5c0 1.2 0 2.2-.3 3.3v.8l-.2.6h-.5a17959.7 17959.7 0 0 0-29.8 0h-.7c-.6 0-.6 0-1 .2l-.1-.8a29 29 0 0 0-8-17.4c0-.2-.2-.3-.4-.5a23.7 23.7 0 0 0-12-6.5 4 4 0 0 1-1.5-.6c-.4-.6-.6-1.3-.8-2-.2-.8-.5-1.3-1-2l-.5-.7h.5c2.4-.4 5.1-1 6.9-2.9.3-.5.3-.5.2-1-.4-.6-.4-.6-1.1-1.2l-.4-.3c-2-1.7-4.6-2.7-7.2-2.6h-.5c-2.2 0-3.9.5-5.7 1.6l-.5-.2c4.4-3.7 4.4-3.7 5.8-4.3l.7.3c4.6.2 8.6-1 12.1-4 .6-.5 1-1.1 1.5-1.8l.3-.4c1-1.5 1-1.5 1.4-3.2l-.2-.4c-3.8-.8-8.2-.5-11.7 1.4a11 11 0 0 0-4.5 5.8c-.4.9-.7 1.4-1.6 1.9l-.4-.2.2-.4c1.2-2.7 1-6 0-8.8a15 15 0 0 0-5.3-6.9c-.6 0-.6 0-1.2.3a12.9 12.9 0 0 0-1.9 9.1c.8 3.8 3 6 6 8.2l-2.8 2.5a50.7 50.7 0 0 0-3.7 3.5c-.3-.6-.1-1 0-1.7.2-3.3-.5-6.1-2.6-8.7-1.6-1.8-4.5-3.7-6.8-3.8h-.6a18 18 0 0 0-.5 4.6v2.3l-.7.1A25 25 0 0 0 79.2 71c-.4.6-.7.8-1.4 1.1-2 1-3.8 2.5-4.7 4.5l-.2 1.6-.5.1a26.8 26.8 0 0 0-18.9 17.5l-.4 1c-.7 1.5-1 3.1-1.2 4.7v.5l-.2 1.1a908 908 0 0 1-18 .2c-3.8.1-3.8.1-4.8-.7-.4-.6-.6-1-.7-1.7l-.5-1A51.8 51.8 0 0 1 25.5 62l1.3-3 .2-.5a31.6 31.6 0 0 1 6.7-9.2 23 23 0 0 1 3.8-3.3 49 49 0 0 1 21.7-9c7.7-1.6 15.4-1.4 23.3-1.3l-.4-.4-.5-.4-.5-.5a11 11 0 0 1-3-8.2c.4-4.5 3.4-7.5 6.5-10.3l.5-.4a6.7 6.7 0 0 0 2.5-4.7c0-1.2-.4-2.2-1.3-3l-1.8-1.5c-.5-.4-.5-.4-.6-1 .2-1.5 1.2-1.6 2.5-1.5Z"/><path fill="#b06c31" d="M16.2 103.1a808.1 808.1 0 0 0 4.4 0h3.3a2826.6 2826.6 0 0 1 28 .1v1.8h-.4c-10.6 1.9-23.9 5.4-30.7 14.5a15 15 0 0 0-2.6 10.5 213170.6 213170.6 0 0 1 2.1 4.8l-.1.5-.3-.3c-.2 3.1 1 5.2 3 7.6 1 1.2 2.3 2 3.7 3l1.7 1a33.6 33.6 0 0 0 4.7 2.8 74 74 0 0 0 14.2 5.5l.8.2 2.2.6.6.2c3.9 1 7.7 1.6 11.6 2.3l7 1.3c6 1.4 12 2.3 18.2 2.9h.8a163.8 163.8 0 0 0 17.2.7 182.9 182.9 0 0 0 47.8-6.8 125.4 125.4 0 0 0 18.3-5.9c5-2 11.4-5.3 13.8-10.5a10 10 0 0 0-.1-7.4 17.4 17.4 0 0 0-6.8-6.8l.2.7c.4 3.6-1.2 6.8-3.4 9.7-1 1.1-2 2.2-3.3 3.2l-.6.5c-2 1.6-4 2.8-6.3 4l-.6.2a69 69 0 0 1-11.9 4.7c-3 1-5.8 1.8-8.5 3.7a49.2 49.2 0 0 1-20.3 6.3 86 86 0 0 1-5.2.8h-.5c-6 .8-12 1-18.2 1h-1.6c-4.7 0-9.4-.2-14.2-.5l1.4-.7c.4-.2.4-.2.6-.7a174.8 174.8 0 0 1 10.5.2H96l-8.2-.4h-.5c-10.5-.6-21.5-2-31.1-6.5.8-.2 1.2-.1 2 0l1 .2.5.1c7 1.3 14.1 2 21.2 2.5h.8c5.6.4 11.1.6 16.7.6h.8c9.7 0 19.3-.5 28.9-1.8l-1-.2v-.7h-1.3v-.2l6.3-.9-1.6.2h-.6l-3.8.5a266 266 0 0 1-22.2 1.5 174 174 0 0 1-71-11.1l-.5-.2a29 29 0 0 1-6-3.8l-.7-.5a19 19 0 0 1-5.3-6.6l-.3-.5a10.4 10.4 0 0 1 .7-8.4l.3-.6c4.3-7.6 14.3-11.2 22.2-13.4l5.6-1.4.6-.1.6-.1.5-.1 1.4-.1v.4c1 6.2 2 12.3 6.9 16.7-.8 0-1-.1-1.5-.7-.2 0-.3-.2-.4-.3l-.4-.3-.4.2-.7-.7.3 1.1-.3-.3c-.9-1.2-.9-1.2-2-2.1a4 4 0 0 0-2.4.4l-.2.7-.8-.4a5.3 5.3 0 0 0-3.5-.5c-.6.5-.6.5-.9 1.1 0 .8 0 1.3.3 2h-.4l-1.8.1h-.6c-1.2 0-2 .2-3 .8-.6.7-.6.7-.4 1.5 0 .8 0 .8.8 1.2h1.5l1.1-.1c1-.2 1.8-.2 2.7-.1h1.8l-1.5.8a5 5 0 0 0-2 1.8c-.2.7-.2.7 0 1.4.6.6.9.5 1.7.6H47v.3l-1.4.4h3.6c2 0 4 0 6-.2a27.4 27.4 0 0 0 3.7.8h.5v.3h-.7c-2.7 0-2.7 0-5 1.4-1 1.2-1 2.1-1 3.5a6 6 0 0 0 2 3.8c1.6 1.1 3.1 1.9 5 2.4l.4.2c2.7.7 5.9.5 8.5-.6a6 6 0 0 0 2.7-2.8 6 6 0 0 0-.5-4.6 4 4 0 0 0-2.2-1.5h-1.4c-1-1.7-1-1.7-1.3-2.5h.4l.6.8.3.4.2.8h1l.5.1 1.1.6c1 .7 2.1.8 3.3 1l1.3.3.6.2c.5 0 .5 0 1.1.3 1 0 1.6 0 2.4-.5 1.1-.6 2.2-.5 3.4-.4v.2h-.6c-2.2.4-2.2.4-4 1.7-.7 1.1-.9 1.9-.7 3.2l.7 1.3v.5a8 8 0 0 0 5 .9 5 5 0 0 0 2.5-2c.2-1.5.1-2.7-.7-3.9-.6-.6-1.2-1-2-1.5l.5-.2 1.6 1.1c3.5.8 3.5.8 6.8.2.4-.3.4-.3.7-.8l.5.2-.3.3-.4.4-.4.4c-.7 1-.6 2.3-.5 3.6.2.8.6 1.5 1.3 2 2.8 1.6 7 .4 10 0a2908.7 2908.7 0 0 1 10.5-2l.5-.1c4.5-1 8.9-2 13.3-3.3l.5-.2c.4 0 .8-.2 1.1-.3l1-.1.5.4a9 9 0 0 0 6 2.3c1.3 0 3-.2 4-1.2.2-1.3 0-1.9-.9-2.9l-1.3-1.5 1-.8.7-.4c.8-.6 1.4-.6 2.4-.6 2 0 3.5-.1 5.2-1.3.3-.5.3-.5.3-1.2.3-1.2 1-1.5 2-2.2 1.5-1 2.4-2.4 2.8-4.1-.1-.6-.1-.6-.6-1a8.8 8.8 0 0 0-6.7-1 6 6 0 0 0-2.4 1.4c-.8.5-1.1.6-2.1.7a5 5 0 0 0-3.3 1.6 534825.5 534825.5 0 0 1-1.5 1.5l-.7-.2 1-.8c.4-.3.4-.3.3-1l-.3.2c-.5.3-.5.3-1 .3l-3 1.2c-1.1.6-1.1.6-1.9.3l.5-.2 2.4-1.1.8-.4c4.6-2.2 7.4-5.3 9.2-10 1.3-4.1 1.8-8.6 1.8-13a6676.8 6676.8 0 0 1 39.5-.1c3 0 5.5.2 7.7 2.4l.4.4.4.4c1.7 1.7 2 3.7 2 6-.2 3-1.5 5-3.6 7-1.5 1.5-2.8 2.9-3 5 .2 1.8 1 3.1 2.2 4.3l4 3c2 1.4 3.2 4 3.6 6.3.3 4.4-1 7.7-3.8 11a24.2 24.2 0 0 1-17.6 7.5h-.6a543 543 0 0 1-12 0c-2.9 0-5.2.3-7.5 2.2-1 1.2-1.4 2.7-1.9 4.2-1 3-2.4 5.3-5.1 6.9a46.7 46.7 0 0 1-9.4 3.5l-3 1-.5.3-1 .3a25.2 25.2 0 0 1-9.4 1.3h-1.3a571.3 571.3 0 0 1-10.2 0c-4 0-7.4-.8-11-2.4-5.8-2.5-12-2.5-18.3-2.5h-3a3008 3008 0 0 0-22.5 0c-3 0-5.5-.2-7.7-2.4l-1-1c-2.4-2.3-4.8-3-8-3.2-3.7-.4-6.9-1.3-9.4-4.2a14 14 0 0 1-2-4.3 5.7 5.7 0 0 0-2.8-3.4c-3.3-1.5-6.8-1.3-10.3-1.3-5 0-5 0-7.4-1l-.7-.3c-1.7-.8-3-1.8-4.2-3l-.4-.5c-2.2-2.2-3-5-3-8 0-3.5 1.8-6.1 4.2-8.4l1.8-1.4a8 8 0 0 0 3.4-4.2c.2-1.7-.2-3-1.2-4.3l-1.8-1.9a9 9 0 0 1-3-7.2c0-2.2.7-4 2.3-5.6 2.4-2.3 4.8-2.5 8-2.5Z"/><path fill="#bc6c13" d="M122 79.4a24.7 24.7 0 0 1 15.4 9.9 27 27 0 0 1 5 15.7 28 28 0 0 1-.8 7.3v.5a20 20 0 0 1-2 5.3l-.3.6c-2.5 4.6-7.5 6.6-12.3 8a87.1 87.1 0 0 1-15.8 2.8h-.8a130.6 130.6 0 0 1-36-1.6c-5.9-1-12.8-2.8-16.6-7.8a30 30 0 0 1-3.3-21.2 24.5 24.5 0 0 1 7.6-13.2c3-2.8 6.8-4.7 10.8-5.6l.2.4c1.7 3.3 4.8 4.7 8.3 5.8C86 87.8 91.3 88 96.2 88h.7c7.3 0 17.3-.2 23.2-5.4.9-.9 1.4-2 2-3Z"/><path fill="#fcf6e8" d="M144.3 106.6c10 1.8 20.6 4.8 28.3 12l.4.4a12 12 0 0 1 4.1 8.6c-.1 3.7-2.2 6.7-4.8 9.2a58 58 0 0 1-24.7 11.6l-.6.2a125 125 0 0 1-10 2l-.8.2a216.6 216.6 0 0 1-31.7 3h-.6a174 174 0 0 1-71-11.2l-.5-.2a29 29 0 0 1-6-3.8l-.7-.5a19 19 0 0 1-5.3-6.6l-.3-.5a10.4 10.4 0 0 1 .7-8.4l.3-.6c4.3-7.6 14.3-11.2 22.2-13.4l5.6-1.4.6-.1.6-.1.5-.1 1.4-.1v.4c1 6.2 2 12.3 6.9 16.7-.8 0-1-.1-1.5-.7-.2 0-.3-.2-.4-.3l-.4-.3-.4.2-.7-.7.3 1.1-.3-.3c-.9-1.2-.9-1.2-2-2.1a4 4 0 0 0-2.4.4l-.2.7-.8-.4a5.3 5.3 0 0 0-3.5-.5c-.6.5-.6.5-.9 1.1 0 .8 0 1.3.3 2h-.4a210.5 210.5 0 0 0-2.4.1c-1.2 0-2 .2-3 .8-.6.7-.6.7-.4 1.5 0 .8 0 .8.8 1.2h1.5l1.1-.1a16.6 16.6 0 0 1 3.3-.1h1.2l-1.5.8a5 5 0 0 0-2 1.8c-.2.7-.2.7 0 1.4.6.6.9.5 1.7.6H47v.3l-1.4.4h3.6c2 0 4 0 6-.2a27.4 27.4 0 0 0 3.7.8h.5v.3h-.7c-2.7 0-2.7 0-5 1.4-1 1.2-1 2.1-1 3.5a6 6 0 0 0 2 3.8c1.6 1.1 3.1 1.9 5 2.4l.4.2c2.7.7 5.9.5 8.5-.6a6 6 0 0 0 2.7-2.8 6 6 0 0 0-.5-4.6 4 4 0 0 0-2.2-1.5h-1.4c-1-1.7-1-1.7-1.3-2.5h.4l.6.8.3.4.2.8h1l.5.1 1.1.6c1 .7 2.1.8 3.3 1l1.3.3.6.2c.5 0 .5 0 1.1.3 1 0 1.6 0 2.4-.5 1.1-.6 2.2-.5 3.4-.4v.2h-.6c-2.2.4-2.2.4-4 1.7-.7 1.1-.9 1.9-.7 3.2l.7 1.3v.5a8 8 0 0 0 5 .9 5 5 0 0 0 2.5-2c.2-1.5.1-2.7-.7-3.9-.6-.6-1.2-1-2-1.5l.5-.2 1.6 1.1c3.5.8 3.5.8 6.8.2.4-.3.4-.3.7-.8l.5.2-.3.3-.4.4-.4.4c-.7 1-.6 2.3-.5 3.6.2.8.6 1.5 1.3 2 2.8 1.6 7 .4 10 0a2967 2967 0 0 1 10.5-2l.5-.1c4.5-1 8.9-2 13.3-3.3l.5-.2c.4 0 .8-.2 1.1-.3l1-.1.5.4a9 9 0 0 0 6 2.3c1.3 0 3-.2 4-1.2.2-1.3 0-1.9-.9-2.9l-1.3-1.5 1-.8.7-.4c.8-.6 1.4-.6 2.4-.6 2 0 3.5-.1 5.2-1.3.3-.5.3-.5.3-1.2.3-1.2 1-1.5 2-2.2 1.5-1 2.4-2.4 2.8-4.1-.1-.6-.1-.6-.6-1a8.8 8.8 0 0 0-6.7-1 6 6 0 0 0-2.4 1.4c-.8.5-1.1.6-2.1.7a5 5 0 0 0-3.3 1.6 582016.5 582016.5 0 0 0-1.5 1.5l-.7-.2 1-.8c.4-.3.4-.3.3-1l-.3.2c-.5.3-.5.3-1 .3l-3 1.2c-1.1.6-1.1.6-1.9.3l.5-.2 2.4-1.1.8-.4c4.6-2.2 7.4-5.3 9.2-10 1-3.1 1.4-6.4 1.8-9.6Z"/><path fill="#fdd864" d="M110 45c2.5 1 4.5 4.1 5.6 6.4a12.1 12.1 0 0 1 0 9.8c.8-.4 1.2-.6 1.6-1.5l.4-1.2a9.6 9.6 0 0 1 5.1-5.3c2.3-1 4.4-1.5 7-1.4h.7c1.2 0 2.3 0 3.4.5.3.7.3 1 0 1.7a16 16 0 0 1-9.8 8c-1.3.2-2.5.3-3.8.3h-.4c-1.2 0-1.2 0-1.8-.2-.7 0-1.3.5-1.9 1l-.4.3a87.9 87.9 0 0 0-3 2.4c3-1.3 6.1-2 9.2-1 2.1.9 4.8 2 5.8 4.2-.1.8-.5 1.1-1.1 1.6-2 1.3-4.2 2.1-6.5 2.4l.5.5a7.8 7.8 0 0 1 1.6 5.4 6.5 6.5 0 0 1-2.6 4.3c-9.5 6.4-24.7 6-35.6 4-3.7-.7-8-2.2-10.4-5.3-1-1.7-1-3.5-.7-5.4.3-.8.7-1.4 1.3-2l.5-.5c2.7-2.6 2.7-2.6 4.2-2.6l.1-.4a13 13 0 0 1 5.5-5.6l.3-.2c3.4-1.8 7.6-3.9 11.4-3.8l-.2-.7v-2.6c0-1.2.1-2.4.5-3.6.2-.2.2-.2 1-.2 3 .3 5.7 2.6 7.5 4.8a10.5 10.5 0 0 1 2 7c0 .9-.2 1.6-.3 2.4l.5-.6a49 49 0 0 1 5.7-5l-.3-.2c-3.1-2.8-5.4-5.2-5.7-9.6 0-2.5.4-5.9 2.2-7.8.5-.4.5-.4 1-.3Z"/><path fill="#eddbba" d="M53.5 120.6c.9.5 1.5 1.1 2 2v-.5l.4.3c.5.2.5.2 1.2.2l.9 1c.6.5 1.3.7 2 1l1.2.8a53.4 53.4 0 0 0 24.6 6 107 107 0 0 0 11.5.1h2.8c7 0 7 0 14-.5l1.2-.1c4.5-.5 8.9-1.4 13.1-2.8l1.5-.3c1-.1 1.7-.5 2.6-.9 1.1-.5 2.1-.9 3.3-1l.3.7-1 1.1.5-.5c1.5-1.5 2.6-2.6 4.7-2.7 1.1 0 1.6-.5 2.5-1.1 1.6-1.3 3.8-1.2 5.7-1 1.4.3 2.5.6 3.4 1.7 0 1.6-.6 2.6-1.6 3.8-.7.8-1.5 1.4-2.4 2-.6.6-.6 1-.7 1.8-.8 1.1-2 1.7-3.3 2h-2c-1.7 0-1.7 0-3.2.6l-.6.7-.5.5.4.3.5.5.5.5c.6.7.8 1.2 1 2.1-.1.8-.1.8-.7 1.3-2 1-4.2 1.2-6.4.5-1.2-.5-2.4-1-3.5-1.9l-.2-.6h-.4c-29.6 9-29.6 9-36.2 6.5a5 5 0 0 1-2-2.5c0-2 .2-3.2 1.4-4.7a3 3 0 0 1-1.1 1.1h-3.4c-3-.3-3-.3-4.2-1.3l.3.2a72 72 0 0 1 1 1.1c.8 1 .9 1.9.8 3.2-.1 1.2-.9 1.7-1.8 2.4-1.2.7-2.7.6-4 .4a5.3 5.3 0 0 1-2.8-2.3c-.3-1.3-.3-2.2.4-3.3a6.3 6.3 0 0 1 1.3-1.5c-1.4.5-2.8 0-4.2-.3l-.5-.2a153.3 153.3 0 0 1-4-1.3 5 5 0 0 0-1.6-.5c-.9-.2-1.1-.7-1.6-1.4l-.2-.3 1.1 1.8 1.4.1c.7.1 1.2.5 1.8 1a6 6 0 0 1 1 4.4 5.8 5.8 0 0 1-2.6 3.6 13.8 13.8 0 0 1-10.7.2 9.8 9.8 0 0 1-5.5-4.7 6.2 6.2 0 0 1 0-3.8 6 6 0 0 1 3-2.4l1.6-.1h.8l.6-.1-.5-.1-.6-.1-.6-.1-1.2-.4-1.4.1c-2 .2-3.8.2-5.7.2h-3.2l-.2-.5.5-.2-.8-.2c-.8-.3-.8-.3-1.2-.7-.2-.7-.2-1.2.2-1.8.8-1 1.7-1.5 2.9-2a289.9 289.9 0 0 0-4.5.2c-1 .1-1.7.2-2.7-.5-.4-.6-.4-.6-.5-1.1.2-.9.6-1.2 1.2-1.7.7-.4 1.2-.5 2-.6h3.1l-.2-.5a3 3 0 0 1 .4-2.1c.6-.6 1-.7 2-.7a6 6 0 0 1 3 1c0-.2.2-.3.4-.4.7-.8 1.2-.9 2.2-.7Z"/><path fill="#4d2a12" d="M122 77.4a27 27 0 0 1 18.5 13c2.6 4.4 3.6 9.4 3.8 14.4l.4.2h-.4v.4c.2 6.2-1.4 13-5.7 17.7a19 19 0 0 1-3.9 2.6l-.7.4a61.5 61.5 0 0 1-22.4 5.4h-.6c-2.2.3-4.3.2-6.6.2h-1.3a1602.3 1602.3 0 0 1-5.5 0c-10 0-10 0-15-.4l-.5-.1-3.3-.4-.5-.1c-7.4-1.1-16.6-2.7-21.7-8.8-3-4.3-4.6-9.8-4.6-15.1A60 60 0 0 0 24.6 118c-2.2 1.8-4 4.6-4.7 7.5a11.8 11.8 0 0 0 1.2 7c4.6 8.5 16 12.2 24.6 14.8 20.1 6 42.3 7 83.4 4.3 1.5-.3 2.8-.4 4.3-.3v.2l-6.2.9v.9h2v.2a173.7 173.7 0 0 1-19.2 1.8 220.8 220.8 0 0 1-27.7-.3c-8.6-.5-17.2-1.5-25.7-3 14 5.8 29.8 6.3 44.8 6.8v.3a195 195 0 0 1-15.2-.3l.3.5c-2.3 1-5 .4-7.3 0h-.5c-19.2-2.3-19.2-2.3-26.6-7.5a14.6 14.6 0 0 0-5-2.1 55.3 55.3 0 0 1-23.5-11.1c-2.7-2.4-5.4-5.6-5.7-9.3-.2-4.5 1-8 4-11.4 6.6-7.3 17.4-10.6 26.6-12.6h.6c1-.3 1.9-.3 2.9-.3v-.8c.2-8 3.2-14.7 9-20.3 2.8-2.6 8-5.9 12-5.9v2l-1 .3c-3.8 1.4-7 2.9-10 5.7l-.5.5a23.5 23.5 0 0 0-7 16.4c-.2 6.4.2 13.4 4.8 18.4 5.8 5.8 16.3 6.8 24 7.6l1.7.1c8.7 1 17.5 1 26.3.2l.7-.1c8.6-.8 19.7-2 26-8.6l1.3-2c0-.2.2-.4.3-.5a26.4 26.4 0 0 0 2.6-14.3 25.7 25.7 0 0 0-7.1-17l-.6-.6a30.2 30.2 0 0 0-12.3-6.8v-2Z"/><path fill="#0f5946" d="M110 45c2.5 1 4.5 4.1 5.6 6.4a12.1 12.1 0 0 1 0 9.8c.8-.4 1.2-.6 1.6-1.5l.4-1.2a9.6 9.6 0 0 1 5.1-5.3c2.3-1 4.4-1.5 7-1.4h.7c1.2 0 2.3 0 3.4.5.3.7.3 1 0 1.7a16 16 0 0 1-9.8 8c-1.3.2-2.5.3-3.8.3h-.4c-1.2 0-1.2 0-1.8-.2-.7 0-1.3.5-1.9 1l-.4.3c-1.2.8-2.3 1.7-3.4 2.7l.4-.3c3-1.3 6.1-2 9.2-1 2.1.9 4.8 2 5.8 4.2-.1.8-.5 1.1-1.1 1.6-3.7 2.4-8 2.9-12.2 2-4.4-.9-4.4-.9-5.8-1.8l-.6-.3c-.7.3-1.2.7-1.7 1.3l-.5.5-.5.5-.5.5a38 38 0 0 0-2.6 2.9c-.4.4-.7.5-1.3.5-.2-.2-.2-.2-.2-.8.2-1.3 1.2-2.4 2-3.4a285.6 285.6 0 0 0 1.3-1.8c-1-1-2-1.8-3.1-2.6-2.8-2.1-4.3-4-4.9-7.4v-2.6c0-3.1 0-3.1.7-3.8 2.5 0 4.8 1.4 6.6 3a10.8 10.8 0 0 1 3.7 8.9c0 .8-.2 1.5-.3 2.3l.5-.6a49 49 0 0 1 5.7-5l-.3-.2c-3.1-2.8-5.4-5.2-5.7-9.6 0-2.5.4-5.9 2.2-7.8.5-.4.5-.4 1-.3Z"/><path fill="#12474a" d="M144.3 105a12.8 12.8 0 0 1 4 .5 173.3 173.3 0 0 1 2.1.5c9.7 2.4 20.5 6.1 26.4 14.8 1.6 2.8 2.6 5.9 1.8 9.1-1 3.9-3.4 6.8-6.5 9.4l-.6.5c-2 1.6-4 2.8-6.3 4l-.6.2a69 69 0 0 1-11.9 4.7c-3 1-5.8 1.8-8.5 3.7a49.2 49.2 0 0 1-20.3 6.3 86 86 0 0 1-5.2.8h-.5c-6 .8-12 1-18.2 1h-1.6c-4.7 0-9.4-.2-14.2-.5l1.4-.7c.4-.2.4-.2.6-.7a174.8 174.8 0 0 1 10.5.2H96l-8.2-.4h-.5c-10.5-.6-21.5-2-31.1-6.5.8-.2 1.2-.1 2 0l1 .2.5.1c7 1.3 14.1 2 21.2 2.5h.8c5.6.4 11.1.6 16.7.6h.8c9.7 0 19.3-.5 28.9-1.8l-1-.2v-.7h-1.3v-.2h.6a550.9 550.9 0 0 0 4.2-.7h.8c.7-.2.7-.2 1.3-.6l1.4-.3.8-.1h.4l2.3-.5h.5c11-1.8 23-4.8 32-11.8l.4-.3c3-2.4 5.4-5.2 6.3-9 .4-3.5-.8-6.3-2.9-9-6.6-7.7-17.3-10.5-26.8-12.8l-2.8-.7V105Z"/><path fill="#a4580c" d="m141.9 104.3.4.3c0 2.6 0 5.1-.7 7.7v.5a21.8 21.8 0 0 1-2.3 5.9c-2.5 4.6-7.5 6.6-12.3 8a87.1 87.1 0 0 1-15.8 2.8h-.8a130.6 130.6 0 0 1-36-1.6c-3.6-.6-7.2-1.6-10.6-3.1l-.4-.2c-1-.5-1.6-1-2.3-1.8l-1.2-1-.6-.6-.4-.4.4-.9c1 0 1.8.2 2.6.5a162.5 162.5 0 0 1 6.5 1.5l.8.1c1.3.2 2.2 0 3.2-.8a134.3 134.3 0 0 0-8.4-6.6l-.5-.4c-.4-.3-.4-.3-.9-.2l-.5.1-.5.2-1.9 1c-.5.2-.8.1-1.3 0-.4-.5-.4-.5-.5-1 .4-1 1.2-1.3 2-1.7l1.2-.3-2.4-2.6-.5-.4-1-.9c-1-1-1-1-1-1.8.2-.5.2-.5.7-1 1 .1 1.4.5 2 1.2l.7.6.5.6 1.2 1.2.5.5.8.6v.5h.5v.4l.7-.3c5.3-2.5 5.3-2.5 6.6-2.1.5.4.5.4.5 1-.4.9-1.1 1-2 1.4l-.4.2-3 1.2v.4l.9.7.6.5a63493.4 63493.4 0 0 0 6.4 5l.7.4c.5.3.5.3 1 .3l1.5-1 .5-.4.9-.8c.7 0 1 .1 1.6.7 0 .5 0 .5-.3 1.3l-2 1.8c2.7 2.7 4.8 3.2 8.5 3.4a539.4 539.4 0 0 1 5.1.3h.5a116.7 116.7 0 0 0 27.3-1.5l.5-.1c7.1-1.6 14.5-4.6 18.7-10.9l.5-.6 1-1.4a16 16 0 0 0 2.2-6.1l.3-.3Z"/><path fill="#834402" d="m122 79.4 1.3.3.8.2 1.3.4.2.4c.4.3.8.5 1.3.6l.6.3.6.3c-.8 1.7-2.7 2.7-4.3 3.7l-.6.3c-1.4.8-2.9 1.5-4.5 2l.5.3a41.5 41.5 0 0 1 3.9 3.5c.6.6.6.6 1.4.9 2.5-1.4 4.5-3.8 6-6.2l.5-.8h1c.3.3.3.3.4 1 0 2.8-3 5-4.8 6.7l-1.3 1.2.3.3 1.4 1.4.4.5.5.4.4.4c.3.4.3.4.3.8h.5l.6.8 2.7 2.8.7.9c.7-.3 1-.7 1.6-1.2 1.2-1.2 2.2-2 4-2.2v1.6l-1.8 1.9-.6.5-1.2 1.2a13 13 0 0 0 1.9 2.7c.7 1 1 1.8 1 3l-.3.5h-1.3l-.8-1-.3-.6-.5-.6a51.4 51.4 0 0 0-1.2-1.7l-.3-.3c-.8 0-1.3.6-1.8 1.1a64.8 64.8 0 0 1-10.4 6.6c.8 1 1.7 1.6 2.7 2.3a5364.3 5364.3 0 0 1 3.5 2.4l-.2 1.4c-1.2.2-1.2.2-1.9 0l-.5-.4-.6-.4a178 178 0 0 1-3.6-2.6l-.5-.4-.5-.4-1.1-.5-1.4.6-.4.2a193 193 0 0 0-3.8 2c-1.1.5-1.8.8-3 .5-.3-.5-.3-.5-.3-1 .6-.9 1.4-1.3 2.3-1.8.2 0 .3 0 .4-.2a245.7 245.7 0 0 1 4.4-2.1v-.4a14 14 0 0 0-.8-.7c-.7-.6-.7-.6-.9-1.3.1-.5.1-.5.6-1h1.1l1.2 1 .6.6.4.5c1-.3 1.7-.7 2.6-1.1l.6-.4a169369 169369 0 0 1 1.5-.9 36 36 0 0 0 8-5.9l-8-8.2-1.8.8c-.7.3-1 .4-1.8.3-.4-.4-.4-.4-.5-1 .1-.8.6-1 1.3-1.5l.8-.2a28.4 28.4 0 0 0-5.4-5c-.6-.5-1-.8-1.3-1.4a11 11 0 0 0-4 1.6l-1.3.8-.7.4a36.8 36.8 0 0 0-6.1 5 4 4 0 0 1-1.7 1c-1.7-.6-2.8-2-4-3.4l-.4-.4-1.6-1.9c-.4-.5-.4-.5-1-.7h-1c-3.6 0-7.1-.5-10.6-1.2l-.6-.1c-1.6-.4-1.6-.4-2.4-.9H79l-.7.2c-.6 0-1.1.1-1.6.3 1.5 1.5 3.2 2.5 5 3.5v1.4c-.1.2-.1.2-.8.3-2.2 0-4.3-2.2-5.8-3.7l-.4-.3-.3-.4c-1.4-.6-3.5.5-4.8 1l-.7.2-2.2.9h-1.4l-.2-1.6c2.2-1.1 4.3-2.1 6.7-2.9a41.2 41.2 0 0 0-4-3.3c0-.7.2-.9.6-1.4 1 0 1.6.5 2.3 1l.6.5c.7.5 1.3 1 1.8 1.6.7.7 1.2 1 2.1 1h.8V86h-.4c-.7-.3-.8-.6-1.2-1.2l-.3-.5c-.5-.8-.8-1.4-1-2.3l-.7-2c.7.2.7.2 1 .6v.4c1.4 2.7 4.3 4 7 4.9 5 1.7 10.5 2 15.8 2h.7c7.3 0 17.3-.3 23.2-5.5.9-.9 1.4-2 2-3Z"/><path fill="#bd6d13" d="M125.4 80.5a23 23 0 0 1 12 8.8c2 2.6 3.2 5.6 4 8.8l.2.8c.5 2 1 4.5 0 6.3l-.1.9c-.5 2-1.3 4-2.6 5.6l-1.2 1.6c-2.4 3.3-5.8 6-9.6 7.5h-1.6l-.2-.4h1.8V119a376.1 376.1 0 0 1-2.6-1.8l-.5-.3-2-1.5-.7-.5-.5-.3a6 6 0 0 1 2.3-1.6 46 46 0 0 0 10-6.9c1 1 1.7 2 2.5 3.3.5 1 .5 1 1.5 1.4h.6c.1-2-.7-3.2-2-4.7l-.9-1.1c.3-.7.7-1.1 1.2-1.6l.4-.4.9-.8c1-.9 1-.9 1.3-2v-.8c-1.7.4-2.6 1.2-3.9 2.5-.9.9-.9.9-1.9.9l-.6-.8-2.7-2.8c-.4-.4-.4-.4-.4-.9h-.5l-.7-.7-2.8-3 1.9-2c2.7-2.3 2.7-2.3 4.2-5.5l-.1-1.2H131l-.7 1a20.6 20.6 0 0 1-5.6 5.9c-.7-.1-1-.4-1.5-1-1-1-2.2-1.9-3.4-2.8l-1.3-1.1 1.6-.8c2-.7 3.8-1.9 5.5-3l1.1-.5.2-.6 1.2-1.1-.6-.2-2.1-1v-.2Z"/><path fill="#10494c" d="M52 103.7h.2v4l-.2-1a60 60 0 0 0-27 11l-.4.3c-2.2 1.8-4 4.6-4.7 7.5a11.8 11.8 0 0 0 1.2 7c4.6 8.5 16 12.2 24.6 14.8 20.1 6 42.3 7 83.4 4.3 1.5-.3 2.8-.4 4.3-.3v.2l-6.2.9v.9h2v.2a173.7 173.7 0 0 1-19.2 1.8 220.8 220.8 0 0 1-27.7-.3c-8.6-.5-17.2-1.5-25.7-3 14 5.8 29.8 6.3 44.8 6.8v.3a195 195 0 0 1-15.2-.3l.3.5c-2.3 1-5 .4-7.3 0h-.5c-19.2-2.3-19.2-2.3-26.6-7.5a14.6 14.6 0 0 0-5-2.1 55.3 55.3 0 0 1-23.5-11.1c-2.7-2.4-5.4-5.6-5.7-9.3-.2-4.5 1-8 4-11.4 6.6-7.3 17.4-10.6 26.6-12.6h.6c1-.3 1.9-.3 2.9-.3v-1.3Z"/><path fill="#a1c17c" d="M86.4 3.9a9 9 0 0 1 5.7 3.6 9.6 9.6 0 0 1 1.4 7.4c-.7 2.4-2.3 4.6-4.2 6.2-1 .8-1.9 1.8-2.6 3l-.3.3c-.9 1.4-.8 3.1-.6 4.7.6 1.5 2 2.4 3.2 3.3 1.9 1.6 3.6 3.4 4 6 .4 3.3 0 5.7-1.9 8.6-1.5 2.4-1.5 2.4-2.6 5 0 .2 0 .4-.2.6v.3l-1.4.3c-.5-.5-.8-.8-1.1-1.4a12 12 0 0 1 1.1-6.7c.7-1.5 1-2.9.5-4.5a8.8 8.8 0 0 0-2.7-3c-3-2.5-5.4-4.7-6.4-8.7-.3-3.4.2-6.3 2.4-9 1.4-1.6 2.9-3 4.4-4.3a6.7 6.7 0 0 0 2.5-4.7c0-1.2-.4-2.2-1.3-3l-1.8-1.5c-.5-.4-.5-.4-.6-1 .2-1.5 1.2-1.6 2.5-1.5Z"/><path fill="#f6e6c8" d="M143.2 115.2c6.4 1 13.8 4.3 17.8 9.6a7.5 7.5 0 0 1 1.3 5.6c-.7 3.1-3.5 5.6-6.1 7.2a46.7 46.7 0 0 1-10.6 5c-6 2-12.2 3.2-18.4 4.5l-.8.1a84.4 84.4 0 0 1-17.3 1.2v-.2h.6a145 145 0 0 0 29.2-5.3 40.8 40.8 0 0 0 16.3-7.7c.7-.6.7-.6 1.1-.6l.2-.4.7-1c.6-.7 1-1.5 1.1-2.4-.3-.7-.4-1-1-1.3a3 3 0 0 0-1.6 0l-1.6 1.2a20.6 20.6 0 0 1-13.1 4.6v.4h.4c0 1-.2 1.8-.7 2.7l-.2 2.2c-.7.7-1.5.9-2.4 1.1l-.4.2c-.7.3-1.3.3-2 .3h-1.4l-.2-1h2.1c.7-.1 1-.3 1.7-.6l1.7-.9c.2-1.7-.5-2.5-1.6-3.7l-.6-.7 1-.8.7-.4c.8-.6 1.4-.6 2.4-.6 2 0 3.5-.1 5.2-1.3.3-.5.3-.5.3-1.2.3-1.2 1-1.5 2-2.2 1.5-1 2.4-2.4 2.8-4.1-.1-.6-.1-.6-.6-1a8.8 8.8 0 0 0-6.7-1 6 6 0 0 0-2.4 1.4c-.8.5-1.1.6-2.1.7a5 5 0 0 0-3.3 1.6 582016.5 582016.5 0 0 0-1.5 1.5l-.7-.2 1-.8c.4-.3.4-.3.3-1l-.3.2c-.5.3-.5.3-1 .3l-3 1.2c-1.1.6-1.1.6-1.9.3l.5-.2 2.4-1.1.8-.4c4.7-2.2 7.3-5.4 9.2-10h.5l.2-1z"/><path fill="#0e4f3a" d="M110 45c2.5 1 4.5 4.1 5.6 6.4a12.1 12.1 0 0 1 0 9.8c.8-.4 1.2-.6 1.6-1.5l.4-1.2a9.6 9.6 0 0 1 5.1-5.3c2.3-1 4.4-1.5 7-1.4h.7c1.2 0 2.3 0 3.4.5.3.7.3 1 0 1.7a16 16 0 0 1-9.8 8c-1.3.2-2.5.3-3.8.3h-.4c-1.2 0-1.2 0-1.8-.2l-.8.1-.4.3-.4.3-.4.4c-.2 0-.3.2-.4.3l-1.1.8c-.5-.2-.5-.2-.9-.7l-.7-.2-.2.7-1.3.4a6 6 0 0 1 1.5-1.6l-.3-.2c-3.1-2.8-5.4-5.2-5.7-9.6 0-2.5.4-5.9 2.2-7.8.5-.4.5-.4 1-.3Z"/><path fill="#e0d5b9" d="M141.6 151.7a87.6 87.6 0 0 1-32.5 6.8c-17.2 1-37 .7-52.9-6.6.8-.2 1.2-.1 2 0l1 .2.5.1c7 1.3 14.1 2 21.2 2.5h.8c5.6.4 11.1.6 16.7.6h.8a244.4 244.4 0 0 0 39.3-3.4l.9-.2.7-.1 1.5.1Z"/><path fill="#e76628" d="M62.8 131c1.8.3 2.9 1.7 3.9 3.1.5.8.5.8 1.3 1.3h1.3c1.2.7 1.7 1.4 2.2 2.5.5 1.6.4 3-.3 4.5-1.2 1.8-3 2.5-5 3a15 15 0 0 1-11-2.4 8 8 0 0 1-2.6-3.7c0-1.4-.1-2.7.7-3.8 1-1 2-1.7 3.4-1.9 1.8 0 3 0 4.4 1v-.5c0-1-.1-1.8.3-2.7.6-.4.6-.4 1.4-.4Z"/><path fill="#f5e3c3" d="M63.3 129.7c1.7.2 3.1.6 4.7 1 1 .4 1.8.6 2.8.7.8 0 1.4.2 2 .6 1.2.4 2.4.5 3.5.7l1 .1c3.2.6 6.5 1 9.8 1.4h.5l1.7.2h.8c3.1.3 6.2.2 9.4.2h4.1c1.3 0 2.6 0 4 .2v.2a120 120 0 0 1-10.7 1.5c-1.6.1-3 .3-4.4 1l-.6.2-.6.6c-1 .8-3 .3-4.2.2-2.7-.2-2.7-.2-3.8-1.2l.3.2a72 72 0 0 1 1 1.1c.8 1 .9 1.9.8 3.2-.1 1.2-.9 1.7-1.8 2.4-1.2.7-2.7.6-4 .4a5.3 5.3 0 0 1-2.8-2.3c-.3-1.3-.3-2.2.4-3.3a6.3 6.3 0 0 1 1.8-1.7l-.5.2c-1.4.5-2.8 0-4.2-.3l-.5-.2a153.3 153.3 0 0 1-4-1.3 5 5 0 0 0-1.6-.5c-.9-.2-1.1-.6-1.6-1.3-.2-.4-.2-.4-.2-.9H66l-1.3-.8c-1-.8-1.8-1-3-1.2l.3-.6h1l.3-.7z"/><path fill="#f2bf40" d="m107.6 70.3 1.1.4c2.6 1 5.5 2 8.3 2h1.6c1 .1 1.3.2 2.1.9a8.5 8.5 0 0 1 1.4 6 7.2 7.2 0 0 1-3.5 4.3 33.9 33.9 0 0 1-7.9 2.9l-.7.1a38 38 0 0 1-5.4.9h-.9c-1.6.3-3.3.3-5 .3.7-.5 1-.5 1.9-.6A42 42 0 0 0 110 85c0-.7-.3-1-.7-1.4-.8-1-1-1.5-1-2.6 1-.6 2-1 3.2-1.2l1.4-.6c.3-.5.3-.5.3-1.1l-.8-1c-.8-.7-.8-.7-1-1.3-.2-.4-.2-.4-.8-.6l-.6-.2-.4-.3a7 7 0 0 0-2.4-.3h-.5c-1.3 0-2.2.4-3.3 1l-.3-.7 4.5-4.4Z"/><path fill="#2d661c" d="m135.2 128.4.2 1c-.5.9-.8 1-1.8 1.2l-.8.2a2419.3 2419.3 0 0 1-17.2 4.7h-.6a143 143 0 0 1-17.2 2.7c-2.5 0-2.5 0-4.6 1-.4.4-.4.8-.4 1.4v.6c.1.6.2 1 .6 1.4 2 1.3 5.1.2 7.3-.1a1488 1488 0 0 1 5-1c5-.8 9.8-1.9 14.7-3.1l.6-.2 3.2-.8.7-.2 1-.3c1-.2 1.7-.4 2.6-.3l.2-.7.3 2-2.7.7v.4c-29.3 8-29.3 8-34.1 5.4a4.3 4.3 0 0 1-1.5-2.2c-.1-1.4-.2-2.7.6-3.8a8 8 0 0 1 5.2-2.1l.7-.1a365.6 365.6 0 0 1 5.9-.7 137.5 137.5 0 0 0 27.5-6.3l.7-.2 1.3-.4c1.6-.6 1.6-.6 2.6-.2Z"/><path fill="#824501" d="m125.6 94.5 3.3 3 1 1 2.3 2.2.5.4.4.5.4.4.6.8c.7-.3 1-.7 1.6-1.2 1.2-1.2 2.2-2 4-2.2v1.6l-1.8 1.9-.6.5-1.2 1.2a13 13 0 0 0 1.9 2.7c.7 1 1 1.8 1 3l-.3.5h-1.3l-.8-1-.3-.6-.5-.6-.8-1.2-.4-.5-.3-.3c-.8 0-1.3.6-1.8 1.1a64.8 64.8 0 0 1-10.4 6.6c.8 1 1.7 1.6 2.7 2.3l1 .6.5.4 2 1.4-.2 1.4c-1.2.2-1.2.2-1.9 0l-.5-.4-.6-.4a178 178 0 0 1-3.6-2.6l-.5-.4-.5-.4-1.1-.5-1.4.6-.4.2a193 193 0 0 0-3.8 2c-1.1.5-1.8.8-3 .5-.3-.5-.3-.5-.3-1 .6-.9 1.4-1.3 2.3-1.8.2 0 .3 0 .4-.2a245.8 245.8 0 0 1 4.4-2.1v-.4a14 14 0 0 0-.8-.7c-.7-.6-.7-.6-.9-1.3.1-.5.1-.5.6-1h1.1l1.2 1 .6.6.4.5c1-.3 1.7-.7 2.6-1.1l.6-.4.8-.5.7-.4a36 36 0 0 0 8-5.9l-.3-.3-.3-.4-.4-.4-.6-1-1.8-2-.4-.4a467 467 0 0 0-4.2-4.1l1.1-1.2Z"/><path fill="#32812d" d="M53.5 120.6c1.5.8 2 2 2.5 3.5l.6 2.9.1.7c.5 2.2.5 2.2.4 3.1-.6.6-.9.5-1.7.5H54c-2.1.1-4.1.2-6.1.6-2.7.5-2.7.5-3.6 0-.4-.7-.4-1-.2-1.8a6 6 0 0 1 3-2.4 289.9 289.9 0 0 0-4.4.2c-1 .1-1.7.2-2.7-.5-.4-.6-.4-.6-.5-1.1.2-.9.6-1.2 1.2-1.7.7-.4 1.2-.5 2-.6h3.1l-.2-.5a3 3 0 0 1 .4-2.1c.6-.6 1-.7 2-.7a6 6 0 0 1 3 1c0-.2.2-.3.4-.4.7-.8 1.2-.9 2.2-.7Z"/><path fill="#4a2811" d="M122 77.4a27 27 0 0 1 18 12.2l.5.8c2.6 4.4 3.6 9.4 3.8 14.4l.4.2h-.4v.4c.2 6.2-1.4 13-5.7 17.7-2 1.9-5.5 4-8.3 4.4l-.5-1.8 1-.5.6-.3 1.2-.6c4-1.8 6.5-4.6 8-8.7a31.8 31.8 0 0 0-2-24c-1-2-2.2-3.4-3.6-4.8l-.6-.6a30.2 30.2 0 0 0-12.3-6.8v-2Z"/><path fill="#0f4343" d="M59.3 150.6c1.7 0 3.3.3 4.9.5 21.2 3.4 43.7 3.6 65 .5 1.4-.3 2.7-.4 4.2-.3v.2l-6.2.9v.9h2v.2a173.7 173.7 0 0 1-19.2 1.8 220.8 220.8 0 0 1-41.5-1.6h-.7c-2.6-.4-5.2-.7-7.8-1.3l.6-.5-1-.2-.3-1Z"/><path fill="#104749" d="M144.3 105c1.2 0 2.3 0 3.5.4h.5l1.6.4.5.2c9.7 2.4 20.5 6.1 26.4 14.8 1.6 2.8 2.6 5.9 1.8 9.1-1 3.9-3.4 6.8-6.5 9.4l-.6.5a42.4 42.4 0 0 1-8.9 5.2c-1 .5-1 .5-1.8.3v-.7l-1.1.2v-.6l.6-.3c3.5-1.5 6.8-3.2 9.8-5.5l.4-.3c3-2.4 5.4-5.2 6.3-9 .4-3.5-.8-6.3-2.9-9-6.6-7.7-17.3-10.5-26.8-12.8l-2.8-.7V105Z"/><path fill="#bd6d13" d="M134 106.1c1.1 1 1.8 2 2.5 3.3.5.8.9 1.2 1.8 1.5l.7.1c-1.6 4.5-6.2 7.5-10.2 9.5a5 5 0 0 1-2.3.3l-.2-.4h1.8V119a375.6 375.6 0 0 1-2.6-1.8l-.5-.3-2-1.5-.7-.5-.5-.3a6 6 0 0 1 2.3-1.6 46 46 0 0 0 10-6.9Z"/><path fill="#834601" d="M56.9 105.7c1 0 1.4.4 2 1.1l.7.6.5.6 1.2 1.2.5.5.8.6v.5h.5v.4l.7-.3c5.3-2.5 5.3-2.5 6.6-2.1.5.4.5.4.5 1-.4.9-1.1 1-2 1.4l-.4.2-3 1.2v.4l.9.7.6.5a743630.1 743630.1 0 0 0 6.4 5l.7.4c.5.3.5.3 1 .3l1.5-1 .5-.4.9-.8c.7 0 1 .1 1.6.7 0 .5 0 .5-.3 1.3l-2 1.8a12 12 0 0 0 2.7 2.1c1.5.9 1.5.9 2 1.6l-.2 1.2c-1.5.1-2.3-.4-3.5-1.2l-.5-.3-1.7-1.3-1-.6c-.7.1-.7.1-1.3.5-.3 0-.5.2-.8.3l-1.4.7c-.8.3-1 .3-1.8 0-.3-.1-.3-.1-.3-.7s0-.6.4-1l.5-.2a1890468 1890468 0 0 0 2-1.4 134.3 134.3 0 0 0-8.9-7c-.4-.3-.4-.3-.9-.2l-.5.1-.5.2-1.9 1c-.5.2-.8.1-1.3 0-.4-.5-.4-.5-.5-1 .4-1 1.2-1.3 2-1.7l1.2-.3a31.2 31.2 0 0 0-3.8-3.9c-1.1-1-1.1-1-1.1-1.8.2-.5.2-.5.7-1Z"/><path fill="#4c2a12" d="M72.9 78v2l-1 .4c-3.8 1.4-7 2.9-10 5.7l-.5.5a23.5 23.5 0 0 0-7 16.4 29.6 29.6 0 0 0 3.8 17.6h-.7l-.4.6a11 11 0 0 0 2.9 3.2c-1.2 0-2-1.1-2.8-2-4.9-5.1-5.4-13.1-5.2-19.8.4-6.8 3.3-12.8 8-17.6l.4-.5c2.8-3 8.3-6.4 12.5-6.4Z"/><path fill="#9c520d" d="m122 79.4 1.3.3.8.2 1.3.4.2.4c.4.3.8.5 1.3.6l.6.3.6.3c-.8 1.7-2.7 2.8-4.3 3.7l-.6.3c-3.4 1.9-3.4 1.9-5.2 1.7l-.4-.3c-.5-.4-.5-.4-1.3-.3l-.7.2v-.4c-5 1.5-10 3.7-13.6 7.5-.8-.3-1.2-.8-1.8-1.5a67.3 67.3 0 0 0-3.5-4c.7-.5.8-.5 1.6-.6h1.7l1.4-.1v-.2h.5c10-.9 10-.9 18.6-5.8.7-.8 1.1-1.7 1.6-2.7Z"/><path fill="#834204" d="M72.4 80c.7.3.7.3 1 .7v.4c1.4 2.7 4.3 4 7 4.9a46 46 0 0 0 11 1.9v.2h.3c.9 0 1.5 0 2.1.6C95 90 95 90 95 90.5a50 50 0 0 1-11.5-1.2l-.6-.1c-1.6-.4-1.6-.4-2.4-.9H79l-.7.2c-.6 0-1.1.1-1.6.3 1.5 1.5 3.2 2.5 5 3.5v1.4c-.1.2-.1.2-.8.3-2.2 0-4.3-2.2-5.8-3.7l-.4-.3-.3-.4c-1.4-.6-3.5.5-4.8 1l-.7.2-2.2.9h-1.4l-.2-1.6c2.2-1.1 4.3-2.1 6.7-2.9a41.2 41.2 0 0 0-4-3.3c0-.7.2-.9.6-1.4 1 0 1.6.5 2.3 1l.6.5c.7.5 1.3 1 1.8 1.6.7.7 1.2 1 2.1 1h.8V86h-.4c-.7-.3-.8-.6-1.2-1.2l-.3-.5c-.5-.8-.8-1.4-1-2.3l-.7-2Z"/><path fill="#bb6b12" d="M125.4 80.5c3 1 6 2.5 8.2 4.7-.2.7-.4.9-.9 1.3l-.4-.9a5 5 0 0 0-1.6.5l-1 1.6c-1 1.9-3 4-5 5-.7 0-1-.3-1.5-.8-1-1.1-2.2-2-3.4-3l-1.3-1 1.6-.8c2-.7 3.8-1.9 5.5-3l1.1-.5.2-.6 1.2-1.1-.6-.2-2.1-1v-.2Z"/><path fill="#1d6525" d="m138 132.4 1.6.9c-.1.6-.3 1-.8 1.3l-1.2.7.3.3c1.9 2.1 1.9 2.1 2 3.4 0 .7 0 .7-.6 1.2-2 1-4.2 1.2-6.4.5-1.2-.5-2.4-1-3.5-1.9l-.2-.6-.5.1-.6.2-.6.2c-.6.1-.6.1-1.2-.1l2.4-.9-.2-.9c.2-1 .4-1.4 1-2.2 1.6-1 3-1 4.8-.9l.8.2c1.2 0 2-.8 3-1.5Z"/><path fill="#3b8c31" d="M42.6 124h3.1c.5.1.5.1 1.2.6v.4l.4.2c.9.4 1.6.9 2.4 1.4a52.7 52.7 0 0 0 5.2 3.5v.5l.4.2h-.5l-2 .2H52l-.7.1h-.7c-.6.1-.6.1-1.2.6-4.1.9-4.1.9-5.3.2-.4-.7-.4-1-.2-1.8a6 6 0 0 1 3-2.4 289.9 289.9 0 0 0-4.4.2c-1 .1-1.7.2-2.7-.5-.4-.6-.4-.6-.5-1.1.2-1 .8-1.5 1.6-2 .6-.2 1-.2 1.6-.2Z"/><path fill="#c1baa7" d="M53 115c.5.8.7 1.5.7 2.5a10478 10478 0 0 1-6.4 2c-4.4 1.5-9 3.3-11.5 7.5-.8 1.9-.3 4 .4 5.8l-.5.2a5.6 5.6 0 0 1-2-4 7 7 0 0 1 1.8-5.5 32.7 32.7 0 0 1 16.2-8.3h.5c.4-.2.4-.2.9-.2Z"/><path fill="#2e621c" d="M139.8 124.9c0 .1.6.5 1.3 0 .5-.2 1.2-1.3 1.6-1.4 1.6-.5 3.4-1 4.9-1 1.2.1 3.3.9 4 1.7.5.6-.4 1.7-.7 2.6-.2.7-2.9 2.4-3.2 3-.3.8-.5 1.6-.9 2.1-.5.8-1.4.9-1.4.9-.5.8-4.9.7-5.8 1l-6.8-3a2419.3 2419.3 0 0 1-9.9 2.9l-.7.2a94.3 94.3 0 0 1-8 1.8l-5.4 1-.5.1c-1 .2-2 .3-3 .2 0-.8 0-.8.3-1l-1.3-.3a6 6 0 0 1 2.2-.7l.8-.1.9-.2 1.8-.3h.5c6.8-1.2 13.5-3 20.1-5.2l.7-.2 1.3-.4c1.6-.6 6.3-4 7.2-3.7Z"/><path fill="#feeda5" d="m92 64 1.1.3.5 1.1h-1.9c-.6 0-.6 0-1 .4v2.3l.9.2c-.3.7-.3.7-.7.9l-.5.2-.6.2-.6.3a13.5 13.5 0 0 0-5.8 4.5c-.8 1-1.6 1.9-2.7 2.5-.7.7-.6 1.4-.6 2.4-.1.6-.1.6-.5 1H78l-.8.1c-.8-.1-.8-.1-1.2-.5-.5-1-.4-2 0-3 .4-.9.7-1.4 1.6-2l1-.1c1.4-.3 2.2-.8 3.2-1.8l.8-1.5a7.2 7.2 0 0 1 3.4-3l1-.5c2.5-1.5 2.5-1.5 3-1.5l-.2-.7c1-.8 1-.8 1.5-.8l.3-.7.4.2v-.4Z"/><path fill="#e69f21" d="M117.4 73.2h1.4l.8-.1c.7 0 .7 0 1.2.6a8.6 8.6 0 0 1 1.3 6 7.2 7.2 0 0 1-3.5 4.2 33.9 33.9 0 0 1-7.9 2.9l-.7.1a38 38 0 0 1-5.4.9h-.9c-1.6.3-3.3.3-5 .3.7-.5 1-.5 1.9-.6 4.9-.7 9.7-2.3 14.1-4.5l.8-.4a7 7 0 0 0 3.9-4.5c.2-1.6-.3-2.5-1.1-3.8l-1-1.1Z"/><path fill="#53a443" d="M97.6 55.6c2.7.7 4.9 2.3 6.4 4.7a7.2 7.2 0 0 1 1.2 4v1.5a28203.8 28203.8 0 0 1 0 2.7c-.5-.6-.8-1.2-1-2a26 26 0 0 0-1-2.2h-.7c-.2.7-.3 1 0 1.6l.4.5a4 4 0 0 1 1 2.1c-1.3-.9-2.5-1.8-3.7-2.9l-.4-.4a9.9 9.9 0 0 1-2.5-7v-1l.3-1.6Z"/><path fill="#52a344" d="M110 46.7a14 14 0 0 1 5.2 9c.2 1.8-.2 3.5-.7 5.2h-.5l-.1-.5-.3-.8-.2-.8c-.2-.7-.5-1.4-1-2h-.4l.7 3.7c-1-.3-1.4-1-1.9-1.8l-.2-.4a12.4 12.4 0 0 1-1.9-8.5 9 9 0 0 1 1.3-3Z"/><path fill="#f3e7cd" d="m129.2 138.2.5.5c.6.6 1.1.9 2 1.2l.6.7.7.4a5 5 0 0 1-2.1-.5c-1.9-.7-4 .1-5.8.7a141.1 141.1 0 0 1-19 4c-3.8.6-7.7 1.2-11.6.5v-.2l2.9-.4v-.3l.8-.1c7.3-1.1 7.3-1.1 14.5-2.5l.5-.1c4.5-1 8.9-2 13.3-3.3l.5-.2c.4 0 .8-.2 1.1-.3l1-.1Z"/><path fill="#2a7428" d="M83.1 137.2c1 .6 1.8 1.7 2.2 2.7.2 1 .3 2-.2 3a5 5 0 0 1-2.4 1.7c-1.7.2-3 .2-4.5-.7a4 4 0 0 1-1.6-3c0-1.4.8-2.4 1.7-3.3 1.6-1 3.1-1 4.8-.4Z"/><path fill="#c2b79d" d="M143.2 115.2c6.7 1.1 14 4.5 18.1 10 .8 1.2.8 1.2.8 2l-.2.5c-.7 0-.7 0-1-.3l-.4-.5a28.7 28.7 0 0 0-17.5-8.6h-.5l-.4-.2-.2-.4.6-1.6h.5l.2-.9z"/><path fill="#a4590e" d="m114 86.5.5.5-.5.2a313.2 313.2 0 0 0-2.6 1 27 27 0 0 0-9.4 6.1c-.8-.3-1.2-.8-1.8-1.5a67.3 67.3 0 0 0-3.5-4c.7-.5.8-.5 1.6-.6h1.7l1.4-.1v-.2h.5c3-.3 6.1-.6 9.1-1.5a4 4 0 0 1 3 .1Z"/><path fill="#854701" d="m125.6 94.5 3.3 3 1 1 2.3 2.2.5.4.4.5.4.4.6.8c.7-.3 1-.7 1.6-1.2 1.2-1.2 2.2-2 4-2.2v1.6l-1.8 1.9-.6.5-1.2 1.2a13 13 0 0 0 1.9 2.7c.7 1 1 1.8 1 3l-.3.5h-1.3l-.8-1c-.6-1-1.3-2-2-2.8-.3-.4-.3-.4-.3-.9l-.7-.2-.4-1.1-1.8 1.3-.4-.2 1.5-1.3c0-.2-.2-.3-.3-.4l-.3-.5-.4-.4-.6-1a12 12 0 0 0-2.2-2.5 467 467 0 0 0-4.2-4.1l1.1-1.2Z"/><path fill="#114447" d="m60 153.5 3.7 1 7.6 1.7.9.1a203 203 0 0 0 29.2 2.5v.3a195 195 0 0 1-15.2-.3l.3.5c-2.3 1-5 .4-7.3 0h-.5c-6.3-.7-13-1.6-19-4v-1.1l.5-.2-.2-.5Z"/><path fill="#114849" d="m36.8 144.4 4.6 1.4a94 94 0 0 0 11.5 3.3h.6a289.1 289.1 0 0 0 6 1.3l.5.7h-.5v.6l1.8.2v.3c-1.6.3-3 0-4.7-.3l.8.3a1974.9 1974.9 0 0 1 1.4.6c1.2.4 1.2.4 1.4 1l.7.4h-1.1l.2.9c-.5.2-.5.2-.9 0l-1.6-.6-.6-.2a43.1 43.1 0 0 1-5.8-3l-.8-.5-2.4-1h-.5a232.3 232.3 0 0 0-6.3-1.9v-.2l1.5-.4v-.7l-1.3-.2.2 1.1-1.3-.2v-.6c-.2-.6-.2-.6-1-1l-1.7-.6-.7-.7Z"/><path fill="#bc3a1d" d="m60.4 134.1.7.5.4.2.3 1c.3.8.7 1.4 1.3 2.1H62l-1.3-1.3c-.9-1.1-.9-1.1-2.3-1.6-1.3 0-2.3.2-3.3 1-.8.8-.8 1.5-.8 2.6.3 1.7 1.7 2.8 3 3.7a12.5 12.5 0 0 0 9.8 1l.6-.2c1.4-.6 2-1.3 2.6-2.7.4-.5.4-.5 1-.6h.5c-.2 1.6-.5 2.7-1.7 3.8-2.3 2-5.5 2.1-8.3 1.9-3-.4-6.2-1.7-8-4a6.2 6.2 0 0 1-1.2-4.7 5 5 0 0 1 2.3-2.7 7 7 0 0 1 5.5 0Z"/><path fill="#52a343" d="M130 53.1h2.5c-2 3.6-4.9 6-8.7 7.4-1 .3-1.9.3-2.8.3h-1.8a6 6 0 0 1 1.8-1.3l.5-.3c.2 0 .4-.2.5-.3 2-.8 2-.8 3.4-2.2-1.5-.4-2.2 0-3.5.7l-.5.3-2.5 1.5c.4-1.8 1.8-3.1 3.3-4.2 2.5-1.5 5-2 7.9-1.9Z"/><path fill="#53a342" d="m125 68 1 1c-1.4 1-2.9 1.5-4.6 2h-.4c-2.6.7-5.7.3-8.3-.2l-.6-.2-1.4-.3-.2-.5h.5l2.2-.3h.8l.7-.2h.7l1.5-.3-.2-.7c-2 0-3.8 0-5.8.2a7 7 0 0 1 2.5-1.5l.6-.3c3.7-1.4 7.7-1 11 1.3Z"/><path fill="#522f12" d="M99.5 110.7c1.5 1.1 3 2.6 3.6 4.5v2.3c-.2.2-.2.2-.8.2h-.5l-.4-.8-.2-.5-.5-1c-.6-1.5-1.8-2.3-3.3-3a6.9 6.9 0 0 0-5.2 0A7.4 7.4 0 0 0 88 117c-.2.5-.2.5-.6.7-.5 0-.5 0-1.2-.5-.2-2 .6-3.3 1.8-4.8 2.8-3 8-3.9 11.5-1.7Z"/><path fill="#11474a" d="M144.3 105c1.2 0 2.3 0 3.5.4h.5l1.6.4.5.2a74 74 0 0 1 16.6 6v.5l.4.2v.9l-.4.2.6.4a34 34 0 0 1 6.5 5.4l-.2.4-.5-.5c-7-7.3-16.8-10-26.3-12.3l-2.8-.7V105Z"/><path fill="#105942" d="M110 45c2.5 1 4.5 4.1 5.6 6.4 1 2.4 1 4.8.9 7.3h-.5v.6c-.2.9-.5 1.4-1 2-.4 0-.7-.2-1-.4h.5a15 15 0 0 0-2-11.5c-.7-1-1.4-1.7-2.2-2.5-1.6 1.8-1.5 4-1.4 6.3a434.3 434.3 0 0 1 0 3h-.6l-.3.5-.2-.6h-.4c-.9-3.6-.5-6.8 1-10 .8-1.2.8-1.2 1.6-1.1Z"/><path fill="#4c2911" d="M72.9 78v2l-1 .4c-3.8 1.4-7 2.9-10 5.7l-.5.5a25 25 0 0 0-4.5 6.2c-.3-.7-.3-.7 0-1.2l.3-.4c0-.2.2-.4.3-.5l.3-.4-1-.4.3-.7-1.3 2-.3-.4.9-1.5.2-.4c1-1.4 2.2-2.7 3.4-4l.4-.4c2.8-3 8.3-6.4 12.5-6.4Z"/><path fill="#804301" d="M131.5 85.6c.6 0 .6 0 .8.3.2 1.4-.2 2.3-1 3.5-1 1.4-2.4 2.6-3.7 3.9l-1.3 1.2.3.3 1.4 1.4.4.5.5.4.4.4c.3.4.3.4.3.8h.5l-.3.5c-.5-.4-.8-.6-1.2-1.2l-2.8-2.8-1 .9 6.4 6.4-.2.5-6.5-6.5-1.8.8c-.7.3-1 .4-1.8.3-.4-.4-.4-.4-.5-1 .1-.8.6-1 1.3-1.5l.8-.2-.3-.3-.5-.5c0-.2-.2-.3-.4-.5l-.8-1.1c1 .4 1.5 1 2.2 1.8l1-.5c0-.6 0-.6-.4-1l-.4-.4-.5-.5-.8-.5.2-.5.9.8.5.4.9.8c1.6 0 3.2-2 4.3-3.2.8-1 1.4-2 2-3 .5-.7.5-.7 1.1-.7Z"/><path fill="#134e50" d="m109.8 158.6.6.1.5.1-.4 1c.3 0 .6.2.9.4a89.9 89.9 0 0 1-12.6.2c-4.9 0-9.7 0-14.6-.4l1.4-.7c.4-.2.4-.2.6-.7a174.8 174.8 0 0 1 10.5.2v-.2a5132.5 5132.5 0 0 1 4.9-.1c6.6-.2 6.6-.2 8.2.1Z"/><path fill="#da9c29" d="M105 80.3c-.2 1.2-.2 1.2-.7 1.7-3.4 1.7-6.9 2-10.6 2h-.5c-5.5 0-5.5 0-7-1.1-.3-.5-.3-.9-.2-1.5l.5-.4 2.4.3c4.8.8 9.7.4 14.2-1.2.8-.3 1-.1 1.8.2z"/><path fill="#366831" d="M62.8 131c1.8.3 2.9 1.7 3.9 3.1.5.8.5.8 1.3 1.3h1.3c1.1.6 1.8 1.4 2.2 2.5l.3 1.8-1.1.2-.2-.4c-.6-1.3-.6-1.3-1.6-2.3a5.3 5.3 0 0 0-3.8.3 6 6 0 0 1-1.9.5c-.8-.4-1-.8-1.4-1.6-.6-1.4-1-2.8-.7-4.3.4-.9.6-1 1.7-1.1Z"/><path fill="#105843" d="M97.5 54.3a12.3 12.3 0 0 1 8.5 6.6c0 .4 0 .4-.2.7l-.4-1.3h-.7v1c-.5-.4-.9-.8-1.3-1.4a13.9 13.9 0 0 0-5.8-4.3c-.2 3.4-.2 3.4.6 6.7l.3.5c1 2.3 3 3.9 4.9 5.4l.4.3v.5l-.9.2.2.4a13.7 13.7 0 0 1-6.4-6 14 14 0 0 1-.7-5v-.5c0-3.8 0-3.8 1.5-3.8Z"/><path fill="#522f12" d="M85.1 99.2c.7.1.9.2 1.4.7a6 6 0 0 1-1.8 4.2 7.6 7.6 0 0 1-5.3 2.1c-2.3 0-4-.8-5.6-2.4-.8-1-1.5-1.8-1.6-3 .1-1 .1-1 .5-1.4h1l.4.6c.7 1.6 1.3 2.8 3 3.4a7 7 0 0 0 4.8 0 6.8 6.8 0 0 0 2.8-3.7l.4-.5Z"/><path fill="#10484b" d="M166.8 112.3c1.2.4 2.1 1 3.1 1.7l.5.4c3.8 2.7 7.4 6.4 8.3 11.1.2 2.4 0 4.4-.8 6.6l-.4.3-.3-1-1 1 .5-2.8c.6-3.6-.7-6.4-2.6-9.2l-.3-.6c-1.6-2.6-4.5-4.3-7-5.9l.6-.2v-1l-.6-.1v-.3Z"/><path fill="#4e2b12" d="M57.5 120.1c.9.5 1.5 1 2.3 1.8 4.3 3.9 10.8 5.2 16.4 6.2v.3c-1 0-1.7 0-2.6-.3l-.3 1c-3.9.8-9.1-1.6-12.4-3.6l-1.1-1.1-1.8-1.6a2 2 0 0 1-.7-1.3l-.4-.3.2-.6h.4v-.5Z"/><path fill="#512f13" d="M103.6 99.2c.7 0 1 .2 1.5.7l.3.8a5 5 0 0 0 2.6 2.8c1.2.4 2.5.4 3.7 0a5.1 5.1 0 0 0 2.8-3.4l.2-.4 1.3-.3c.5.5.5.5.5.9-.1 1.8-1 3-2.2 4.2a8 8 0 0 1-6 1.4 7.3 7.3 0 0 1-4.7-3.6c-.5-.9-.5-1.6-.5-2.6l.5-.5Z"/><path fill="#0e543f" d="M126.2 67.1c.7.6 1.1 1 1.5 1.9-.1.8-.5 1.1-1.1 1.6a15.2 15.2 0 0 1-8.7 2.4H116l-.4-.5 4.7-.2v-.7h-4v-.2h.8c3.1-.3 6-.9 8.7-2.4a9.5 9.5 0 0 0-7.1-2.8h-.6a17 17 0 0 0-4.3.5l.5-.4h.6v-.9l-.4-.2c3.6-2.1 8.6-.3 11.7 2Z"/><path fill="#104242" d="M132.4 151.3h1v.2l-6.2.9v.9h2v.2c-6.5 1-13 1.6-19.6 1.6.2-.9.2-.9.4-1.1l-2.4-.3v-.2h.4c5.9-.4 11.8-.8 17.6-1.5h.7l1.8-.3h.6l3.7-.4Z"/><path fill="#145754" d="m104.5 153.5 8.2.2v.3h-1.3l-.8.1c-.5 0-.5 0-.8.3l2.2.2v.2l-1.3.3v.2c-4 .2-8 .2-12 .2h-.8c-3.7 0-7.3 0-11-.2v-.2l2.7-.3.2-.6a6 6 0 0 1 2-.3h.9a6291 6291 0 0 1 4.3 0l2.5-.1h5v-.3Z"/><path fill="#327122" d="m105.8 135.7-.2.5-.2.6.2.5a2396.5 2396.5 0 0 1-3.8.4l-4.7.6h-.6l-1 .1c-1 .1-1.8.3-2.6 1v2.2c0 .8 0 1.4-.4 2.1h-.7l-.2-.4c-.2-.5-.2-.5-.6-.8-.6-.6-.4-1.4-.4-2.2.1-1.1.5-1.7 1.4-2.5 1.4-1 2.7-1.3 4.4-1.5h.6a231.3 231.3 0 0 1 4.4-.6h.6c1.3-.2 2.5-.2 3.8 0Z"/><path fill="#7f4301" d="M115.6 86.8v.4l.7-.4c1.9 0 4 2.1 5.3 3.5v.7l.4.2 1.3 1 .4.5.4.3-1 1.1c-.7-.3-1.2-.8-1.8-1.4-.4-.5-1-.7-1.5-1l-1.2-1-.6-.5-1.7-1.7c-.4-.3-.4-.3-1-.4l-3.2 1.5-.4.3-.4.2-.4.2-1 .6a4 4 0 0 1-2.4.3h-1.7a8 8 0 0 1 2.4-1.7l.5-.3c4.7-2.4 4.7-2.4 6.9-2.4Z"/><path fill="#fad47c" d="m96.2 61.4.2.5a9.8 9.8 0 0 0 3.6 5.3l1.6 1.5c-.1 0-.3 0-.4-.2l-.5-.2-.5-.3c-1-.2-1.8 0-2.8.1l-1.1.2-.6.1-2.6.3v-.4l-.7.1c-1 .1-1 .1-1.7-.3-.2-.5-.2-.5-.2-1.1v-.6c0-.6 0-.6.2-1 .7-.4 1.2-.3 2-.2l.7.2c.8.3 1 .1 1.7-.2l1.6-.2-.2-.5-.4-1.2c0-.6 0-.6-.5-1.2-.6 0-1 0-1.6.2l-.4.4v-.4H93v-.5c1.1-.3 2-.4 3.1-.4z"/><path fill="#0e563f" d="M127 51.8a364.2 364.2 0 0 1 3.3 0c1.2 0 2.3 0 3.5.5.3.7.3 1 0 1.7a18.2 18.2 0 0 1-5.7 6.3l-.7.4c-.6.2-1.2.2-1.8.2l-.2-.2-.9-.2a11 11 0 0 1 2.6-1.8 14 14 0 0 0 5.2-5.3c-3.5-.1-6.7-.2-9.8 1.7l-1.6.7c.2 0 .3-.2.4-.3.5-.6.9-1 1.2-1.7l.4.2c.6 0 1-.1 1.6-.4l-.4-.4 1.3-.3v-.4l1.5-.5v-.2Z"/><path fill="#316a1f" d="m128.5 136 .5 2-2.7.6v.4a1726.7 1726.7 0 0 1-4.7 1.3c-2.5.7-5 1.3-7.6 1.6h-.6c-.5 0-.5 0-1-.4 1.1-1.3 1.7-1.7 3.4-2l5.1-1.2.6-.2a634 634 0 0 0 4.6-1.2c.8-.2 1.5-.4 2.4-.3v-.7Z"/><path fill="#804918" d="M128.5 164.6h.8a57573988.6 57573988.6 0 0 0 9.3 0h1.6c.5 0 .5 0 1 .5v1c-.8.6-1 .6-2 .6h-.8a242271.8 242271.8 0 0 0-9.2 0h-1.5c-.5 0-.5 0-1-.5V165c.6-.6 1-.5 1.8-.5Z"/><path fill="#9b510c" d="m88.4 87.5.9.1 2 .3v.2h.4c.9 0 1.5 0 2.1.6C95 90 95 90 95 90.5a51 51 0 0 1-11.4-1.2l-.7-.1a10 10 0 0 1-3-1.1v-.2l1.3-.4c.2 0 .5 0 .7-.2 2.2-.3 4.4 0 6.6.2Z"/><path fill="#0d5640" d="M108.7 54.7c.6.3.7.8 1 1.4.5 1.5 1.6 3.7 3 4.4l-.2-.6-.2-.8-.3-.7a3 3 0 0 1 0-1.9c.7.2 1 .4 1.3 1l.2.8.3.8c.2.7.3 1.3.2 2l1.2-.2.5-1 .2-.7.1-.5c.4 1 0 1.5-.4 2.5l.7.4-.5.5v.8l-1 1.2h-.8l-.4-.5-.7-.2-.2.7-1.3.4a6 6 0 0 1 1.5-1.6l-.3-.2c-4.2-3.8-4.2-3.8-5-6l.2-.6.2.4.7-.4v-1.4Z"/><path fill="#d6903a" d="M62.9 89.6a4 4 0 0 1-1.2 2.6 16 16 0 0 0-3.2 9.4 3 3 0 0 1-.7 1.6l-1.2-.2c-.9-1.8 0-4.6.5-6.4.9-2.4 2.8-7.2 5.8-7Z"/><path fill="#f2e9d0" d="M56.9 128.6c.6 1 .6 1.8.6 2.9h1.6l.8.1 1.2.3.2-.6.2.4-.2.4v2.9l-.2-.4a46 46 0 0 0-1.1-.5c-.2 0-.3-.2-.5-.3-.8-.4-1.5-.5-2.3-.7-.6 0-.6 0-1.2-.3l-1.4.1c-2 .2-3.8.2-5.7.2h-3.2l-.2-.5c.8-.7 1.7-.9 2.7-1l.5-.1c2-.3 4-.4 6-.4h1.4c.5 0 .5 0 .8-.3v-2.2Z"/><path fill="#4c2a11" d="m129.4 125.7.7.2v1.1l.6.3c-.2.4-.2.4-.6.6l-.5.1-.7.2-.6.2-.7.2c-1.7.5-3.4 1-5.1 1.3l-.7.1c-1.1.3-2.2.5-3.3.4-.6-.6-.6-1-.7-1.8l.5-.1c5.7-1 5.7-1 11.1-2.8Z"/><path fill="#f5ecd8" d="M53.5 116.3c.8.7 1.1 1.5 1.5 2.4a20 20 0 0 0 2.5 3.9l.4.4 1 1.1c-1-.4-1.5-.9-2.3-1.5l-.4.2-.7-.7.3 1.1-.3-.3c-.9-1.2-.9-1.2-2-2.1a4 4 0 0 0-2.4.4l-.2.7-.4-.2c-.8-.4-1.5-.7-2.4-.8-.8-.1-.8-.1-1.2-.6l-.3-.4c.9-.3 1.2 0 2 .2v-.4c.4-.7.9-.8 1.6-1.1l.7-.5 1.4-.3.8-.2.6-.1-.2-1.2Z"/><path fill="#4a2911" d="m138.7 119.5.3.4h.4v.5h.9l.2-.7.2.4a19 19 0 0 1-9 7.2l-1.4.2-.5-1.8 1-.5.6-.3 1.2-.6a16 16 0 0 0 6.1-4.8Z"/><path fill="#472611" d="M54 108.3c.5.9.6 1.8.7 2.7a23.4 23.4 0 0 0 3.5 9.6h-.7l-.4.6a11 11 0 0 0 2.9 3.2c-1.2 0-2-1.1-2.8-2a18.3 18.3 0 0 1-4.6-10.9v-.5l1.6.7-.1-.6c-.2-.9-.1-1.8-.1-2.8Z"/><path fill="#114447" d="m34.2 111.5.2.4-.4.2c-4 2-4 2-7.6 4.5l-.4.3c-2.4 1.8-4.2 4-5.6 6.8-.2-.5-.2-.5 0-1 0-.2 0-.4.2-.6l.2-.6.2-.5-.6-.2-.2-.7a24 24 0 0 1 9-7.8l.3.5-.4.4v1l5-2.7Z"/><path fill="#124648" d="m123.2 157-.7.5-.2 1.1c-.6.6-.8.6-1.6.7h-.7l-.7.1-.7.1a49.6 49.6 0 0 1-8.1.5l-.2-.5.6-.7-2.6-.2v-.2h.8a2683.6 2683.6 0 0 0 14-1.3Z"/><path fill="#502d12" d="M141.9 94.5c.9 1.4 1.5 2.6 1.8 4.2v.6c.4 1.8.6 3.6.6 5.5l.4.2h-.4v2c0 .7 0 .7-.7 1.6v-3c-.5.3-.5.3-.9 1l-.4-2h-.2v-.6a30 30 0 0 0-.8-5.6c-.6-2.3-.6-2.3-.1-3.2h.7v-.7Z"/><path fill="#f5ecd5" d="M140.3 133.5h1.7l.6.1 1.6.1-.7 1.1.7.2c-1.1.3-2.2.3-3.3.3v.4h.4c0 1-.2 1.8-.7 2.7l-.2 2.2c-.7.7-1.5.9-2.4 1.1l-.4.2c-.7.3-1.3.3-2 .3h-1.4l-.2-1h2.2c.7-.1 1-.3 1.7-.6l1.7-.9c.2-1.7-.5-2.5-1.6-3.7l-.6-.7.5-.4.6-.4.6-.4c.8-.6.8-.6 1.2-.6Zm.9.6v.3h2.2v-.3h-2.2z"/><path fill="#804918" d="M180 148.6h1.8a277.4 277.4 0 0 1 4.8 0h1.8c.5 0 .7.2 1 .7 0 .6 0 .6-.2 1-.5.3-.8.3-1.3.3H186a537 537 0 0 1-4.8 0h-1.8c-.4 0-.4 0-.8-.4V149c.5-.6.6-.5 1.4-.5Z"/><path fill="#114346" d="M52 103.7h.2v4l-.2-1c-4.7 1-9.4 2.1-13.9 3.8l-1-.2 5.3-1.7v-1l-.7-.4c2-.7 4.2-1.2 6.3-1.7l.6-.2c1.2-.2 2.2-.4 3.4-.3v-1.3Z"/><path fill="#a0550c" d="m116.3 88.3.7.8c.8.8 1.7 1.4 2.6 2.1l-.2.5c-3.4 0-6.7-.1-10-.5 1-.8 2-1.4 3.1-2l.5-.3.6-.3.4-.3c1-.4 1.4-.5 2.3 0Z"/><path fill="#512d12" d="m52.6 100.3.5.7.6-.4c.7.6.5 2.2.5 3v1.7a746.7 746.7 0 0 1 0 6.4l-1.1-.5-.2.5-.5-.2c-.3-1.6-.3-3.3-.3-4.9v-.8c-.2-3.7-.2-3.7 0-5.2l.5-.3Z"/><path fill="#fae26d" d="M106.3 61.6c2.1 0 4 .8 6 1.6-.4 1-1.2 1.5-2 2.1a44 44 0 0 0-3.6 3.4c-.3-.6-.1-1 0-1.7.1-1.9 0-3.6-.4-5.4Z"/><path fill="#f28644" d="M57.8 135.3c.9.3 1.4.9 2 1.7v1.4c-1 1-1.7 1.1-3 1.1h-1.9v.7c-.8-1-.8-1.6-.8-2.8.1-.8.4-1.2 1-1.7.9-.6 1.6-.6 2.7-.4Z"/><path fill="#804918" d="M56.9 162.4h.6a455.8 455.8 0 0 1 5.8 0h.5c.5 0 .7.2 1 .7l-.1.9c-1 .6-1.7.5-2.7.5h-.6a237 237 0 0 1-4.4 0h-.5c-1.4 0-1.4 0-1.9-.5v-1.4c.5-.5 1.6-.2 2.3-.2Z"/><path fill="#bb6a12" d="M72.7 80.3c.4.7.6 1.4.8 2.2.3 1.1.9 2.2 1.6 3.1l.9.5v.4c-.6.2-1.1.3-1.8.3L73 85.6l-.7-.6-.3-.4-1.6-1.2-.5-.4c-.6-.3-1-.2-1.6 0-.7.2-.8.2-1.5 0 .6-.5 1.2-1 2-1.3l1.7-1c.8-.3 1.4-.4 2.3-.4Z"/><path fill="#2e6a1f" d="m90.9 141.7.4.9.5-.2.2 1.3.3-.4.8-1 .5.4c1.5.8 3.5.3 5 0 1.4-.2 2.8-.1 4.1-.1l-.9 1.8-.9.2h-.5l-.6.2h-.6c-5.5.8-5.5.8-7.4-.6-.6-.7-.9-1.1-1-2l.1-.5Z"/><path fill="#793f01" d="M121.6 90.5a8 8 0 0 1 1.8 1.4c.3.4.3.4.7.6.7 0 .7 0 1.3-.2l-.2.4c-.3.5-.3.5 0 1.2l1.5-.2-.4.8.3.3 1.4 1.4.4.5.5.4.4.4c.3.4.3.4.3.8h.5l-.3.5c-.5-.4-.8-.6-1.2-1.2l-2.8-2.8-1 .9 6.4 6.4-.2.5-6.5-6.5-1.8.8c-.7.3-1 .4-1.8.3-.4-.4-.4-.4-.5-1 .1-.8.6-1 1.3-1.5l.8-.2-.3-.3-.5-.5c0-.2-.2-.3-.4-.5l-.8-1.1c1 .4 1.5 1 2.2 1.8l1-.5c0-.6 0-.6-.4-1l-.4-.4-.5-.5-.8-.5v-.5Z"/><path fill="#0d513c" d="M97.5 54.3a12.3 12.3 0 0 1 8.5 6.6c0 .4 0 .4-.2.7l-.4-1.3h-.7v1c-.5-.4-.9-.8-1.3-1.4a13.9 13.9 0 0 0-5.8-4.3v2.1l-.1.6v1c-.1.5-.1.5-.8 1.4V57l-.5 3.2H96c0-3.8 0-3.8.5-5.6.2-.2.2-.2 1-.2z"/><path fill="#30691e" d="m115.8 134-.6.1v.5h.6l-.2.9a1283.6 1283.6 0 0 1-6.6 1.2l-.6.1c-1 .2-2 .3-3 .2 0-.8 0-.8.2-1l-1.3-.3c.7-.4 1.4-.6 2.3-.7l.9-.2a1899.6 1899.6 0 0 1 2.7-.4l.8-.1 2.6-.5a8 8 0 0 1 2.2.1Z"/><path fill="#502d12" d="M91.5 110.5c.6.3.7.5 1 1.2l.6-.2H96v.2h-.6c-2.4.3-4.3.8-6 2.6-.7.8-1 1.7-1.4 2.7-.2.5-.2.5-.6.7-.5 0-.5 0-1.2-.5-.2-2 .6-3.3 1.8-4.8.8-.9 2.3-2.2 3.5-2Z"/><path fill="#f7e8cd" d="M132.5 145v1a103 103 0 0 1-23.4 2.4v-.2h.6c11-1 11-1 21.8-3.3l1 .2Z"/><path fill="#482710" d="M122 77.4c4 .7 8 2.4 11.2 5-1 0-1.3-.5-2-1-.5-.3-.5-.3-1-.1l-.4.1.3 1.1c-.8-.2-1.6-.5-2.3-.9-1.8-1-3.8-1.5-5.7-2.2v-2Z"/><path fill="#c23b1e" d="M71.8 139.7c-.2 1.7-.5 2.8-1.7 4a9.6 9.6 0 0 1-6.5 1.8h-1.8l-.3-.4-1-.3c.8-.8 1.5-1 2.8-1 2.1 0 4.2-.3 6-1.6.4-.6.8-1.2 1-1.8.4-.6.8-.7 1.5-.7Z"/><path fill="#f1e5ca" d="m109.3 143.1.6.1h.4l-.4.4c-.4.3-.4.3-.3.8a36.5 36.5 0 0 1-15.1 1.3v-.2l2.9-.4v-.3h.3a9615.1 9615.1 0 0 0 7.2-1.2h.6l.6-.2h.5l1.1-.3h1.6Z"/><path fill="#0e5f44" d="M125.4 56.7c-.3.8-.6 1-1.4 1.5l-.5.2-.6.3-1.2.6-.5.3-1.6.9 2 .2.2 1 .7.1h-4l-.5-.9-.6.3v-.5h.6l-.4-.2c0-1.4.3-2.4 1.1-3.6l.7.3-.2 1.7.4-.3 3.2-1.9.5-.3c.8-.2 1.4 0 2 .3Z"/><path fill="#68ab41" d="M81.1 138.3c.8.1 1.3.4 2 1 .3.5.3.9.3 1.5v.6c0 .5 0 .5-.5 1a5 5 0 0 1-3.3.4c-.8-.5-.8-.5-1.2-1 0-.5 0-.5.3-1v-1.3h.6l.5-.6c.6-.5.6-.5 1.3-.6Z"/><path fill="#0d3736" d="M82.7 153.3h7.2l10 .3h2.6l4.9.1v.3h-.7a5282.4 5282.4 0 0 0-14.6.1h-.5c-.7 0-1.2 0-1.8.3l-.2.4c-1 .4-2 .3-3.1.3h-.8c-3.3 0-6.7-.2-10-.7v-.2c2.8 0 5.6 0 8.3.2l-.2-.7c-.6 0-.6 0-1.1-.2v-.2Z"/><path fill="#874801" d="m72.4 87.6 1.4 1.6-.6.2a3442.4 3442.4 0 0 0-4.6 1.5l-.8.3c-.7.2-.7.2-1.1.5h-1.4l-.2-1.6c5.8-3 5.8-3 7.3-2.5Z"/><path fill="#114a49" d="m137.4 150.6.5.5h.6v.4l.5.4c-5.6 1.2-5.6 1.2-8 1.5h-.5c-1.1.1-2.2 0-3.3-.1v-.7h-1.4v-.2h.6a550.8 550.8 0 0 0 4.2-.7h.8c.7-.2.7-.2 1.3-.6a15 15 0 0 1 4.7-.5Z"/><path fill="#f3ab30" d="M112.8 166h.6c.7.1 1.2.1 1.9.5.3.4.3.4.4 1-.1.8-.3 1-1 1.6-1 .6-2.2.5-3.3.4-.8-.2-1.4-.4-1.8-1V167c1-1 1.9-1 3.2-1Z"/><path fill="#5ca237" d="M135.5 136.4a5 5 0 0 1 2.1 1.5l.3 1c-1.3.6-2.5.5-3.9.2-2.3-.8-2.3-.8-3.3-1.6l-.2-1.3c1.4-.8 3.6-.3 5 .2Z"/><path fill="#804401" d="M56.9 105.7c1 0 1.4.4 2 1.1l.7.6.5.6 1.2 1.2.5.5.8.6v.5h.5v.4l1.3-.4c-.6.8-1.3.9-2.2 1.1l-.9.4-.2-.5a4 4 0 0 0-1.4-1.2c-.8-.5-1.4-1.2-2-1.8l-.5-.4c-1-1-1-1-1-1.8.2-.5.2-.5.7-1Z"/><path fill="#105054" d="m33.5 143 .9.5c.6.3 1.1.4 1.8.4l1 .6c.5.5 1.2.7 1.9 1h.4l1.1.4-.4.7v.5l1 .2v-1l1.4.3.2.7c-.4.4-.4.4-1.1.5-1.4 0-2.6-.6-3.8-1l-.8-.4-4.5-1.9-.5-.2c-1-.5-1-.5-1.3-1 .6-1 1.8-.7 2.7-.3Z"/><path fill="#134949" d="M91.4 154h1.8a824.4 824.4 0 0 1 6.6 0v.2l-2 .2v.4l11.1.3v.2a137 137 0 0 1-11.6.2c-3.5 0-7 0-10.4-.2v-.2l2.7-.3.2-.6c.6-.2 1-.3 1.6-.3Z"/><path fill="#854701" d="M75.8 88.6c1.1.2 1.5.7 2.3 1.4 1 1 2.4 1.6 3.7 2.3v1.4c-.2.2-.2.2-1 .3-2 0-3.8-2-5.2-3.2l-.5-.5-1.1-.9c.2-.4.2-.4.6-.6.4 0 .8 0 1.2-.2Z"/><path fill="#185f24" d="M137.2 135.5c.7.3 1.2.7 1.7 1.3l.4.5c.5.6.6.8.7 1.6-.1.8-.1.8-.7 1.3a7.9 7.9 0 0 1-5.6.7l-1.2-.5c.7-.2.7-.2 1.6-.2l.2-.7-.5-.5h2.4c.6 0 1 0 1.7-.2l-.5-.6-.9-1.4 1-.6-.3-.7Z"/><path fill="#115944" d="m108 69.6.7.2-.2.5 1 .2v.5h1.2l-.2-.7c1 0 2 0 3 .3 1.6.3 3.1.5 4.7.5.8 0 1.5.3 2.3.5v1a20 20 0 0 1-13-2.3v-.5l.5-.2Z"/><path fill="#134c4e" d="M140.5 152.6h.5l-.5.7.5.4-1.2.7-1 .7-1 .3-.4.1-.5.2-.6.2c-4 1.3-4 1.3-5.3 1.2.1-.7.2-1 .6-1.6.9-.5 1.8-.7 2.7-1l.8-.2c1-.3 2-.6 3-.7 1-.1 1.4-1 2.4-1Z"/><path fill="#14504f" d="m79.5 152.8 2.7.2H84v1.4l.9.2h-4.2c-2.1-.2-4.2-.2-6.3-.2v-.2l-1-.2.4-.3v-.4l-.5-.2c1.8-1 4.3-.4 6.2-.3Z"/><path fill="#45250f" d="m61.3 83.6.5.3-1.2 1h.7l1.3.3-1.8 2.1a21.3 21.3 0 0 0-3.1 4.2l-1 1.3c0-1 .6-1.7 1-2.5L57 90l.2-.7-1.3 2-.3-.4.9-1.5.2-.4c1-1.4 2.2-2.7 3.4-4l.4-.4 1-.9Z"/><path fill="#1f6221" d="M84.5 139h.4a5 5 0 0 1 .4 3.4c-.4.9-1.2 1.6-2.1 2-1.4.5-3 .5-4.4 0-.6-.5-.6-.5-1-1.1l.4.1h.5l.4-.4 2.1-.3c1-.2 1.5-.4 2.1-1.2l.5-.9h.7c.2-.7.2-.9 0-1.6Z"/><path fill="#814306" d="m115.6 86.8.2 1-.8.4c-1 .4-2 1-2.9 1.5l-.4.2-1.8 1a4 4 0 0 1-2.4.3h-1.7a8 8 0 0 1 2.4-1.7l.5-.3c4.7-2.4 4.7-2.4 6.9-2.4Z"/><path fill="#87b547" d="M93 139.3c0 .1.2.2.6.2h2.2c.7.2.7.2 1 .6.4.6.4 1 .4 1.8v.6c0 .5 0 .5-.3.8-2.5.2-2.5.2-3.5-.4a2 2 0 0 1-.7-1.7V140c0-.5 0-.5.2-.7Z"/><path fill="#824501" d="M70.4 108.8c.5.4.5.4.5 1-.4.9-1.2 1-2 1.4l-.7.3c-1.4.7-2.4 1-4 .8l-.4-1c1-1 2-1.4 3.3-2 .2 0 .4 0 .6-.2l.6-.2.5-.2c.6-.2 1-.1 1.6 0Z"/><path fill="#814501" d="m77.3 121.7 1 .5.4.4.5.4c.2 0 .4.2.5.3 1.7 1.3 1.7 1.3 2.3 2 0 .6 0 .6-.2 1-1.5.2-2.3-.3-3.5-1l-.5-.4a12 12 0 0 1-2.5-2.1v-.4c.7-.7 1.1-.8 2-.7Z"/><path fill="#eeddbd" d="m135.8 126 .3.6c-1.2 1.7-2.7 2-4.7 2.7l-1.3.4c-.3 0-.6.2-.8.3l-.8.2c-.6.2-1 .2-1.6 0l.5-.3h-.5v-.6l1 .2v-.5l-.5-.4 1-.3.6-.2 1.1-.3c.9-.2 1.6-.5 2.4-.9 2.2-1 2.2-1 3.3-1Z"/><path fill="#f2e6cb" d="M85.6 139.7a6 6 0 0 1 1.6 3.5c-.1.9-.3 1.2-1 1.9a5 5 0 0 1-3.5.8l-1.1-.4-1.6-.2v-.2l2.7-.3v-.4l1-.7c.6-.4 1-.6 1.4-1.3a34.7 34.7 0 0 0 .5-2.7Z"/><path fill="#f07a39" d="M68.7 137v.5l.4.2v.5h.4l-.2 1a5 5 0 0 1-3.5 1.2c-.7-.5-.7-.5-1.1-1l-.3.3-.4-.2c.1-1 .5-1.5 1.1-2.2a4 4 0 0 1 3.6-.3z"/><path fill="#0d5843" d="M127 51.8h4.6l2 .2.2 1h-.4v-.5h-.7l.3.7h.6l-.4 1.3h-1v-1.1c-3.4-.1-6.6-.2-9.7 1.7l-1.6.7c.2 0 .3-.2.4-.3.5-.6.9-1 1.2-1.7l.4.2c.6 0 1-.1 1.6-.4l-.4-.4 1.3-.3v-.4l1.5-.5v-.2Z"/><path fill="#134e51" d="m176.3 121.7 1.2.2c.7 1.3 1.2 3 1.3 4.5v.5c.1 1.9-.2 3.5-.9 5.2l-.4.3-.3-1-1 1 .1-1 .1-.7.4-1c.3-.7.3-1.4.4-2.2V126l1.1.2-.2-1.5h-1.3c-.6-1.1-.8-1.7-.5-3Z"/><path fill="#124043" d="M161.9 109.9c1.8.5 3.4 1.4 5.1 2.2v.5l.4.2v.9l-.4.2.6.4a34 34 0 0 1 6.5 5.4l-.2.4-.5-.5a31.2 31.2 0 0 0-11-7.4 3 3 0 0 1-1.2-1.2l1.1.2v-.6l-.4-.3v-.4Z"/><path fill="#f5e6ca" d="M72 140.6c1.5 1.2 1.5 1.2 1.6 2.2 0 1-.4 1.2-1.2 1.8a7 7 0 0 1-3.2 1l-.6.1c-1.3.2-2.6.3-4 .2v-.2h.6l.7-.2h.6l.6-.2.2-.5 1-.4c1.4-.5 2.2-.8 3-2l.7-1.8Z"/><path fill="#6da437" d="M140 127v1.4l-.8.6-.2 1 2-.2c1.2-.3 2.8-.4 4 .2l.4.4c-.2.6-.3.8-1 1.1a5 5 0 0 1-1.7.2h-2a4 4 0 0 0-3.4 1.4l-.3.4c-.7.5-1 .7-1.8.6l-1-.2c-1.5 0-3 0-4.4.7-.6.6-1 1.2-1.3 2l-1 .3-.5.2-.7.1-.7.2a357.7 357.7 0 0 1-25.8 5.4h-.5l-1 .3c-3.6.6-3.6.6-4.9-.2-.7-.7-.8-1.3-.8-2.3 0-.7 0-1 .4-1.7 1.6-1 3.7-.9 5.5-1a127.6 127.6 0 0 0 33.2-7l.6-.2c.4 0 .8-.2 1.1-.3 1.7-.5 3.1-1.1 4.5-2.3 1.6-1 1.6-1 2.2-1Z"/><path fill="#42902c" d="M147.6 124.6h1.4c.2.7.2.8-.1 1.5a7 7 0 0 1-2.4 2c-.7 0-.7 0-1.3-.2l-.9-.2-.7-.2c0-1 .2-1.3.9-2 1.1-.8 1.7-1 3-1Z"/></svg>