<svg id="vector" xmlns="http://www.w3.org/2000/svg" width="24" height="24" viewBox="0 0 24 24"><path fill="#000000" d="M21,12C21,16.97 16.971,21 12,21C7.03,21 3,16.97 3,12C3,7.029 7.03,3 12,3C16.971,3 21,7.029 21,12Z" fill-opacity="0" stroke-linecap="round" stroke="#FF5722" stroke-width="2" fill-rule="evenodd" id="path_0"/><path fill="#000000" d="M15.902,8.731C15.739,7.67 14.858,6.911 13.902,7.008C12.14,7.189 10.461,8.147 9.313,9.826C8.577,10.899 8.153,12.133 8.022,13.395C7.763,15.866 9.865,17.676 11.925,16.757C12.978,16.288 13.929,15.509 14.664,14.435C15.813,12.756 16.204,10.689 15.902,8.731Z" fill-opacity="0" stroke-linecap="round" stroke="#356859" stroke-width="2" fill-rule="evenodd" id="path_1"/><path fill="#000000" d="M5,8L19.748,16.515" fill-opacity="0" stroke-linecap="square" stroke="#FF5722" stroke-width="2" id="path_2"/></svg>