<svg id="vector" xmlns="http://www.w3.org/2000/svg" width="24" height="24" viewBox="0 0 24 24"><path fill="#356859" d="M10.988,21.425H12.981V7.999H10.988V21.425Z" fill-rule="evenodd" id="path_0"/><path fill="#356859" d="M10.167,8.349C9.734,7.916 9.204,7.647 8.674,7.559C8.761,8.089 9.03,8.62 9.463,9.053C9.896,9.486 10.427,9.755 10.957,9.843C10.87,9.313 10.601,8.782 10.167,8.349ZM12.118,11.792C10.699,12.067 9.165,11.573 8.054,10.462C6.944,9.352 6.45,7.817 6.725,6.398L6.853,5.737L7.514,5.61C8.932,5.336 10.466,5.83 11.576,6.94C12.686,8.05 13.181,9.585 12.907,11.003L12.779,11.664L12.118,11.792Z" fill-rule="evenodd" id="path_1"/><path fill="#356859" d="M10.167,14.061C9.734,13.628 9.204,13.359 8.674,13.271C8.761,13.802 9.03,14.332 9.463,14.765C9.896,15.199 10.427,15.468 10.957,15.555C10.87,15.025 10.601,14.494 10.167,14.061ZM12.118,17.504C10.699,17.779 9.165,17.285 8.054,16.174C6.944,15.064 6.45,13.529 6.725,12.11L6.853,11.449L7.514,11.322C8.932,11.048 10.466,11.542 11.576,12.652C12.686,13.762 13.181,15.297 12.907,16.715L12.779,17.376L12.118,17.504Z" fill-rule="evenodd" id="path_2"/><path fill="#356859" d="M14.507,9.053C14.94,8.62 15.208,8.089 15.296,7.559C14.766,7.647 14.235,7.916 13.802,8.349C13.369,8.782 13.1,9.313 13.012,9.843C13.542,9.755 14.073,9.486 14.507,9.053ZM11.062,11.003C10.788,9.585 11.283,8.05 12.393,6.94C13.503,5.83 15.037,5.336 16.456,5.61L17.117,5.737L17.245,6.398C17.52,7.817 17.025,9.352 15.915,10.462C14.805,11.572 13.27,12.067 11.851,11.792L11.19,11.664L11.062,11.003Z" fill-rule="evenodd" id="path_3"/><path fill="#356859" d="M14.507,14.765C14.94,14.332 15.208,13.802 15.296,13.271C14.766,13.359 14.235,13.628 13.802,14.061C13.369,14.494 13.1,15.025 13.012,15.555C13.542,15.468 14.073,15.199 14.507,14.765ZM11.062,16.715C10.788,15.297 11.283,13.762 12.393,12.652C13.503,11.542 15.037,11.048 16.456,11.322L17.117,11.449L17.245,12.11C17.52,13.529 17.025,15.064 15.915,16.174C14.805,17.285 13.27,17.779 11.851,17.504L11.19,17.376L11.062,16.715Z" fill-rule="evenodd" id="path_4"/><path fill="#FF5722" d="M20.067,17.766L3.651,8.287L4.647,6.562L21.064,16.04L20.067,17.766Z" fill-rule="evenodd" id="path_5"/><path fill="#FF5722" d="M11.985,19.877C7.584,19.877 4.015,16.308 4.015,11.907C4.015,7.616 7.408,4.117 11.657,3.945C11.74,3.715 11.849,3.501 11.985,3.312C12.12,3.501 12.23,3.715 12.313,3.945C16.562,4.117 19.954,7.616 19.954,11.907C19.954,16.308 16.386,19.877 11.985,19.877ZM11.985,1.946C6.483,1.946 2.023,6.406 2.023,11.907C2.023,17.408 6.484,21.869 11.985,21.869C17.486,21.869 21.946,17.409 21.946,11.907C21.946,6.405 17.487,1.946 11.985,1.946Z" fill-rule="evenodd" id="path_6"/><path fill="#356859" d="M12.543,8.74L11.986,9.117L11.427,8.74C10.23,7.931 9.494,6.497 9.494,4.926C9.494,3.356 10.23,1.922 11.427,1.113L11.986,0.736L12.543,1.113C13.74,1.922 14.475,3.357 14.475,4.926C14.475,6.496 13.74,7.931 12.543,8.74ZM12.483,4.926C12.483,4.314 12.298,3.749 11.985,3.312C11.672,3.748 11.487,4.313 11.487,4.926C11.487,5.539 11.672,6.104 11.985,6.541C12.298,6.104 12.483,5.539 12.483,4.926Z" fill-rule="evenodd" id="path_7"/></svg>