<?xml version="1.0" encoding="UTF-8" standalone="no"?>
<svg
   id="vector"
   width="24"
   height="24"
   viewBox="0 0 24 24"
   version="1.1"
   xmlns="http://www.w3.org/2000/svg"
   xmlns:svg="http://www.w3.org/2000/svg">
  <defs
     id="defs12243" />
  <g
     id="path_0">
    <path
       style="color:#000000;fill:#000000;fill-opacity:0;fill-rule:evenodd;stroke-width:2;stroke-linecap:round;-inkscape-stroke:none"
       d="m 21,12 c 0,4.97 -4.029,9 -9,9 -4.97,0 -9,-4.03 -9,-9 0,-4.971 4.03,-9 9,-9 4.971,0 9,4.029 9,9 z"
       id="path12386" />
    <path
       style="color:#000000;fill:#ff5722;fill-rule:evenodd;stroke-linecap:round;-inkscape-stroke:none"
       d="M 12,2 C 6.4895629,2 2,6.4885375 2,12 2,17.510571 6.4894287,22 12,22 17.511463,22 22,17.510437 22,12 22,6.4886716 17.511328,2 12,2 Z m 0,2 c 4.430662,0 8,3.5693384 8,8 0,4.429553 -3.569472,8 -8,8 -1.630131,0 -0.05967,3.204637 -5.4423434,0.177343 C 2.6905339,18.002416 5.5977586,16.983842 4.9696653,15.829906 4.3510927,14.693461 4,13.388955 4,12 4,7.5694725 7.5704471,4 12,4 Z"
       id="path12388" />
  </g>
  <path
     id="path6773"
     style="color:#000000;fill:#356859;-inkscape-stroke:none"
     d="M 10.712492,4.3738728 C 10.482644,4.4369958 10.264138,4.5428201 10.07062,4.6909641 9.9267869,4.8010665 9.7764459,4.9419737 9.6338839,5.1418661 9.4913239,5.3417578 9.3332309,5.6062197 9.0609511,6.0680539 8.4675485,7.0745854 8.3869823,7.2207947 7.8609073,8.0908272 c -0.189527,0.3134702 -0.429596,0.70961 -0.535027,0.8873517 -0.101888,0.1717757 -0.346536,0.5852727 -0.543848,0.9141027 -0.423894,0.7064184 -1.120123,1.8766814 -1.437132,2.4191214 -0.03378,0.0578 -0.05744,0.09835 -0.08144,0.13799 -0.633269,0.104306 -1.086381,0.721128 -1.006224,1.382217 l -0.469923,0.83695 c -0.27415,0.487661 -0.435347,0.781041 -0.54609,1.016035 -0.110743,0.234994 -0.170113,0.42753 -0.207179,0.61444 -0.22567,1.138016 0.217608,2.308857 1.141835,3.011737 0.09785,0.07441 0.191697,0.128967 0.354815,0.228229 0.163119,0.09926 0.374174,0.22472 0.618385,0.36819 0.488423,0.286942 1.108221,0.645143 1.726508,0.998263 0.618286,0.353119 1.233447,0.700892 1.713903,0.967297 0.240227,0.133202 0.447864,0.245234 0.605582,0.329174 0.07886,0.04197 0.143857,0.07737 0.19922,0.105051 0.05536,0.02768 0.07645,0.04349 0.166228,0.07364 1.1768137,0.395177 2.4618107,0.06352 3.2750927,-0.85593 0.197241,-0.22301 0.359569,-0.519946 0.759563,-1.218857 l 0.440339,-0.767992 -0.06182,0.01095 c 0.407205,-0.07654 0.716481,-0.344388 0.877632,-0.673987 0.121629,-0.248767 0.160856,-0.562426 0.06304,-0.8502 0.04275,-0.08321 0.104216,-0.201187 0.196153,-0.368244 0.31628,-0.574717 0.956273,-1.703612 2.209334,-3.915016 l 1.7914,-3.241731 C 19.428822,9.9203726 19.676071,8.9504721 18.486093,8.1333847 18.373288,8.0344311 18.380772,8.0544309 18.322646,8.0184535 18.264526,7.9824744 18.18861,7.9368726 18.096605,7.8823119 17.912592,7.7731909 17.66153,7.6274562 17.364974,7.456245 16.77186,7.113823 15.996454,6.6716394 15.219247,6.2313316 14.44204,5.7910234 13.663732,5.3534271 13.065344,5.0208336 12.76615,4.854537 12.512727,4.7151178 12.324695,4.6134675 12.23068,4.5626422 12.152499,4.5206508 12.091839,4.4893392 12.031179,4.4580276 12.0546,4.454402 11.909313,4.4080454 11.511899,4.2812398 11.095572,4.2686681 10.712492,4.3738728 Z m 0.568815,2.037327 c 0.03716,0.019716 0.06621,0.034015 0.116165,0.061124 0.173533,0.094163 0.418033,0.2297952 0.708052,0.3920541 0.580038,0.3245177 1.34289,0.7571359 2.104165,1.1918151 0.761275,0.4346791 1.520785,0.8711277 2.093587,1.2048678 0.286401,0.1668701 0.526607,0.308983 0.694749,0.4099123 0.04385,0.026319 0.06672,0.041119 0.100068,0.061516 -0.02157,0.042903 -0.03689,0.074347 -0.08734,0.1679855 -0.826177,1.5378464 -0.787408,1.5199714 -1.774515,3.2148264 0,0 -0.958176,1.720857 -1.377389,2.459356 l -0.706383,1.242669 C 12.964894,16.708018 12.737036,16.575824 12.432812,16.398082 12.031801,16.163808 11.355565,15.77248 10.927344,15.525186 10.501956,15.279531 9.5235683,14.710722 8.7551143,14.263014 8.0340703,13.842935 7.3697243,13.456625 7.1255533,13.314973 l 0.209923,-0.347732 c 0.262971,-0.436447 0.646801,-1.076934 0.854483,-1.425412 0.204792,-0.343621 0.731516,-1.217779 1.165638,-1.9348344 C 10.302773,8.0856831 10.371834,7.8438819 11.281264,6.4112104 Z m -5.3396587,8.7504472 0.589679,0.337619 c 1.162141,0.665115 1.814371,1.043383 3.3589896,1.949549 0.5997801,0.351863 1.4328011,0.835989 1.8583311,1.079377 l 0.327275,0.187205 -0.284475,0.495978 c -0.183671,0.321694 -0.32392,0.56269 -0.425223,0.727345 -0.101305,0.164654 -0.193526,0.275427 -0.152566,0.232604 -0.247432,0.258694 -0.493445,0.337195 -0.829974,0.259629 0.0011,3.47e-4 -0.0071,-0.0023 -0.0067,-0.0022 -0.0022,-5.2e-4 -0.0044,-0.0017 -0.0067,-0.0022 -0.01208,-0.0029 -0.02436,-0.0048 -0.03668,-0.0081 l -5.33e-4,-0.0019 c 0.02689,0.0072 0.02153,0.0045 0.02811,0.0064 -0.0099,-0.0036 -0.02208,-0.0085 -0.03208,-0.01343 -0.03998,-0.01959 -0.100759,-0.05031 -0.174674,-0.08954 -0.147818,-0.07843 -0.3508181,-0.190119 -0.5897967,-0.323371 -0.477959,-0.266504 -1.098349,-0.619791 -1.716503,-0.97671 -0.618154,-0.356919 -1.235774,-0.718332 -1.709044,-1.00106 -0.236635,-0.141364 -0.437392,-0.263505 -0.582023,-0.353917 -0.07232,-0.04521 -0.130443,-0.08118 -0.169419,-0.107203 -0.01949,-0.01301 -0.03837,-0.02919 -0.04637,-0.03582 -0.235319,-0.232253 -0.305174,-0.467067 -0.232946,-0.843422 0.01449,-0.07552 0.01794,-0.102547 0.124755,-0.303948 0.106812,-0.201404 0.307112,-0.540163 0.657596,-1.125855 z m 8.9099307,2.987735 c -0.0012,0.0045 -0.0037,0.01145 -0.0044,0.01337 4.75e-4,-0.0024 0.0016,-0.0072 0.0044,-0.01337 z" />
  <path
     fill="#000000"
     d="M5,8L19.748,16.515"
     fill-opacity="0"
     stroke-linecap="square"
     stroke="#FF5722"
     stroke-width="2"
     id="path_2" />
  <circle
     style="fill:#356859;fill-opacity:1;stroke:none;stroke-width:0.780467;stroke-dasharray:none;stroke-opacity:1"
     id="circle6951"
     cx="8.107481"
     cy="22.932402"
     r="1.016466" />
  <circle
     style="fill:#356859;fill-opacity:1;stroke:none;stroke-width:0.780467;stroke-dasharray:none;stroke-opacity:1"
     id="circle12420"
     cx="3.7997618"
     cy="20.498192"
     r="1.016466" />
  <circle
     style="fill:#356859;fill-opacity:1;stroke:none;stroke-width:0.780467;stroke-dasharray:none;stroke-opacity:1"
     id="circle12424"
     cx="5.2112975"
     cy="22.923828"
     r="1.016466" />
</svg>
