<?xml version="1.0" encoding="UTF-8" standalone="no"?>
<svg
   id="vector"
   width="24"
   height="24"
   viewBox="0 0 24 24"
   version="1.1"
   xmlns="http://www.w3.org/2000/svg"
   xmlns:svg="http://www.w3.org/2000/svg">
  <circle
     style="fill:#356859;fill-opacity:0;stroke:#356859;stroke-width:1.975;stroke-dasharray:none;stroke-opacity:1"
     id="path4287"
     cx="15.007595"
     cy="8.4303799"
     r="1.6723152" />
  <g
     id="path_0">
    <path
       style="color:#000000;fill:#000000;fill-opacity:0;fill-rule:evenodd;stroke-width:2;stroke-linecap:round;-inkscape-stroke:none"
       d="m 21,12 c 0,4.97 -4.029,9 -9,9 -4.97,0 -9,-4.03 -9,-9 0,-4.971 4.03,-9 9,-9 4.971,0 9,4.029 9,9 z"
       id="path4775" />
    <path
       style="color:#000000;fill:#ff5722;fill-rule:evenodd;stroke-linecap:round;-inkscape-stroke:none"
       d="M 12,2 C 6.4895629,2 2,6.4885375 2,12 2,17.510571 6.4894287,22 12,22 17.511463,22 22,17.510437 22,12 22,6.4886716 17.511328,2 12,2 Z m 0,2 c 1.992258,0 3.807239,-1.0608423 6.210662,0.5821188 3.318231,2.2683171 1.1055,3.7704163 1.524891,5.3630295 C 19.908123,10.600472 20,11.289151 20,12 20,16.429553 16.430528,20 12,20 8.7103639,20 5.8944386,18.030567 4.6630653,15.202543 4.4492047,14.711382 2.7805379,14.194323 2.5576025,12.905884 2.4645103,12.367864 4,12.56845 4,12 4,7.5694725 7.5704471,4 12,4 Z"
       id="path4777" />
  </g>
  <g
     id="path394">
    <path
       style="color:#000000;fill:#356859;stroke-width:1.119;-inkscape-stroke:none"
       d="M 15.185562,2.5750688 C 12.502183,2.5176558 9.780428,3.9572773 9.0165986,6.8052653 8.6202512,8.2830727 8.7827863,9.4349098 10.111748,11.415553 c 0.452933,0.675037 1.063072,0.931448 1.630711,1.17037 0.35739,0.150427 0.470085,-0.298488 0.743938,-0.06181 0.08369,0.07234 1.330783,0.47236 1.400598,0.56496 0.578179,0.622066 -0.502176,1.316683 -0.923566,2.032482 0.159732,0.384812 0.269266,0.462 0.269266,0.462 0,0 0.560095,0.669535 0.793873,0.94951 0.618392,0.74061 0.64598,0.76222 0.972974,0.761868 0.286776,-2.65e-4 0.398011,-0.06124 0.642593,-0.352287 0.05447,-0.06477 0.456868,-0.547934 0.894451,-1.073964 0.743171,-0.87964 1.136442,-1.381319 1.679548,-2.091662 C 21.124457,9.9728356 21.656728,8.4454196 20.827495,6.2832997 19.89103,3.8415308 17.553225,2.6256518 15.185562,2.5750688 Z m -0.05535,0.8506385 c 1.954576,0.039747 3.89128,1.0138121 4.750398,2.9679449 0.960401,2.1844384 0.241433,3.7816338 -4.037787,8.9697618 -0.452775,0.548936 -0.829293,0.998619 -0.836683,0.999268 -0.01472,0.0012 -0.832621,-0.977862 -1.564809,-1.870722 -0.24334,-0.296739 0.629886,-1.829319 0.282695,-1.856354 C 12.62121,12.549732 11.676179,12.244239 11.274904,11.653813 9.8170207,9.5087243 9.521482,8.2141562 9.9582792,6.8234031 10.676875,4.5354088 12.915038,3.3806006 15.130212,3.4257073 Z"
       id="path4868" />
    <path
       style="color:#000000;fill:#356859;-inkscape-stroke:none"
       d="M 15.197266,2.015625 C 12.305825,1.9537604 9.3143152,3.5365404 8.4765625,6.6601562 8.0514587,8.2451839 8.2733649,9.680108 9.6464844,11.726563 c 0.5459376,0.813648 1.3114736,1.136164 1.8789066,1.375 0.190747,0.08029 0.420555,0.08922 0.58789,0.04492 0.103597,-0.02742 0.140859,-0.05636 0.197266,-0.08789 0.007,0.0015 0.02805,0.01761 0.03711,0.02148 0.05551,0.02371 0.116989,0.04631 0.185547,0.07227 0.137117,0.0519 0.302795,0.112103 0.466797,0.171875 0.02623,0.0096 0.04437,0.01783 0.07031,0.02734 -0.06586,0.19262 -0.136126,0.396542 -0.183594,0.605468 -0.02649,0.116603 -0.049,0.232349 -0.04883,0.371094 1.4e-5,0.01097 0.01343,0.02946 0.01367,0.04102 -0.135774,0.161211 -0.253109,0.268333 -0.371094,0.46875 l -0.140625,0.240234 0.107422,0.257813 c 0.09215,0.221995 0.175151,0.373101 0.251953,0.482421 0.03565,0.05075 0.07078,0.09019 0.103515,0.125 0.0025,0.0027 0.0053,0.0072 0.0078,0.0098 7.27e-4,7.55e-4 0.0012,0.0012 0.002,0.002 0.0135,0.01614 0.554774,0.661591 0.785156,0.9375 0.310104,0.371392 0.461316,0.569241 0.679688,0.740234 0.218372,0.170994 0.546817,0.220893 0.722656,0.220704 0.182975,-1.69e-4 0.406513,-0.02569 0.605469,-0.134766 0.198955,-0.109071 0.328057,-0.253242 0.464843,-0.416016 0.06281,-0.07469 0.458408,-0.547992 0.894532,-1.072265 l 0.002,-0.0039 c 0.745791,-0.882857 1.14916,-1.397601 1.693359,-2.109374 1.466102,-1.91771 2.359658,-3.281684 2.791016,-4.5195317 C 21.88253,8.359809 21.794333,7.2415906 21.349609,6.0820312 20.3239,3.4075643 17.748481,2.0701294 15.197266,2.015625 Z m -0.07813,1.96875 c 1.776315,0.036122 3.487994,0.9015234 4.25,2.6347656 0.439276,0.9991361 0.495022,1.6874748 -0.05273,2.9042969 -0.547757,1.2168225 -1.772835,2.9001895 -3.904297,5.4843755 -0.158442,0.192092 -0.283351,0.33989 -0.410156,0.492187 -0.03055,-0.03643 -0.04714,-0.05631 -0.08008,-0.0957 -0.211893,-0.25343 -0.486694,-0.5869 -0.75,-0.90625 0.02964,-0.03803 0.04937,-0.05658 0.07813,-0.0957 0.149719,-0.20375 0.297351,-0.433945 0.347656,-0.744141 0.04244,-0.261703 -0.08634,-0.554831 -0.253906,-0.800781 0.0104,-0.07818 0.03052,-0.143548 0.0039,-0.265625 -0.02045,-0.0938 -0.066,-0.217939 -0.175781,-0.328125 C 14.062094,12.153486 13.89578,12.088108 13.767578,12.078125 12.742491,11.998304 11.960434,11.666714 11.738281,11.339844 11.028873,10.296041 10.624197,9.4847045 10.447266,8.8125 10.270334,8.1402955 10.299469,7.6038466 10.492188,6.9902344 11.127393,4.9677515 13.105968,3.9433816 15.119141,3.984375 Z m -0.822266,8.724609 0.03711,0.04297 c -0.01761,-0.02336 -0.01878,-0.0131 -0.0332,-0.0293 -0.0034,-0.0037 -4.94e-4,-0.01 -0.0039,-0.01367 z"
       id="path4870" />
  </g>
  <g
     id="g822"
     transform="matrix(0.01979663,0,0,0.01979663,3.1068169,7.3273451)"
     style="stroke-width:1.01027">
    <g
       id="path943">
      <path
         id="path1680"
         style="color:#000000;fill:#356859;-inkscape-stroke:none;fill-opacity:1"
         d="m -54.449997,176.34005 c -12.112842,0.18959 -18.141969,-0.59061 -29.499181,2.26917 -9.503307,2.39295 -19.479962,8.95184 -25.355482,17.56138 -5.87553,8.60955 -8.07995,17.97025 -8.87935,27.23001 -1.59882,18.51953 2.03939,38.72069 8.78069,65.41123 35.404538,140.17579 157.512776,224.75045 296.965,205.90231 6.71246,13.79879 9.47049,21.19559 11.4445,39.95709 2.04358,19.42266 2.3984,50.48641 1.97319,104.97367 -0.26269,33.66171 29.3849,24.58111 29.00588,35.3201 l 69.25895,25.25682 c -0.76439,-12.81858 -1.33107,-30.11645 -1.47989,-48.73778 -0.30789,-38.52313 1.52667,-84.08829 3.35442,-94.81175 2.02907,-11.90459 5.37363,-22.87258 8.38605,-29.89382 69.91157,5.9393 132.44252,-8.28856 182.12538,-42.02893 52.80477,-35.86051 89.88381,-93.02872 107.8348,-165.55059 6.52424,-26.35795 10.18671,-45.31891 9.07667,-63.0434 -1.11005,-17.72449 -12.36986,-37.24244 -27.92063,-44.59408 -5.7347,-2.71106 -6.9387,-2.26032 -8.78069,-2.56515 -1.842,-0.30482 -3.44457,-0.51785 -5.22895,-0.69061 -3.56875,-0.34553 -7.60419,-0.66203 -12.33243,-0.88794 -9.4565,-0.45181 -21.35902,-0.74152 -33.93886,-0.88794 -25.15968,-0.29284 -52.07343,-0.0746 -67.97638,1.28258 -66.21262,5.6507 -122.12998,29.87258 -161.60421,70.24554 -16.36537,16.73797 -29.69514,36.14193 -39.85842,57.71579 C 223.39358,254.25533 156.57513,196.08198 66.013214,181.569 c -17.663167,-2.83061 -48.052021,-4.20137 -78.434278,-4.93297 -15.191127,-0.3658 -29.916091,-0.48557 -42.028933,-0.29598 z m 41.042339,96.8836 c 2.320595,0.005 4.3939207,-0.0627 6.9061625,0 19.8231195,0.49488 45.2060675,2.85484 61.4648495,6.11688 57.442906,11.52494 98.124626,51.20305 109.906646,106.15759 0.91009,4.2449 1.53984,6.8491 2.36783,10.16193 0.0755,0.73199 0.0493,1.23232 0.0987,1.87453 -1.82274,0.32287 -4.09121,0.69431 -7.00482,0.88793 l -5.42627,0.29598 c -2.27647,-0.0304 -4.82873,-0.0277 -8.2874,-0.19732 -8.73309,-0.42817 -19.83483,-1.34865 -25.94744,-2.17051 C 54.81581,387.49636 2.0643911,338.08781 -13.407658,273.22365 Z m 516.284998,30.09113 c -17.08063,73.73527 -62.79743,115.9843 -133.58492,125.10021 -4.84084,0.6234 -15.52473,1.46268 -24.17157,1.97319 -3.56744,0.21062 -6.44932,0.31485 -8.87935,0.39464 l -5.62359,-0.0987 c -8.04763,-0.16959 -8.78742,-1.51551 -8.48471,-1.28257 -0.0782,-0.30846 -0.25415,-1.50772 0,-4.04504 8.06914,-46.41821 24.06172,-74.07932 51.50024,-92.83856 26.86276,-18.3656 68.46824,-28.63205 129.2439,-29.20321 z" />
    </g>
  </g>
  <g
     id="g4783"
     style="fill:#0000ff"
     class="UnoptimicedTransforms">
    <path
       style="color:#000000;fill:#0000ff;fill-opacity:0;fill-rule:evenodd;stroke-width:2;stroke-linecap:round;-inkscape-stroke:none"
       d="m 21,12 c 0,4.97 -4.029,9 -9,9 -4.97,0 -9,-4.03 -9,-9 0,-4.971 4.03,-9 9,-9 4.971,0 9,4.029 9,9 z"
       id="path4779" />
    <path
       id="path4781"
       style="color:#000000;fill:#ff5722;fill-rule:evenodd;stroke-linecap:round;-inkscape-stroke:none;fill-opacity:1"
       d="M 11.833203,19.998306 C 9.7375896,19.955694 7.8456805,19.111897 6.4453125,17.761719 v 2.546875 C 8.0356393,21.375788 9.9466977,22 12,22 c 0.02561,-0.34758 0.05104,-0.689941 0.07626,-1.027143 -0.06806,-0.420749 -0.07508,-0.34471 -0.243057,-0.974551 z" />
  </g>
</svg>
