<svg id="vector" xmlns="http://www.w3.org/2000/svg" width="192" height="48" viewBox="0 0 192 48"><defs><clipPath id="clip_path_0"><path d="M0,0h192v48h-192z"/></clipPath></defs><g id="g_0"><path fill="#356859" d="M169.73,19.25L151.39,37.59C149.84,30.35 151.82,22.68 157.24,17.26C163.36,11.14 172.37,9.39 180.37,12.19C183.17,20.19 181.42,29.2 175.3,35.32C170,40.62 162.53,42.64 155.43,41.27L173.59,23.11L169.73,19.25ZM153.38,13.4C145.73,21.06 143.61,32.21 146.96,42.02L145.32,43.66L149.18,47.51L150.96,45.74C160.67,48.89 171.61,46.72 179.16,39.17C187.49,30.84 189.26,18.38 184.57,7.99C174.18,3.29 161.72,5.07 153.38,13.4ZM127.11,10.79L127.11,47.57H133.05L133.05,10.79H147.45L147.45,5.57L112.71,5.57L112.71,10.79H127.11ZM94.97,48.05C91.77,48.05 88.71,47.57 85.79,46.61C82.87,45.61 80.57,44.33 78.89,42.77L81.11,38.09C82.71,39.49 84.75,40.65 87.23,41.57C89.71,42.49 92.29,42.95 94.97,42.95C97.41,42.95 99.39,42.67 100.91,42.11C102.43,41.55 103.55,40.79 104.27,39.83C104.99,38.83 105.35,37.71 105.35,36.47C105.35,35.03 104.87,33.87 103.91,32.99C102.99,32.11 101.77,31.41 100.25,30.89C98.77,30.33 97.13,29.85 95.33,29.45C93.53,29.05 91.71,28.59 89.87,28.07C88.07,27.51 86.41,26.81 84.89,25.97C83.41,25.13 82.21,24.01 81.29,22.61C80.37,21.17 79.91,19.33 79.91,17.09C79.91,14.93 80.47,12.95 81.59,11.15C82.75,9.31 84.51,7.85 86.87,6.77C89.27,5.65 92.31,5.09 95.99,5.09C98.43,5.09 100.85,5.41 103.25,6.05C105.65,6.69 107.73,7.61 109.49,8.81L107.51,13.61C105.71,12.41 103.81,11.55 101.81,11.03C99.81,10.47 97.87,10.19 95.99,10.19C93.63,10.19 91.69,10.49 90.17,11.09C88.65,11.69 87.53,12.49 86.81,13.49C86.13,14.49 85.79,15.61 85.79,16.85C85.79,18.33 86.25,19.51 87.17,20.39C88.13,21.27 89.35,21.97 90.83,22.49C92.35,23.01 94.01,23.49 95.81,23.93C97.61,24.33 99.41,24.79 101.21,25.31C103.05,25.83 104.71,26.51 106.19,27.35C107.71,28.19 108.93,29.31 109.85,30.71C110.77,32.11 111.23,33.91 111.23,36.11C111.23,38.23 110.65,40.21 109.49,42.05C108.33,43.85 106.53,45.31 104.09,46.43C101.69,47.51 98.65,48.05 94.97,48.05ZM51.12,28.79L51.12,42.35H75.6L75.6,47.57L45.12,47.57L45.12,5.57L74.76,5.57L74.76,10.79L51.12,10.79L51.12,23.69H72.18L72.18,28.79L51.12,28.79ZM5,5.57V47.57L11,47.57V34.85H21.38C25.06,34.85 28.2,34.27 30.8,33.11C33.4,31.91 35.4,30.23 36.8,28.07C38.2,25.87 38.9,23.25 38.9,20.21C38.9,17.17 38.2,14.55 36.8,12.35C35.4,10.15 33.4,8.47 30.8,7.31C28.2,6.15 25.06,5.57 21.38,5.57L5,5.57ZM11,29.63L11,10.79L21.2,10.79C25.04,10.79 27.94,11.61 29.9,13.25C31.9,14.89 32.9,17.21 32.9,20.21C32.9,23.21 31.9,25.53 29.9,27.17C27.94,28.81 25.04,29.63 21.2,29.63L11,29.63Z" fill-rule="evenodd" clip-path="url(#clip_path_0)"/></g></svg>