<?xml version="1.0" encoding="UTF-8" standalone="no"?>
<svg
   id="vector"
   width="24"
   height="24"
   viewBox="0 0 24 24"
   version="1.1"
   xmlns="http://www.w3.org/2000/svg"
   xmlns:svg="http://www.w3.org/2000/svg">
  <defs
     id="defs14801" />
  <g
     id="path_0">
    <path
       style="color:#000000;fill:#000000;fill-opacity:0;fill-rule:evenodd;stroke-width:2;stroke-linecap:round;-inkscape-stroke:none"
       d="m 21,12 c 0,4.97 -4.029,9 -9,9 -4.97,0 -9,-4.03 -9,-9 0,-4.971 4.03,-9 9,-9 4.971,0 9,4.029 9,9 z"
       id="path21081" />
    <path
       style="color:#000000;fill:#ff5722;fill-rule:evenodd;stroke-linecap:round;-inkscape-stroke:none"
       d="M 12,2 C 6.4895629,2 2,6.4885375 2,12 2,17.510571 6.4894287,22 12,22 17.511463,22 22,17.510437 22,12 22,6.4886716 17.511328,2 12,2 Z m 0,2 c 0.448574,0 0.888318,0.036586 1.316424,0.1069485 0.641073,0.1053649 0.940564,-1.8481586 2.602312,-0.6990604 1.578922,1.0918244 0.417294,1.8293806 0.938805,2.2273909 C 18.769886,7.0947567 20,9.3989579 20,12 20,16.429553 16.430528,20 12,20 10.97456,20 9.9951497,19.808634 9.0954155,19.459547 8.2865554,19.145718 8.7155608,20.598114 6.5556766,19.242678 5.0580507,18.302843 5.639028,16.939753 5.1806351,16.194239 4.4315223,14.975909 4,13.539852 4,12 4,7.5694725 7.5704471,4 12,4 Z"
       id="path21083" />
  </g>
  <path
     d="m 11.833056,2.8464878 c 0.06426,0.020614 0.06426,0.020614 0.06426,0.020614 z"
     fill="#2f302f"
     id="path6"
     style="stroke-width:0.0214297" />
  <path
     d="m 8.0828844,17.011481 c 0.042951,0.02061 0.042951,0.02061 0.042951,0.02061 z"
     fill="#2e2c2c"
     id="path8"
     style="stroke-width:0.0214297" />
  <path
     d="m 10.483017,16.089992 c 0.04295,0.02062 0.04295,0.02062 0.04295,0.02062 z"
     fill="#2c2a2b"
     id="path10"
     style="stroke-width:0.0214297" />
  <path
     d="m 12.883114,14.847081 c 0.04295,0.02061 0.04295,0.02061 0.04295,0.02061 z"
     fill="#30302f"
     id="path14"
     style="stroke-width:0.0214297" />
  <path
     d="m 9.9687082,10.218298 c 0.042951,0.02061 0.042951,0.02061 0.042951,0.02061 z"
     fill="#2f2d2f"
     id="path16"
     style="stroke-width:0.0214297" />
  <path
     d="m 8.4900648,10.068291 c 0.042951,0.02061 0.042951,0.02061 0.042951,0.02061 z"
     fill="#2d2d2d"
     id="path18"
     style="stroke-width:0.0214297" />
  <path
     d="m 13.933173,6.3609625 c 0.04295,0.020614 0.04295,0.020614 0.04295,0.020614 z"
     fill="#29292a"
     id="path26"
     style="stroke-width:0.0214297" />
  <path
     d="m 7.5685759,6.2752386 c 0.042951,0.020614 0.042951,0.020614 0.042951,0.020614 z"
     fill="#312e30"
     id="path28"
     style="stroke-width:0.0214297" />
  <path
     d="m 7.9114373,6.1037908 c 0.042951,0.020614 0.042951,0.020614 0.042951,0.020614 z"
     fill="#2c2c2d"
     id="path30"
     style="stroke-width:0.0214297" />
  <path
     d="m 18.047681,4.9037246 c 0.04295,0.020614 0.04295,0.020614 0.04295,0.020614 z"
     fill="#2f2e2f"
     id="path34"
     style="stroke-width:0.0214297" />
  <path
     d="m 18.733403,4.5608632 c 0.04295,0.020614 0.04295,0.020614 0.04295,0.020614 z"
     fill="#2c2a2c"
     id="path38"
     style="stroke-width:0.0214297" />
  <path
     d="m 19.054859,4.3894154 c 0.04295,0.020614 0.04295,0.020614 0.04295,0.020614 z"
     fill="#2b2b2a"
     id="path40"
     style="stroke-width:0.0214297" />
  <path
     d="m 19.290591,3.8536666 c 0.04295,0.020615 0.04295,0.020615 0.04295,0.020615 z"
     fill="#282729"
     id="path42"
     style="stroke-width:0.0214297" />
  <path
     d="m 10.504423,3.5322449 c 0.04295,0.020614 0.04295,0.020614 0.04295,0.020614 z"
     fill="#343437"
     id="path44"
     style="stroke-width:0.0214297" />
  <path
     d="m 10.997327,3.1893491 c 0.04295,0.020614 0.04295,0.020614 0.04295,0.020614 z"
     fill="#353433"
     id="path46"
     style="stroke-width:0.0214297" />
  <g
     id="path19531"
     transform="translate(0.59700749,0.31561918)">
    <path
       style="color:#000000;fill:#356859;stroke-width:1.22;-inkscape-stroke:none"
       d="m 9.2602145,10.058094 c 0,0 -0.237174,-0.1086024 -0.334749,-0.1086024 -0.134665,0 -0.13209,-0.0011 -1.9045804,0.9075974 -0.640742,0.328522 -1.40045,0.717427 -1.688235,0.864246 -1.353379,0.690444 -1.316868,0.669376 -1.387309,0.801153 l -0.04421,0.08276 -0.0056,2.872964 c -0.006,3.174696 -0.01405,2.741796 0.119206,2.86986 1.500733,0.845298 3.107645,1.899787 4.7131014,2.73718 0.02765,0.01082 0.112872,0.01684 0.189396,0.01338 0.133745,-0.006 0.154379,-0.01433 0.5331264,-0.214116 1.5968231,-0.89614 2.8412611,-1.661575 4.3087041,-2.453229 0.08921,-0.0593 0.172994,-0.122183 0.172582,-0.222985 0.01297,-0.840965 -0.0017,-1.600748 -0.0086,-2.264344 l -0.0056,-1.66938 c 0.0017,-1.672043 0.05917,-1.512696 -0.238347,-1.712621 -1.488559,-0.799638 -2.823932,-1.638075 -4.4188855,-2.503863 z m -0.355956,0.700384 c 1.2910565,0.667083 2.3654265,1.408204 3.6507575,2.087675 C 11.564336,13.385517 9.8592479,14.41374 8.8855535,14.94283 7.5349771,14.179685 6.4422911,13.521011 5.0714081,12.698772 l 0.36263,-0.187428 c 0.554518,-0.286592 1.589746,-0.811021 2.5778984,-1.305936 z m -4.2795124,2.567483 c 1.19016,0.695094 2.203124,1.320773 3.9018014,2.297428 0.01962,0.01801 0.02375,0.240346 0.01974,2.130637 l -0.005,2.382871 C 6.8931601,19.196111 5.6983291,18.51415 4.6119231,17.862225 l -0.005,-2.15559 c -0.0042,-1.791267 5.57e-4,-2.380674 0.01784,-2.380674 z m 8.5841299,0 c 0.01622,0 0.02079,0.634257 0.01706,2.380981 l -0.005,2.178922 c -1.41118,0.785732 -2.632182,1.50713 -3.9289535,2.232524 -0.0056,0 -0.01037,-0.277672 -0.01054,-0.617048 -1.84e-4,-0.339371 -0.0059,-1.358977 -0.01271,-2.265789 -0.01801,-0.63648 0.0026,-0.999809 0.01569,-1.634686 1.3733715,-0.759737 2.6970485,-1.65347 3.9244535,-2.274904 z"
       id="path21069" />
    <path
       style="color:#000000;fill:#356859;-inkscape-stroke:none"
       d="m 8.9257813,9.3398438 c -0.032836,0 -0.1777514,0.00702 -0.2832032,0.039063 -0.1054518,0.03204 -0.1894095,0.071354 -0.3183593,0.132812 C 8.0663191,9.634634 7.628414,9.860114 6.7421875,10.314453 c -0.640467,0.328381 -1.4010392,0.717138 -1.6875,0.863281 -0.6764296,0.34509 -0.9966958,0.506916 -1.2011719,0.625 -0.102238,0.05904 -0.1871432,0.10999 -0.28125,0.203125 -0.094107,0.09314 -0.1645675,0.192474 -0.1750354,0.212057 -0.1079726,0.142049 -0.1001303,0.320919 -0.1062146,0.498881 l -0.00519,0.263982 0.00324,0.273127 -0.00391,2.222657 c -0.003,1.586778 -0.00819,2.256518 0.00781,2.607421 0.008,0.175452 -0.034179,0.286731 0.1367187,0.544922 0.085449,0.129096 0.2344542,0.2172 0.2558594,0.228516 0.021405,0.01132 -0.049615,-0.0279 -0.09375,-0.07031 l 0.056641,0.05469 0.066406,0.03711 c 1.4739561,0.830216 3.0868186,1.890733 4.7304687,2.748047 l 0.029297,0.01367 0.03125,0.01172 c 0.1761254,0.06892 0.1954682,0.04847 0.2558594,0.05273 0.060391,0.0043 0.1191775,0.0068 0.1835937,0.0039 0.078095,-0.0035 0.2478681,-0.02784 0.3730469,-0.07813 0.1251787,-0.05028 0.2256932,-0.106637 0.4160156,-0.207031 l 0.00781,-0.0039 0.00586,-0.0039 c 1.608152,-0.902497 2.851119,-1.665204 4.300786,-2.447268 l 0.02539,-0.01367 0.02344,-0.01563 c 0.05407,-0.03594 0.137512,-0.08708 0.236328,-0.197266 0.09882,-0.110187 0.20793,-0.317189 0.207032,-0.537109 0.01279,-0.846981 -9.76e-4,-1.608379 -0.0078,-2.263672 v -0.0039 l -0.0059,-1.662109 v -0.002 c 9.04e-4,-0.82662 0.0249,-1.164017 -0.01172,-1.478516 -0.01834,-0.157458 -0.08919,-0.383021 -0.226562,-0.53125 -0.137377,-0.148229 -0.218742,-0.174855 -0.269532,-0.208984 l -0.02539,-0.01563 -0.02734,-0.01367 C 12.500855,11.237902 11.165388,10.397941 9.5507813,9.5214844 l -0.017578,-0.00977 -0.019531,-0.00781 c 0,0 -0.074951,-0.034986 -0.1679688,-0.070312 -0.093018,-0.035326 -0.1448217,-0.09375 -0.4199218,-0.09375 z m -0.039063,2.1093752 c 0.8213406,0.440965 1.6212057,0.920236 2.4394537,1.396484 -0.846971,0.486316 -1.7348881,1.000808 -2.4375006,1.392578 C 8.0121832,13.738867 7.1854192,13.243517 6.3378906,12.736328 6.9086685,12.444979 7.5379532,12.124236 8.2851563,11.75 Z M 12.615234,14.375 c 9.72e-4,0.361392 0.0013,0.699198 0,1.330078 l -0.0039,1.826172 c -0.962714,0.540263 -1.841288,1.044627 -2.7226561,1.546875 -0.00171,-0.462733 -0.00422,-1.109335 -0.00977,-1.847656 v -0.0059 -0.0059 c -0.013737,-0.485457 5.997e-4,-0.837027 0.011719,-1.263672 0.9715401,-0.553495 1.8605911,-1.086821 2.7246091,-1.580078 z m -7.3984371,0.0078 c 0.8015847,0.476001 1.599129,0.951727 2.71875,1.599609 5.81e-5,0.0053 -5.51e-5,0.0043 0,0.0098 0.00291,0.286755 0.002,0.815116 0,1.759765 l -0.00195,1.328125 C 6.9272928,18.504482 5.9818326,17.963712 5.2226562,17.511719 l -0.00586,-1.806641 c -0.0015,-0.637759 -9.317e-4,-0.963428 0,-1.322265 z m 4.0742187,5.736328 0.035156,0.134765 c -0.062879,0.0355 -0.1098858,0.06372 -0.1738281,0.09961 -9.31e-4,4.89e-4 -0.00103,-4.87e-4 -0.00195,0 v -0.05273 c 0.066067,-0.08531 0.140625,-0.18164 0.140625,-0.18164 z"
       id="path21071" />
  </g>
  <g
     id="g21077"
     transform="translate(5.1822519,-7.5370313)">
    <path
       style="color:#000000;fill:#356859;stroke-width:1.22;-inkscape-stroke:none"
       d="m 9.2602145,10.058094 c 0,0 -0.237174,-0.1086024 -0.334749,-0.1086024 -0.134665,0 -0.13209,-0.0011 -1.9045804,0.9075974 -0.640742,0.328522 -1.40045,0.717427 -1.688235,0.864246 -1.353379,0.690444 -1.316868,0.669376 -1.387309,0.801153 l -0.04421,0.08276 -0.0056,2.872964 c -0.006,3.174696 -0.01405,2.741796 0.119206,2.86986 1.500733,0.845298 3.107645,1.899787 4.7131014,2.73718 0.02765,0.01082 0.112872,0.01684 0.189396,0.01338 0.133745,-0.006 0.154379,-0.01433 0.5331264,-0.214116 1.5968231,-0.89614 2.8412611,-1.661575 4.3087041,-2.453229 0.08921,-0.0593 0.172994,-0.122183 0.172582,-0.222985 0.01297,-0.840965 -0.0017,-1.600748 -0.0086,-2.264344 l -0.0056,-1.66938 c 0.0017,-1.672043 0.05917,-1.512696 -0.238347,-1.712621 -1.488559,-0.799638 -2.823932,-1.638075 -4.4188855,-2.503863 z m -0.355956,0.700384 c 1.2910565,0.667083 2.3654265,1.408204 3.6507575,2.087675 C 11.564336,13.385517 9.8592479,14.41374 8.8855535,14.94283 7.5349771,14.179685 6.4422911,13.521011 5.0714081,12.698772 l 0.36263,-0.187428 c 0.554518,-0.286592 1.589746,-0.811021 2.5778984,-1.305936 z m -4.2795124,2.567483 c 1.19016,0.695094 2.203124,1.320773 3.9018014,2.297428 0.01962,0.01801 0.02375,0.240346 0.01974,2.130637 l -0.005,2.382871 C 6.8931601,19.196111 5.6983291,18.51415 4.6119231,17.862225 l -0.005,-2.15559 c -0.0042,-1.791267 5.57e-4,-2.380674 0.01784,-2.380674 z m 8.5841299,0 c 0.01622,0 0.02079,0.634257 0.01706,2.380981 l -0.005,2.178922 c -1.41118,0.785732 -2.632182,1.50713 -3.9289535,2.232524 -0.0056,0 -0.01037,-0.277672 -0.01054,-0.617048 -1.84e-4,-0.339371 -0.0059,-1.358977 -0.01271,-2.265789 -0.01801,-0.63648 0.0026,-0.999809 0.01569,-1.634686 1.3733715,-0.759737 2.6970485,-1.65347 3.9244535,-2.274904 z"
       id="path21073" />
    <path
       style="color:#000000;fill:#356859;-inkscape-stroke:none"
       d="m 8.9257813,9.3398438 c -0.032836,0 -0.1777514,0.00702 -0.2832032,0.039063 -0.1054518,0.03204 -0.1894095,0.071354 -0.3183593,0.132812 C 8.0663191,9.634634 7.628414,9.860114 6.7421875,10.314453 c -0.640467,0.328381 -1.4010392,0.717138 -1.6875,0.863281 -0.6764296,0.34509 -0.9966958,0.506916 -1.2011719,0.625 -0.102238,0.05904 -0.1871432,0.10999 -0.28125,0.203125 -0.094107,0.09314 -0.1645675,0.192474 -0.1750354,0.212057 -0.1079726,0.142049 -0.1001303,0.320919 -0.1062146,0.498881 l -0.00519,0.263982 0.00324,0.273127 -0.00391,2.222657 c -0.003,1.586778 -0.00819,2.256518 0.00781,2.607421 0.008,0.175452 -0.034179,0.286731 0.1367187,0.544922 0.085449,0.129096 0.2344542,0.2172 0.2558594,0.228516 0.021405,0.01132 -0.049615,-0.0279 -0.09375,-0.07031 l 0.056641,0.05469 0.066406,0.03711 c 1.4739561,0.830216 3.0868186,1.890733 4.7304687,2.748047 l 0.029297,0.01367 0.03125,0.01172 c 0.1761254,0.06892 0.1954682,0.04847 0.2558594,0.05273 0.060391,0.0043 0.1191775,0.0068 0.1835937,0.0039 0.078095,-0.0035 0.2478681,-0.02784 0.3730469,-0.07813 0.1251787,-0.05028 0.2256932,-0.106637 0.4160156,-0.207031 l 0.00781,-0.0039 0.00586,-0.0039 c 1.608152,-0.902497 2.851119,-1.665204 4.300786,-2.447268 l 0.02539,-0.01367 0.02344,-0.01563 c 0.05407,-0.03594 0.137512,-0.08708 0.236328,-0.197266 0.09882,-0.110187 0.20793,-0.317189 0.207032,-0.537109 0.01279,-0.846981 -9.76e-4,-1.608379 -0.0078,-2.263672 v -0.0039 l -0.0059,-1.662109 v -0.002 c 9.04e-4,-0.82662 0.0249,-1.164017 -0.01172,-1.478516 -0.01834,-0.157458 -0.08919,-0.383021 -0.226562,-0.53125 -0.137377,-0.148229 -0.218742,-0.174855 -0.269532,-0.208984 l -0.02539,-0.01563 -0.02734,-0.01367 C 12.500855,11.237902 11.165388,10.397941 9.5507813,9.5214844 l -0.017578,-0.00977 -0.019531,-0.00781 c 0,0 -0.074951,-0.034986 -0.1679688,-0.070312 -0.093018,-0.035326 -0.1448217,-0.09375 -0.4199218,-0.09375 z m -0.039063,2.1093752 c 0.8213406,0.440965 1.6212057,0.920236 2.4394537,1.396484 -0.846971,0.486316 -1.7348881,1.000808 -2.4375006,1.392578 C 8.0121832,13.738867 7.1854192,13.243517 6.3378906,12.736328 6.9086685,12.444979 7.5379532,12.124236 8.2851563,11.75 Z M 12.615234,14.375 c 9.72e-4,0.361392 0.0013,0.699198 0,1.330078 l -0.0039,1.826172 c -0.962714,0.540263 -1.841288,1.044627 -2.7226561,1.546875 -0.00171,-0.462733 -0.00422,-1.109335 -0.00977,-1.847656 v -0.0059 -0.0059 c -0.013737,-0.485457 5.997e-4,-0.837027 0.011719,-1.263672 0.9715401,-0.553495 1.8605911,-1.086821 2.7246091,-1.580078 z m -7.3984371,0.0078 c 0.8015847,0.476001 1.599129,0.951727 2.71875,1.599609 5.81e-5,0.0053 -5.51e-5,0.0043 0,0.0098 0.00291,0.286755 0.002,0.815116 0,1.759765 l -0.00195,1.328125 C 6.9272928,18.504482 5.9818326,17.963712 5.2226562,17.511719 l -0.00586,-1.806641 c -0.0015,-0.637759 -9.317e-4,-0.963428 0,-1.322265 z m 4.0742187,5.736328 0.035156,0.134765 c -0.062879,0.0355 -0.1098858,0.06372 -0.1738281,0.09961 -9.31e-4,4.89e-4 -0.00103,-4.87e-4 -0.00195,0 v -0.05273 c 0.066067,-0.08531 0.140625,-0.18164 0.140625,-0.18164 z"
       id="path21075" />
  </g>
  <path
     fill="#000000"
     d="M5,8L19.748,16.515"
     fill-opacity="0"
     stroke-linecap="square"
     stroke="#FF5722"
     stroke-width="2"
     id="path_2" />
</svg>
