<?xml version="1.0" encoding="UTF-8" standalone="no"?>
<svg id="vector"
    width="24"
    height="24"
    viewBox="0 0 24 24"
    version="1.1"
    xmlns="http://www.w3.org/2000/svg">
    <defs id="defs7702" />
    <path
        fill="#000000"
        d="M21,12C21,16.97 16.971,21 12,21C7.03,21 3,16.97 3,12C3,7.029 7.03,3 12,3C16.971,3 21,7.029 21,12Z"
        fill-opacity="0"
        stroke-linecap="round"
        stroke="#FF5722"
        stroke-width="2"
        fill-rule="evenodd"
        id="path_0" />
    <path
        style="fill:#356859;fill-opacity:1;stroke:#356859;stroke-width:1.26397;stroke-dasharray:none;stroke-opacity:1"
        d="m 11.859186,18.787117 c -0.147567,-0.04424 -0.25186,-0.171166 -0.287039,-0.349547 -0.05915,-0.30024 -0.0523,-0.290278 -0.243455,-0.366381 -2.6183174,-1.043223 -4.1978134,-2.830213 -4.1965684,-6.362331 1.25e-4,-0.360941 -0.0062,-0.472099 -0.02179,-0.472099 -0.625883,0 -0.913857,-1.551719 -0.49547,-2.6697899 0.644282,-1.7217828 2.439898,-2.7440794 5.0541374,-2.8774594 0.282059,-0.014321 0.26836,-0.00716 0.330967,-0.1729398 0.51057,-1.3480554 1.618785,-2.2978076 2.648952,-2.2701404 0.799383,0.021481 0.860621,0.90886 0.06289,0.912627 -0.601506,0.00284 -1.156782,0.3671523 -1.608044,1.0550042 -0.121727,0.1853927 -0.291398,0.4859094 -0.279879,0.495383 0.0027,0.0022 0.08748,0.013698 0.18835,0.025528 2.314311,0.2726876 3.881043,1.3130379 4.408828,2.9275793 0.357243,1.0929105 0.09184,2.454445 -0.50014,2.565497 -0.06787,0.01276 -0.06787,0.01276 -0.06787,0.43089 0,3.573932 -1.501136,5.26768 -4.141838,6.387343 -0.260888,0.110644 -0.242831,0.09034 -0.293577,0.326017 -0.07783,0.360237 -0.268049,0.501637 -0.558108,0.414734 z m 0.237228,-1.422213 c 1.790199,-0.582531 2.995392,-0.99349 3.590734,-3.153008 0.2447,-0.887055 0.384577,-2.170523 0.328757,-3.01338 l -0.01245,-0.175741 -0.148812,-0.03892 c -2.025902,-0.530219 -5.42265,-0.538519 -7.6255394,-0.01868 -0.298558,0.07048 -0.276143,0.0109 -0.262756,0.693216 0.06662,3.430076 1.448584,4.845386 3.8436834,5.672904 0.210455,0.07273 0.177143,0.0688 0.285483,0.03356 z m 4.625384,-7.152676 C 16.833563,9.8775225 16.760708,9.205621 16.562401,8.7458053 15.264839,5.736068 8.4818636,5.8528514 7.3859766,8.9038016 c -0.163133,0.4539859 -0.208586,1.2438674 -0.07939,1.3732344 0.0062,0.0056 0.152859,-0.02802 0.32748,-0.07416 2.4783784,-0.656805 6.4862534,-0.650404 8.7764374,0.01401 0.291709,0.08465 0.281435,0.0848 0.311322,-0.0047 z"
        id="path7685" />
    <path
        fill="#000000"
        d="M5,8L19.748,16.515"
        fill-opacity="0"
        stroke-linecap="square"
        stroke="#FF5722"
        stroke-width="2"
        id="path_2" />
</svg>
