<svg id="vector" xmlns="http://www.w3.org/2000/svg" width="24" height="24" viewBox="0 0 24 24"><path fill="#1D1D00" d="M5.075,18.925H13.925V13.925H18.925V5.075H5.075V18.925ZM5.075,21.2C4.442,21.2 3.904,20.979 3.463,20.538C3.021,20.096 2.8,19.558 2.8,18.925V5.075C2.8,4.442 3.021,3.904 3.463,3.462C3.904,3.021 4.442,2.8 5.075,2.8H18.925C19.558,2.8 20.096,3.021 20.538,3.462C20.979,3.904 21.2,4.442 21.2,5.075V15.025L15.025,21.2H5.075ZM7.075,14.075V11.975H12.025V14.075H7.075ZM7.075,9.975V7.9H16.925V9.975H7.075ZM5.075,18.925V5.075V18.925V18.925Z" id="path_0"/></svg>