<?xml version="1.0" encoding="UTF-8" standalone="no"?>
<svg
   id="vector"
   width="24"
   height="24"
   viewBox="0 0 24 24"
   version="1.1"
   xmlns="http://www.w3.org/2000/svg"
   xmlns:svg="http://www.w3.org/2000/svg">
  <defs
     id="defs8" />
  <g
     id="path_0">
    <path
       style="color:#000000;fill:#000000;fill-opacity:0;fill-rule:evenodd;stroke-width:2;stroke-linecap:round;-inkscape-stroke:none"
       d="m 21,12 c 0,4.97 -4.029,9 -9,9 -4.97,0 -9,-4.03 -9,-9 0,-4.971 4.03,-9 9,-9 4.971,0 9,4.029 9,9 z"
       id="path1672" />
    <path
       style="color:#000000;fill:#ff5722;fill-rule:evenodd;stroke-linecap:round;-inkscape-stroke:none"
       d="M 12,2 C 6.4895629,2 2,6.4885375 2,12 2,17.510571 6.4894287,22 12,22 17.511463,22 22,17.510437 22,12 22,6.4886716 17.511328,2 12,2 Z m 0,2 c 1.228837,0 2.391419,0.2745611 3.429973,0.7659099 0.337675,0.159757 1.521613,-0.626318 1.831079,-0.422711 0.411329,0.2706259 -0.06339,1.5469818 0.289933,1.8869046 C 19.06207,7.6838852 20,9.7287758 20,12 20,16.429553 16.430528,20 12,20 7.5705812,20 4,16.429419 4,12 4,9.488891 5.1469457,7.2543814 6.9471922,5.7895836 7.2978062,5.5043012 6.3239299,4.3434059 6.7103536,4.1030921 7.5355211,3.5899269 8.7996379,4.6501679 9.1875558,4.5052106 10.061862,4.1784994 11.00945,4 12,4 Z"
       id="path1674" />
  </g>
  <g
     id="g822"
     transform="matrix(0.01979663,0,0,0.01979663,7.1105318,-1.1886164)"
     style="stroke-width:1.01027296">
    <g
       id="path943">
      <path
         style="color:#000000;fill:#356859;stroke-width:51.5239;-inkscape-stroke:none"
         d="m 19.612918,1071.8253 c -14.0779705,-4.4622 -108.555887,-18.6299 -105.027967,-58.8608 11.01788,-125.64271 78.2578496,-201.49997 178.609866,-201.49997 6.76331,0 6.76331,0 12.155773,-8.25 26.03433,-39.83025 66.78918,-68.12605 108.76771,-75.51662 13.06612,-2.30037 11.86124,6.10142 12.59419,-87.82123 0.85271,-109.26956 -0.89361,-125.86702 -16.61487,-157.91215 -7.70759,-15.71063 -7.58875,-15.62449 -19.01347,-13.7796 C 60.248241,489.3127 -51.202189,414.20007 -84.473179,282.47156 c -12.86559,-50.93819 -10.84044,-74.39601 6.80631,-78.83951 13.36657,-3.36574 112.55293,-0.97737 139.63277,3.36231 110.332799,17.68136 178.179469,101.48755 177.022549,218.66341 -0.16482,16.69324 0.581,16.47314 2.48704,22.98659 1.14281,3.90532 7.59336,19.76286 9.05077,22.23786 2.64985,4.5 2.05789,-8.91769 2.68739,-31.41769 3.31097,-118.34251 78.74092,-195.48983 201.3705,-205.95526 26.70505,-2.27906 109.38333,-1.31672 115.00003,1.33855 16.2486,7.68154 17.4759,27.27887 4.8923,78.11671 -33.49478,135.31865 -134.19792,203.70765 -275.13746,186.84994 -7.65789,-0.91596 -18.72257,23.67765 -23.64456,52.55508 -5.73212,33.6305 -4.61663,173.20015 1.38969,173.87649 45.41929,5.11445 95.45528,38.56661 118.8521,79.45999 3.06096,5.35 3.06096,5.35 19.85443,6.55362 97.02974,6.95429 157.2019,78.79714 169.3571,202.20485 3.7475,38.0477 -46.81169,46.6034 -61.32429,51.5483 -5.7853,1.9713 -498.004902,7.7794 -504.210572,5.8125 z m 520.876392,-52.6108 c -8.56562,-103.02439 -56.2737,-157.34668 -141.90516,-161.57867 -22.63761,-1.11877 -25.72548,-2.66126 -33.41619,-16.69241 -52.07903,-95.01449 -173.72465,-95.50373 -229.7041,-0.92385 -9.50452,16.05832 -11.33885,16.95433 -36.379713,17.77035 -69.835796,2.27577 -111.332026,35.15577 -130.865436,103.69279 -4.97767,17.4651 -7.12703,30.1979 -9.66104,57.23179 l -0.63271,6.75 289.309579,69.2047 293.77441,-69.2047 z M 372.56305,453.95843 c 84.20484,-10.84378 141.54141,-67.86372 158.03408,-157.16139 3.99312,-21.62027 6.68628,-19.33415 -22.76298,-19.32262 -132.60291,0.0519 -193.7206,41.83703 -211.23686,144.41895 -2.26734,18.86371 6.36904,33.99903 33.51809,34.57116 -0.0553,0.87429 29.95792,-0.89769 42.44767,-2.5061 z m -210.4789,-29.86279 c 27.94559,-1.85714 33.5436,-6.92939 30.64574,-32.13111 -0.31608,-1.1 -1.53061,-6.45868 -2.69896,-11.90817 C 176.16291,315.37214 126.68182,267.4159 60.006211,254.03858 c -37.53108,-7.52997 -103.70017,-9.18184 -103.10885,-2.57405 7.88007,88.05672 74.53335,158.89294 160.369529,170.43376 15.05007,2.02351 44.81726,3.48297 44.81726,2.19735 z"
         id="path1678" />
      <path
         style="color:#000000;fill:#356859;-inkscape-stroke:none"
         d="m -54.421875,176.36914 c -12.112854,0.18959 -18.177932,-0.57853 -29.535156,2.28125 -9.503316,2.39296 -19.431109,8.88068 -25.306639,17.49023 -5.87553,8.60956 -8.11466,18 -8.91406,27.25977 -1.59882,18.51954 1.98525,38.68834 8.72656,65.37891 35.404575,140.17593 157.600367,224.73683 297.05273,205.88867 6.71247,13.7988 9.42443,21.22676 11.39844,39.98828 2.04358,19.42268 2.37638,50.53221 1.95117,105.01953 -0.28066,35.96463 -0.6117,54.25533 -1.02734,64.68164 -45.17447,10.8067 -86.0191,40.72515 -113.791018,81.52149 -53.752731,1.7905 -101.153096,23.92199 -135.021484,62.13086 -35.347759,39.87782 -56.321538,95.79009 -62.189458,162.70503 -2.30344,32.4276 50.928585,27.4082 61.430318,40.4585 24.082758,29.9273 27.864435,45.5445 79.936874,45.8111 60.194764,0.2247 138.297958,35.0458 217.972228,35.0171 79.67428,-0.029 160.90889,-34.9073 221.05121,-35.1753 54.49878,1.2019 61.18549,-29.3838 84.78776,-48.9064 10.73236,-8.8773 21.48931,-14.2912 34.2439,-25.7988 4.65771,-4.2024 22.64107,-0.028 22.441,-10.1815 -6.43628,-65.34539 -25.73319,-119.3825 -58.73829,-158.78911 -33.00509,-39.40661 -79.96845,-62.68373 -134.41406,-66.58594 -1.60723,-0.11519 -2.18134,-0.23046 -3.46484,-0.36718 -25.61093,-40.30576 -68.64006,-71.09755 -114.72852,-82.0918 -0.0669,-0.93335 -0.13861,-1.19985 -0.20117,-2.19727 -0.80958,-12.90693 -1.33629,-31.18763 -1.49023,-50.44922 -0.30789,-38.52317 1.51404,-84.03824 3.34179,-94.76171 2.02907,-11.9046 5.43679,-22.93774 8.44922,-29.95899 69.91164,5.93931 132.4499,-8.23029 182.13281,-41.9707 52.80482,-35.86054 89.86149,-93.09134 107.8125,-165.61328 6.52424,-26.35797 10.18036,-45.31651 9.07032,-63.04102 -1.11005,-17.72451 -12.40821,-37.20499 -27.95899,-44.55664 h -0.002 c -5.73471,-2.71106 -6.88457,-2.29869 -8.72656,-2.60352 -1.842,-0.30482 -3.47539,-0.48739 -5.25977,-0.66015 -3.56875,-0.34553 -7.6487,-0.60222 -12.37695,-0.82813 -9.4565,-0.45181 -21.35765,-0.75006 -33.9375,-0.89648 -25.1597,-0.29285 -51.99743,-0.0857 -67.90039,1.27148 -66.21269,5.65071 -122.18394,29.8106 -161.65821,70.1836 -16.36539,16.73799 -29.6746,36.17221 -39.83789,57.74609 -27.50751,-81.5185 -94.2915,-139.69989 -184.853511,-154.21289 -17.663185,-2.83061 -48.033729,-4.15512 -78.416016,-4.88672 -15.191143,-0.3658 -29.935974,-0.49037 -42.048828,-0.30078 z m -0.611328,51.60156 c -0.975174,0.57794 -1.802989,0.92757 -2.964844,1.80664 -2.513374,1.90166 -5.894092,5.83258 -8.21875,10.83985 -0.544986,-5.06884 -0.789684,-9.24706 -0.625,-11.95313 3.219169,-0.26897 7.387378,-0.56856 11.808594,-0.69336 z m 602.724613,30.85157 c 1.16914,0.0478 3.00404,0.056 4.08007,0.10742 2.29744,0.10976 3.59436,0.23158 5.36133,0.35156 0.002,0.0282 -0.004,0.0221 -0.002,0.0508 0.15315,2.4454 -0.16027,6.58465 -0.73438,11.50781 -1.72456,-4.09646 -4.39384,-8.42243 -7.96875,-11.45703 -0.25578,-0.21712 -0.48448,-0.35541 -0.73632,-0.56054 z m 14.73437,0.8457 c 0.4031,0.0487 1.02974,0.11921 1.0293,0.11914 -4.4e-4,-7e-5 -0.21157,0.0868 -1.0293,-0.11914 z m -575.839843,13.51367 c 2.320598,0.005 4.4154905,-0.0412 6.9277349,0.0215 19.8231391,0.49488 45.1669831,2.8317 61.4257811,6.09375 57.442967,11.52495 98.120317,51.20556 109.902347,106.16016 0.91009,4.2449 1.52552,6.93522 2.35351,10.24805 0.0755,0.73199 0.0874,1.19763 0.13672,1.83984 -1.82274,0.32287 -4.04341,0.65208 -6.95703,0.8457 l -5.46875,0.36329 c -2.27647,-0.0304 -4.8675,-0.0765 -8.32617,-0.2461 -8.7331,-0.42817 -19.76824,-1.32072 -25.88086,-2.14258 C 54.844404,387.51094 2.0580018,338.04587 -13.414063,273.18164 Z m 536.970703,30.01563 c 1.38856,0.0442 0.88442,0.66034 -1.18164,0.004 0.21704,0.004 1.00023,-0.01 1.18164,-0.004 z m -20.70703,0.14648 C 485.76896,377.07909 440.061,419.29228 369.27344,428.4082 c -4.84085,0.6234 -15.5094,1.50707 -24.15625,2.01758 -3.56744,0.21062 -6.42739,0.3206 -8.85742,0.40039 l -5.60157,-0.11719 c -8.04764,-0.16959 -8.84177,-1.50442 -8.53906,-1.27148 -0.0782,-0.30846 -0.20725,-1.52908 0.0469,-4.06641 8.06915,-46.41825 23.99309,-74.10988 51.43164,-92.86914 26.86279,-18.36562 68.47623,-28.58704 129.25195,-29.1582 z m -289.5918,123.25391 c -0.0222,8.55528 0.53945,14.87945 1.29883,19.58398 -5.26723,-2.9573 -11.44037,-4.33561 -15.79492,-4.50195 2.94258,-1.83295 5.84225,-4.02145 8.66406,-6.91797 2.3901,-2.45338 4.23124,-5.26691 5.83203,-8.16406 z m 65.32031,30.42968 c 1.2161,1.94596 2.55319,3.85036 4.09961,5.67383 3.94482,4.65153 8.7219,8.36948 14.02539,11.30274 -12.46422,0.54836 -19.33125,8.21627 -23.38476,13.07812 -4.63284,5.55671 -7.53993,11.08324 -10.32227,17.26758 -4.99312,11.09828 -8.92948,24.32864 -11.71875,38.75976 -0.30638,-4.77235 -0.59245,-9.61764 -1.03711,-13.84375 -1.3201,-12.54662 -3.60411,-23.16993 -6.64257,-32.93164 1.68223,0.49745 3.51378,0.90874 5.64648,1.08594 9.35144,0.77701 18.7572,-5.1545 22.24805,-9.3418 3.49084,-4.18729 4.25108,-6.88883 4.91211,-8.86328 2.64409,-7.89779 1.79678,-9.28409 1.95703,-12.71289 0.11539,-2.46891 0.15879,-6.53263 0.21679,-9.47461 z m -26.90234,338.11719 c 34.65041,0.13936 68.91549,18.07175 90.90039,58.18164 4.3526,7.94101 10.75421,18.14321 22.18164,23.85156 11.42743,5.70836 20.71059,5.60411 32.55469,6.18946 37.62361,1.85939 62.92104,13.55036 81.76758,35.00976 15.85211,18.04983 27.4205,44.79225 33.09375,81.32617 L 251.83463,1123.6194 -13.417969,999.70312 c 1.58019,-11.99864 3.337324,-20.37168 6.4121096,-31.16015 8.7463307,-30.68832 21.3390134,-50.52502 37.7929684,-63.5625 16.453956,-13.03749 38.089475,-20.42966 69.136719,-21.44141 12.806732,-0.41734 22.261822,0.19985 34.482422,-5.76953 12.2206,-5.96938 18.21127,-16.15534 23.22656,-24.62891 23.81366,-40.23428 59.39256,-58.13545 94.04297,-57.99609 z m 317.17578,248.71877 c 0.344,0.055 -0.34171,0.4655 -0.28125,0.4609 0.0232,0 -0.13347,0.01 -0.14258,0.01 l -0.0273,-0.3398 c 0.0392,-3e-4 0.42484,-0.1331 0.45117,-0.1289 z"
         id="path1680" />
    </g>
  </g>
  <g
     id="g1694"
     style="display:inline;fill:#ffff00">
    <path
       id="path1690"
       d="m 3,12 c 0,4.97 4.03,9 9,9 4.971,0 9,-4.03 9,-9 z"
       style="color:#000000;fill:#ffff00;fill-opacity:0;fill-rule:evenodd;stroke-width:2;stroke-linecap:round;-inkscape-stroke:none" />
    <path
       id="path1692"
       d="m 2,12 c 0,5.510571 4.4894287,10 10,10 5.511463,0 10,-4.489563 10,-10 z m 18,0 c 0,4.429553 -3.569472,8 -8,8 -4.4294188,0 -8,-3.570581 -8,-8 z"
       style="color:#000000;fill:#ff5722;fill-rule:evenodd;stroke-linecap:round;-inkscape-stroke:none;fill-opacity:1" />
  </g>
</svg>
