<svg id="vector" xmlns="http://www.w3.org/2000/svg" width="24" height="24" viewBox="0 0 24 24"><path fill="#072019" d="M3.7,20.3V12.075H1.625V9.9H5.8C5.217,9.9 4.721,9.692 4.312,9.275C3.904,8.858 3.7,8.358 3.7,7.775V3.625H9.95V7.775C9.95,8.358 9.742,8.858 9.325,9.275C8.908,9.692 8.408,9.9 7.825,9.9H16.1V6.75C16.1,6.483 16.008,6.262 15.825,6.087C15.642,5.912 15.417,5.825 15.15,5.825C14.883,5.825 14.658,5.921 14.475,6.112C14.292,6.304 14.2,6.542 14.2,6.825H12.025C12.025,5.942 12.329,5.187 12.938,4.562C13.546,3.937 14.283,3.625 15.15,3.625C16.017,3.625 16.754,3.929 17.363,4.537C17.971,5.146 18.275,5.883 18.275,6.75V9.9H22.375V12.075H20.3V20.3H3.7ZM5.875,7.7H7.75V5.825H5.875V7.7ZM5.875,18.125H10.9V12.075H5.875V18.125ZM13.1,18.125H18.125V12.075H13.1V18.125ZM5.875,7.7H7.75H5.875Z" id="path_0"/></svg>