<?xml version="1.0" encoding="UTF-8" standalone="no"?>
<svg
   id="vector"
   width="24"
   height="24"
   viewBox="0 0 24 24"
   version="1.1"
   xmlns="http://www.w3.org/2000/svg"
   xmlns:svg="http://www.w3.org/2000/svg">
  <defs
     id="defs25591" />
  <g
     id="path_0">
    <path
       style="color:#000000;fill:#000000;fill-opacity:0;fill-rule:evenodd;stroke-width:2;stroke-linecap:round;-inkscape-stroke:none"
       d="m 21,12 c 0,4.97 -4.029,9 -9,9 -4.97,0 -9,-4.03 -9,-9 0,-4.971 4.03,-9 9,-9 4.971,0 9,4.029 9,9 z"
       id="path2608" />
    <path
       style="color:#000000;fill:#ff5722;fill-rule:evenodd;stroke-linecap:round;-inkscape-stroke:none"
       d="M 12,2 C 6.4895629,2 2,6.4885375 2,12 2,17.510571 6.4894287,22 12,22 17.511463,22 22,17.510437 22,12 22,6.4886716 17.511328,2 12,2 Z m 0,2 c 4.430662,0 8,3.5693384 8,8 0,4.429553 -3.569472,8 -8,8 -0.57674,0 -1.998294,0.408215 -2.5399271,0.293132 C 9.007927,20.197062 9.4294743,19.594229 9.0094471,19.425616 6.0683362,18.244952 4,15.371226 4,12 4,7.5694725 7.5704471,4 12,4 Z"
       id="path2610" />
  </g>
  <g
     id="path316">
    <path
       style="color:#000000;fill:#356859;stroke-width:1.2;-inkscape-stroke:none"
       d="m 8.0758712,20.11104 0.2130409,-0.222389 -0.092923,-0.05427 C 7.2149643,19.259492 6.8423183,17.393809 7.7007269,17.354835 c 0.1206186,-0.0037 0.2335074,0.0075 0.4694906,0.05654 2.2977675,0.47267 2.9955665,0.647338 3.4690625,0.868369 l 0.199849,0.09347 0.203993,-0.06898 c 2.537298,-0.858909 2.948596,-3.86186 0.634548,-4.632942 -0.193515,-0.06446 -0.226987,-0.07048 -0.263851,-0.04674 -0.04844,0.03015 -0.37998,0.227664 -0.589377,0.349789 -0.98687,0.575118 -1.844851,1.133796 -2.17106,2.086823 -0.163513,0.477682 -0.470525,0.605799 -0.715905,0.298903 -0.25356,-0.317373 0.348168,-1.537754 1.147487,-2.327458 0.239992,-0.237087 0.239992,-0.237087 0.163587,-0.251035 -0.04202,-0.0075 -0.220992,-0.04258 -0.397739,-0.07804 L 9.529481,13.639464 9.381047,13.741993 C 8.425885,13.58127 7.2789921,15.195169 7.0591262,15.953852 6.9341331,16.385173 6.5796662,16.504016 6.3656153,16.186417 6.1305292,15.83737 6.8824491,14.455246 7.7574879,13.627587 l 0.222917,-0.210701 -0.126272,-0.04259 C 7.6826679,13.316624 7.0334545,12.850424 6.9072581,12.80105 6.8028529,12.759948 6.8028529,12.759948 6.5592022,12.941644 5.6207892,13.641562 4.9480177,14.4774 4.7119507,15.236649 4.6034319,15.585681 4.3954809,15.715985 4.135507,15.598118 3.4925561,15.306001 4.4474899,13.597985 5.8373125,12.554043 6.0473001,12.396489 6.0563086,12.432676 5.7626053,12.254009 5.3278554,11.989405 5.6909944,12.066057 4.742288,11.465836 4.2351908,11.145071 3.4920199,10.677529 3.090798,10.426984 0.84406312,9.023868 0.99206411,9.13574 1.0184943,8.860695 1.0433722,8.6025 1.267908,8.502613 1.6102571,8.597976 2.2905949,8.787194 3.0211193,8.762694 4.8841332,8.487166 6.9756419,8.177708 7.6037112,8.142653 10.986599,8.145292 13.269362,8.147192 13.827887,8.340517 13.83999,8.279826 13.85769,8.192006 13.296525,7.4840081 13.278465,7.4834804 13.270065,7.4832542 13.117367,6.6177695 12.939042,6.5989235 12.655427,6.5687695 12.099482,6.5650015 8.511334,6.5521855 4.1259027,6.537108 4.2899377,6.540878 3.7493669,6.4398606 2.0631461,6.1232401 0.86324682,5.2466174 1.6006283,4.8704426 c 0.182132,-0.092724 0.2868428,-0.063323 0.8037668,0.2280418 0.4574093,0.2578191 0.9720798,0.4240447 1.6894535,0.5462449 0.2503567,0.042594 0.2987916,0.043345 4.1844511,0.056917 4.3651853,0.015078 5.2642913,0.4575581 6.0167683,0.7247804 0.890516,0.3582669 -0.242769,-0.099824 0.446554,0.1948155 1.764971,0.7544068 4.147709,2.7867398 4.762072,4.6946978 1.525454,4.737427 -2.13066,9.438328 -7.30992,9.398825 -0.319635,-0.0025 -0.319635,-0.0025 -0.499403,0.120618 -1.125311,1.286401 -3.4848495,0.06485 -3.6184998,-0.724343 z M 11.56712,19.537731 C 11.59728,19.015648 11.353928,18.884739 9.702649,18.535177 9.009286,18.388552 7.9966984,18.18388 7.9911683,18.189156 c -0.015078,0.01506 0.1033929,0.366374 0.1702969,0.505198 0.1883133,0.390724 0.2258551,0.64202 0.6754858,0.747634 -0.3519392,1.725333 0.2355286,2.722171 2.730169,0.09574 z m 1.241143,0.325666 c 1.221697,-0.09499 2.345441,-0.466034 3.327793,-1.098935 0.08664,-0.05579 0.155031,-0.104036 0.151978,-0.107046 -0.003,-0.003 -0.110436,-0.03918 -0.238595,-0.0803 -0.592634,-0.190348 -1.416993,-0.60625 -1.677307,-0.846542 -0.04609,-0.04258 -0.04609,-0.04258 -0.237352,0.161324 -0.422992,0.451298 -0.953011,0.804065 -1.611222,1.072437 -0.128314,0.0524 -0.210289,0.09686 -0.206482,0.111953 0.05894,0.235581 0.05595,0.571536 -0.0069,0.769537 -0.01506,0.04712 0.07504,0.05014 0.498102,0.01885 z m 4.40409,-1.972617 c 0.642181,-0.566524 1.15454,-1.308546 1.470639,-2.129873 0.109046,-0.28345 0.304671,-1.04428 0.304671,-1.185026 0,-0.01122 -0.08436,0.03918 -0.187445,0.108932 -0.981714,0.664486 -2.143243,1.004704 -3.431106,1.004967 l -0.345944,7.6e-5 -0.03506,0.285335 c -0.03792,0.309835 -0.134259,0.679639 -0.234751,0.901235 -0.03392,0.07501 -0.06171,0.139842 -0.06171,0.144364 0,0.133052 1.255259,0.7205 1.853314,0.867238 0.555073,0.136064 0.516212,0.136064 0.667268,0.0028 z m -1.02107,-3.070385 c 0.983863,-0.150772 2.096286,-0.621142 2.774108,-1.172964 0.281492,-0.229172 -0.09748,-2.05038 -0.651347,-3.130052 -0.205653,-0.400939 -0.193327,-0.392007 -0.277759,-0.200904 -0.81774,1.848722 -2.132123,3.265595 -3.466095,3.736342 -0.02638,0.0075 -0.02564,0.01886 0.006,0.06936 0.08658,0.138706 0.233394,0.457216 0.278398,0.603916 l 0.04878,0.159063 0.507122,-0.01123 c 0.36223,-0.0075 0.585287,-0.02262 0.780685,-0.05315 z m -1.984837,-1.462257 c 1.483398,-0.643379 2.514312,-1.789657 3.232099,-3.59375 L 17.574983,9.421383 17.354257,9.20578 c -4.795405,-3.8993511 -2.331562,0.632446 -4.23002,3.55994 -0.111687,0.165849 -0.111687,0.165849 -0.03693,0.190349 0.205878,0.06671 0.72853,0.334335 0.872744,0.446923 0.05864,0.04598 0.02224,0.0524 0.246511,-0.04485 z m -2.967649,-0.151525 c 1.225989,-0.213719 1.88817,-1.519625 2.026402,-3.996121 l 0.01395,-0.248019 -2.074834,1.13e-4 C 7.6033339,8.962851 6.7799517,9.012346 4.1243444,9.388968 3.6562515,9.455318 3.2464281,9.51524 3.2136238,9.522019 c -0.079987,0.01507 -0.3711236,-0.174894 2.0556165,1.354983 1.0501724,0.662111 1.5916073,0.992491 1.9697614,1.201875 1.5697833,0.869311 3.0647713,1.290791 3.9998823,1.127732 z M 8.0229299,11.118607 C 7.5513056,11.045485 7.3640332,10.42374 7.7107205,10.08198 8.0927558,9.705428 8.742525,9.977944 8.740244,10.51409 8.738577,10.896107 8.404439,11.177711 8.0229299,11.118607 Z"
       id="path2602" />
    <path
       style="color:#000000;fill:#356859;-inkscape-stroke:none"
       d="M 2.0410156,4.2636719 C 1.8140466,4.1993538 1.4834692,4.2568513 1.328125,4.3359375 1.1645993,4.4193601 1.0008189,4.5426155 0.890625,4.7363281 0.78043111,4.9300408 0.75808974,5.1815477 0.80664063,5.375 0.90374239,5.7619046 1.1452714,5.9671954 1.4121094,6.1621094 c 0.5336759,0.389828 1.3101137,0.6951065 2.2265625,0.8671875 0.2608379,0.048743 0.4450547,0.085677 1.0351562,0.099609 0.5901015,0.013932 1.6433703,0.015899 3.8359375,0.023437 3.3535724,0.011978 3.8316084,0.022027 4.0800784,0.041016 0.0023,0.00767 0.0037,0.00982 0.0059,0.017578 0.02604,0.092587 0.04918,0.1908142 0.06641,0.2675781 0.0086,0.038382 0.01524,0.071778 0.02149,0.099609 0.0024,0.010902 0.0047,0.022406 0.0078,0.035156 C 12.246127,7.5822834 11.831792,7.5456256 10.986328,7.5449219 7.5992408,7.5422796 6.8990961,7.5834882 4.796875,7.8945312 2.9512267,8.167491 2.3321156,8.175456 1.7714844,8.0195313 1.5154796,7.9482199 1.2381924,7.9213314 0.95117188,8.0488281 0.66415136,8.1763248 0.45013323,8.5094567 0.421875,8.8027344 0.420738,8.8145674 0.3618108,8.9725419 0.4492188,9.2226563 c 0.0874079,0.2501143 0.23922088,0.3621289 0.390625,0.4765625 0.3028083,0.228867 0.8112835,0.5354302 1.9335938,1.2363282 0.3991133,0.249228 1.1425557,0.717113 1.6484375,1.037109 0.4548748,0.287787 0.5418693,0.376439 0.5820312,0.419922 0.00966,0.01046 0.085316,0.06646 0.1074219,0.08984 -0.5604716,0.501614 -1.1061713,1.038295 -1.4101562,1.582031 -0.1912762,0.342134 -0.3291978,0.667454 -0.3632813,1.023438 -0.017042,0.177991 -0.0072,0.374134 0.078125,0.574218 0.085321,0.200085 0.2646338,0.388797 0.4707032,0.482422 h 0.00195 c 0.2605137,0.118112 0.6378491,0.127753 0.9101562,-0.04297 0.2723072,-0.170721 0.4060943,-0.429442 0.486328,-0.687499 0.1720152,-0.553243 0.7616928,-1.29999 1.5859375,-1.933594 0.054349,0.03528 0.1045843,0.06742 0.1660157,0.107422 0.00122,7.94e-4 0.00269,0.0012 0.00391,0.002 -0.3457517,0.389899 -0.6964634,0.794608 -0.921875,1.208984 -0.1498887,0.275542 -0.2679048,0.540365 -0.3378906,0.802735 -0.069986,0.262369 -0.1581085,0.557571 0.085937,0.919921 0.2121952,0.314846 0.6840191,0.527315 1.0683594,0.398438 0.3843403,-0.128877 0.5986183,-0.45168 0.6992187,-0.798828 0.063958,-0.220697 0.380776,-0.803318 0.7539063,-1.214844 0.261212,-0.288091 0.4431339,-0.328097 0.625,-0.400391 -0.1381857,0.206649 -0.3347519,0.397126 -0.4355469,0.601563 -0.1257699,0.255092 -0.2207492,0.500474 -0.2695312,0.751953 -0.048782,0.251479 -0.092516,0.558738 0.1601562,0.875 0.067747,0.08473 0.1803932,0.139016 0.2773438,0.205078 -0.2426367,-0.05085 -0.1635234,-0.05566 -0.453125,-0.115234 h -0.00195 c -0.2542392,-0.05272 -0.4407333,-0.07353 -0.609375,-0.06836 h -0.00391 -0.00391 c -0.4332385,0.01967 -0.829298,0.36429 -0.9589845,0.712891 -0.1296863,0.348601 -0.114185,0.696199 -0.044922,1.042969 0.1046791,0.524082 0.4039365,1.026865 0.8203125,1.441406 1.388771,0.961642 2.4659566,0.995497 4.542967,1.376949 0.08988,-0.06156 0.05484,-0.03278 0,-0.01953 -0.05484,0.01324 -0.0036,0.0027 0.15625,0.0039 5.544432,0.04229 9.53144,-5.067754 7.884766,-10.18164 C 18.942199,8.679652 16.630683,6.8083995 14.51954,5.8691786 l -0.01172,-0.00391 -0.01172,-0.00391 C 14.147254,5.7374469 13.654465,5.5309271 12.742188,5.3769531 11.82991,5.2229791 10.483971,5.109171 8.28125,5.1015625 6.3384521,5.0947766 5.3517677,5.0910918 4.8300781,5.0839844 4.3083885,5.076877 4.3147584,5.0730561 4.1953125,5.0527344 3.5199011,4.9376822 3.0850148,4.7936261 2.6992188,4.5761719 2.4331808,4.4262193 2.2679846,4.32799 2.0410156,4.2636719 Z M 14.839844,8.2656247 c -0.0085,0.00871 -0.104321,0.014104 0,0.03125 0.196452,0.032289 0.952842,0.4578974 2.011718,1.2949219 -0.663314,1.6375254 -1.543391,2.6010944 -2.830078,3.1777344 -0.0782,-0.04734 -0.160238,-0.08351 -0.240234,-0.123047 0.812157,-1.584062 0.795555,-3.3539474 0.957031,-4.0937499 0.04416,-0.2023062 0.110034,-0.2958175 0.101563,-0.2871094 z M 11.205078,9.5625 h 1.38086 c -0.08907,0.935282 -0.226176,1.759694 -0.460938,2.222656 -0.275408,0.543118 -0.560965,0.755587 -0.988281,0.830078 C 10.48059,12.729646 9.0297461,12.385603 7.5292969,11.554688 7.1728066,11.357299 6.6374829,11.029654 5.5898437,10.369141 5.1692927,10.104015 5.1850807,10.111602 4.9121094,9.9394531 5.6864718,9.8351114 6.6192896,9.8463017 7.2539062,9.7988281 6.7267427,10.489186 7.0314255,11.571366 7.9316406,11.710938 8.6504598,11.822298 9.3366557,11.248165 9.3398438,10.517578 9.3414239,10.146159 9.0556305,9.9252741 8.8027344,9.7070313 9.5590003,9.6848393 9.9704368,9.5625909 11.205078,9.5625 Z m 6.800781,1.898438 c 0.132265,0.362461 0.286758,0.713531 0.359375,1.0625 0.0592,0.284497 0.09234,0.542155 0.0957,0.703125 9.2e-5,0.0044 -4e-5,0.0036 0,0.0078 -0.576429,0.431019 -1.538788,0.866137 -2.361328,0.992188 l -0.01953,0.0039 c -0.154387,0.02333 -0.339841,0.03589 -0.68164,0.04297 l -0.05469,0.002 c 0.0093,0.0081 0.04821,0.01669 -0.05078,-0.01758 1.069583,-0.551802 1.983772,-1.533548 2.71289,-2.796875 z m -5.488281,2.800781 c 0.890191,0.313002 1.163786,0.914604 1.06836,1.611328 -0.0965,0.704566 -0.6559,1.488656 -1.722657,1.855469 -0.415044,-0.191743 -1.47774,-0.413615 -2.6171872,-0.66211 0.1077849,-0.0034 0.2168568,0.0313 0.3105468,-0.0078 0.3794711,-0.158412 0.5503654,-0.470585 0.6640624,-0.802735 0.245087,-0.716027 0.934719,-1.197492 1.90625,-1.763671 0.138705,-0.0809 0.260504,-0.152798 0.390625,-0.230469 z m 5.490234,1.449219 c -0.270077,0.621825 -0.65023,1.195433 -1.130859,1.640624 -0.0587,-0.01219 -0.03568,-0.0092 -0.189453,-0.04687 -0.213417,-0.05236 -0.675941,-0.228511 -1.039062,-0.398437 -0.104934,-0.04911 -0.172173,-0.08872 -0.25586,-0.132813 0.05017,-0.158765 0.0967,-0.315917 0.126953,-0.484375 -0.0071,-0.01722 -0.0011,0.0039 0.0059,-0.02148 0.0024,-0.01087 0.02213,-0.0026 0.0332,-0.0039 0.876237,-0.02254 1.685922,-0.234332 2.449218,-0.552734 z m -6.132812,2.017578 0.01758,0.0078 c -0.0037,-0.0017 -0.01973,-0.0041 -0.02344,-0.0059 z m 2.503906,0.703125 c 0.10256,0.06293 0.193584,0.136605 0.310547,0.197265 -0.388261,0.157669 -0.775318,0.314928 -1.199219,0.396485 0.307529,-0.187335 0.638237,-0.352237 0.888672,-0.59375 z m -4.894531,0.671875 c 0.030199,0.0064 0.064616,0.01337 0.09375,0.01953 0.811046,0.171692 1.264938,0.307861 1.392578,0.375 -1.7e-5,0.0094 -0.0011,-0.0094 -0.002,0.0059 -0.0077,0.132621 0.01,0.149204 -0.298828,0.310547 -0.169423,0.08851 -0.661129,0.186002 -1.0156251,0.28125 0.045676,-0.106414 0.1894025,-0.133283 0.1953125,-0.271484 0.011053,-0.258483 -0.1251304,-0.53451 -0.3007813,-0.689453 -0.01973,-0.01741 -0.044263,-0.01581 -0.064453,-0.03125 z"
       id="path2604" />
  </g>
  <g
     id="path_0-3">
    <path
       style="color:#000000;fill:#000000;fill-opacity:0;fill-rule:evenodd;stroke-width:2;stroke-linecap:round;-inkscape-stroke:none"
       d="m 21,12 c 0,4.97 -4.029,9 -9,9 -4.97,0 -9,-4.03 -9,-9 0,-4.9709999 4.03,-8.9999998 9,-8.9999998 4.971,0 9,4.0289999 9,8.9999998 z"
       id="path25859" />
    <path
       id="path25861"
       style="color:#000000;fill:#ff5722;fill-rule:evenodd;stroke-linecap:round;-inkscape-stroke:none"
       d="M 12 2 C 10.376034 2 8.8422254 2.3930091 7.484375 3.0839844 A 8.1251993 9.0811052 0 0 1 8.6523438 4.7304688 C 9.6702784 4.2626974 10.803136 4 12 4 C 16.430658 4 20 7.5693429 20 12 C 20 16.429549 16.430524 20 12 20 C 9.5853903 20 7.4277749 18.936737 5.9628906 17.253906 A 8.1251993 9.0811052 0 0 1 4.1542969 18.185547 C 5.9878401 20.505478 8.8229053 22 12 22 C 17.511457 22 22 17.510431 22 12 C 22 6.4886772 17.511322 2 12 2 z " />
  </g>
</svg>
