<svg id="vector" xmlns="http://www.w3.org/2000/svg" width="24" height="24" viewBox="0 0 24 24"><path fill="#1D1D00" d="M9.075,22.2L8.675,18.95C8.475,18.867 8.296,18.775 8.137,18.675C7.979,18.575 7.817,18.467 7.65,18.35L4.625,19.65L1.675,14.575L4.3,12.575V11.425L1.675,9.425L4.625,4.375L7.675,5.65C7.825,5.533 7.983,5.425 8.15,5.325C8.317,5.225 8.492,5.142 8.675,5.075L9.075,1.8H14.925L15.325,5.075C15.525,5.142 15.704,5.225 15.863,5.325C16.021,5.425 16.183,5.533 16.35,5.65L19.375,4.375L22.325,9.425L19.675,11.425C19.692,11.525 19.7,11.621 19.7,11.712V12.287C19.7,12.379 19.683,12.475 19.65,12.575L22.3,14.575L19.35,19.65L16.325,18.35C16.175,18.467 16.017,18.575 15.85,18.675C15.683,18.775 15.508,18.867 15.325,18.95L14.925,22.2H9.075ZM12.025,15.5C12.992,15.5 13.817,15.158 14.5,14.475C15.183,13.792 15.525,12.967 15.525,12C15.525,11.033 15.183,10.208 14.5,9.525C13.817,8.842 12.992,8.5 12.025,8.5C11.058,8.5 10.233,8.842 9.55,9.525C8.867,10.208 8.525,11.033 8.525,12C8.525,12.967 8.867,13.792 9.55,14.475C10.233,15.158 11.058,15.5 12.025,15.5ZM12.025,13.5C11.608,13.5 11.254,13.354 10.963,13.062C10.671,12.771 10.525,12.417 10.525,12C10.525,11.583 10.671,11.229 10.963,10.938C11.254,10.646 11.608,10.5 12.025,10.5C12.442,10.5 12.796,10.646 13.088,10.938C13.379,11.229 13.525,11.583 13.525,12C13.525,12.417 13.379,12.771 13.088,13.062C12.796,13.354 12.442,13.5 12.025,13.5ZM11.075,19.925H12.9L13.25,17.3C13.783,17.167 14.275,16.967 14.725,16.7C15.175,16.433 15.583,16.108 15.95,15.725L18.425,16.75L19.325,15.175L17.175,13.55C17.258,13.317 17.321,13.067 17.363,12.8C17.404,12.533 17.425,12.267 17.425,12C17.425,11.733 17.404,11.467 17.363,11.2C17.321,10.933 17.258,10.683 17.175,10.45L19.325,8.825L18.425,7.25L15.95,8.3C15.583,7.9 15.175,7.567 14.725,7.3C14.275,7.033 13.783,6.833 13.25,6.7L12.925,4.075H11.075L10.75,6.7C10.217,6.833 9.725,7.033 9.275,7.3C8.825,7.567 8.408,7.892 8.025,8.275L5.575,7.25L4.675,8.825L6.8,10.425C6.717,10.675 6.654,10.929 6.613,11.188C6.571,11.446 6.55,11.717 6.55,12C6.55,12.267 6.571,12.529 6.613,12.787C6.654,13.046 6.717,13.308 6.8,13.575L4.675,15.175L5.575,16.75L8.025,15.725C8.408,16.108 8.825,16.433 9.275,16.7C9.725,16.967 10.217,17.167 10.75,17.3L11.075,19.925Z" id="path_0"/></svg>