<?xml version="1.0" encoding="UTF-8" standalone="no"?>
<svg
   id="vector"
   width="24"
   height="24"
   viewBox="0 0 24 24"
   version="1.1"
   xmlns="http://www.w3.org/2000/svg"
   xmlns:svg="http://www.w3.org/2000/svg">
  <defs
     id="defs23442" />
  <g
     id="path_0">
    <path
       style="color:#000000;fill:#000000;fill-opacity:0;fill-rule:evenodd;stroke-width:2;stroke-linecap:round;-inkscape-stroke:none"
       d="m 21,12 c 0,4.97 -4.029,9 -9,9 -4.97,0 -9,-4.03 -9,-9 0,-4.971 4.03,-9 9,-9 4.971,0 9,4.029 9,9 z"
       id="path24217" />
    <path
       id="path24219"
       style="color:#000000;fill:#ff5722;fill-rule:evenodd;stroke-linecap:round;-inkscape-stroke:none"
       d="M 3.3046875 7.0742188 C 2.4763502 8.5297249 2 10.20995 2 12 C 2 17.510565 6.4894342 22 12 22 C 17.511457 22 22 17.510431 22 12 C 22 10.783249 21.781124 9.6168737 21.380859 8.5371094 A 9.8209982 9.0054741 0 0 1 19.861328 10.515625 C 19.951057 10.99681 20 11.492099 20 12 C 20 16.429549 16.430524 20 12 20 C 7.5705856 20 4 16.429415 4 12 C 4 11.060601 4.161848 10.160382 4.4570312 9.3242188 A 9.8209982 9.0054741 0 0 1 3.3046875 7.0742188 z " />
  </g>
  <path
     style="fill:#356859;fill-opacity:1;stroke:#356859;stroke-width:0.805383;stroke-dasharray:none;stroke-opacity:1"
     d="M 11.149291,21.258443 C 10.472546,21.182489 10.10012,21.28485 9.7506257,20.867357 9.4733392,20.53613 9.3880818,20.377982 9.2206749,19.884367 8.4997469,17.758688 7.5704115,16.5202 5.8078826,15.336281 3.8862316,14.045474 3.2296736,12.714716 3.7809354,11.227903 3.9468252,10.780494 3.9525642,10.806346 3.616817,10.488814 2.1857812,9.1353446 2.3780535,6.8137033 4.0087553,5.7563068 4.3971082,5.504491 4.3656869,5.5717891 4.3670979,4.988809 4.371341,3.1113514 5.8334162,2.1279785 7.7015704,2.7456682 8.1125929,2.881569 8.088364,2.8867774 8.2286669,2.6325328 c 1.5610813,-2.82882674 5.7534661,-2.83092714 7.4663061,-0.00425 0.152246,0.2512956 0.137237,0.2461084 0.415731,0.1438779 1.943546,-0.7134282 3.759753,0.5466366 3.481778,2.4156076 -0.04275,0.2871513 -0.02048,0.3277169 0.280818,0.5137089 1.79552,1.1081566 1.99089,3.5807921 0.384588,4.8672088 -0.240158,0.192327 -0.242078,0.205789 -0.0927,0.648145 0.540019,1.599581 -0.08794,2.839935 -2.133855,4.214822 -1.731107,1.163341 -2.506213,2.190831 -3.226323,4.276856 -0.101206,0.293325 -0.227394,0.612226 -0.280308,0.708676 -0.516034,0.940485 -1.489497,0.99312 -2.847199,0.840754 z m 1.185867,-0.706498 c 0.788076,-0.112256 1.052856,-0.357281 1.00692,-0.931807 -0.323195,-4.042447 -0.18529,-7.160196 0.383942,-8.680002 0.435485,-1.162714 1.825998,-3.3517215 2.700988,-4.2520117 0.578111,-0.5948292 1.422624,-0.00848 0.928952,0.6454513 -0.05356,0.070863 -0.255455,0.3274726 -0.448639,0.5701653 -1.091479,1.3711847 -1.645446,2.2366921 -2.126705,3.3227491 -0.07001,0.158116 -0.121072,0.287483 -0.113338,0.287483 0.0075,0 0.08475,-0.06545 0.171269,-0.145544 0.766839,-0.709959 2.115939,-1.192725 2.496526,-0.893363 0.395895,0.31141 0.17915,0.776291 -0.477111,1.023313 -0.789031,0.296995 -1.629937,0.917528 -2.056926,1.517896 -0.607739,0.854494 -0.66113,1.334162 -0.509305,4.574921 0.02027,0.433513 0.02133,0.434415 0.155069,0.137484 0.546647,-1.213761 1.409109,-2.144063 2.891594,-3.119044 1.375958,-0.904915 1.926731,-1.593744 1.919285,-2.400363 -0.0022,-0.264144 -0.03001,-0.367403 -0.239669,-0.89587 C 18.805148,10.776696 18.93155,10.380451 19.496564,9.813129 20.577201,8.7281086 20.471852,7.3639253 19.246763,6.5784467 18.615941,6.1739911 18.424007,5.7847788 18.501968,5.0681471 18.68832,3.3552003 16.818809,3.1709373 14.982659,4.7212615 13.049731,6.3533002 11.457175,9.929001 11.85009,11.754648 c 0.02694,0.125029 0.100673,0.437916 0.164002,0.695311 0.386729,1.572814 0.345921,2.225023 -0.317088,5.067691 -0.06515,0.27946 -0.424942,1.624036 -0.464404,1.815236 -0.152185,0.737415 -0.646693,1.034145 -1.134506,0.680778 L 9.99276,19.937404 9.97421,20.13552 c -0.08975,0.957565 1.092862,0.597073 2.360947,0.416449 z m -1.506418,-4.24013 0.325042,-1.602124 0.0022,-0.588327 c 0.0022,-0.652378 -0.01665,-0.796659 -0.19801,-1.537689 C 10.664731,11.385772 10.657974,10.889355 10.917442,9.60189 11.354415,7.4330481 10.449404,5.596209 8.2821955,4.2534327 6.5881948,3.2038438 5.4646354,3.5341276 5.462185,5.0824152 5.4611242,5.9367616 5.362999,6.1514276 4.8003761,6.5344019 3.4774476,7.4349044 3.357788,8.7165146 4.4939499,9.816238 c 0.527213,0.510303 0.6670705,0.918227 0.4812373,1.403569 -0.3406903,0.889769 -0.3583741,1.15356 -0.1126586,1.680127 0.2864618,0.613871 0.7182866,1.01278 1.985724,1.834315 0.9506685,0.616216 1.6001616,1.232059 2.0705788,1.963288 C 9.2531994,17.217294 8.7505336,16.007479 8.265127,15.124203 8.1317511,14.881511 7.8935882,14.466341 7.7358772,14.201594 6.1822008,11.593459 5.917178,10.330508 6.4128424,7.8966655 6.5662042,7.1435735 6.7255489,6.9401627 7.1608744,6.9417433 7.655213,6.9438649 7.7835607,7.2799939 7.5648955,8.0007841 7.2674861,8.9811656 7.1999653,9.761787 7.347832,10.510422 c 0.075423,0.381617 0.07118,0.379262 0.1856316,0.10386 C 8.0536328,9.3628206 8.8650058,8.7168386 9.349309,9.1685966 9.6385389,9.438393 9.5769914,9.765261 9.1544061,10.203588 8.2313721,11.161004 7.9649065,12.352149 8.4777457,13.228296 9.6003501,15.146159 9.930942,17.4848 10.163821,18.6583 c 0.02557,0.129071 0.05093,0.230272 0.05633,0.224895 0.0053,-0.0053 0.430183,-1.690221 0.608962,-2.571384 z M 12.400407,5.9916586 C 12.978582,5.0854915 13.918906,4.0828753 14.668435,3.573399 14.86564,3.4393546 14.861344,3.460825 14.735264,3.2397735 13.495875,1.0662112 10.454655,1.0414625 9.2274419,3.1949009 9.0806362,3.4525086 9.0764353,3.4346127 9.3247194,3.6086283 c 1.1934046,0.8362384 2.3114786,2.2531761 2.5528866,3.2352975 0.0174,0.070756 0.03194,0.050813 0.185494,-0.254054 0.09167,-0.1819508 0.243393,-0.4511637 0.337244,-0.5982453 z"
     id="path23425" />
  <g
     id="path23939">
    <path
       style="color:#000000;fill:#000000;fill-opacity:0;fill-rule:evenodd;stroke-width:2;stroke-linecap:round;-inkscape-stroke:none"
       d="m 21,12 c 0,4.97 -4.029,9 -9,9 -4.97,0 -9,-4.03 -9,-9 0,-4.971 4.03,-9 9,-9 4.971,0 9,4.029 9,9 z"
       id="path23995" />
    <path
       id="path23997"
       style="color:#000000;fill:#ff5722;fill-opacity:1;fill-rule:evenodd;stroke-linecap:round;-inkscape-stroke:none"
       d="M 2.453125 14.976562 C 3.7243178 19.039747 7.5254887 22 12 22 C 16.475235 22 20.275878 19.039708 21.546875 14.976562 L 19.429688 14.976562 C 18.25273 17.924995 15.377318 20 12 20 C 8.6235283 20 5.7475289 17.924973 4.5703125 14.976562 L 2.453125 14.976562 z " />
  </g>
</svg>
