<?xml version="1.0" encoding="UTF-8" standalone="no"?>
<svg
   id="vector"
   width="24"
   height="24"
   viewBox="0 0 24 24"
   version="1.1"
   xmlns="http://www.w3.org/2000/svg"
   xmlns:svg="http://www.w3.org/2000/svg">
  <defs
     id="defs8" />
  <g
     id="g540">
    <path
       style="color:#000000;fill:#000000;fill-opacity:0;fill-rule:evenodd;stroke-width:2;stroke-linecap:round;-inkscape-stroke:none"
       d="m 21,12 c 0,4.97 -4.029,9 -9,9 -4.97,0 -9,-4.03 -9,-9 0,-4.971 4.03,-9 9,-9 4.971,0 9,4.029 9,9 z"
       id="path536" />
    <path
       style="color:#000000;fill:#ff5722;fill-rule:evenodd;stroke-linecap:round;-inkscape-stroke:none"
       d="M 12,2 C 6.4895629,2 2,6.4885375 2,12 2,17.510571 6.4894287,22 12,22 Z m 0,18 C 7.5705812,20 4,16.429419 4,12 4,7.5694725 7.5704471,4 12,4 Z"
       id="path538"
       class="UnoptimicedTransforms" />
    <path
       id="path548"
       d="M 12,22 C 17.511463,22 22,17.510437 22,12 22,6.4886716 17.511328,2 12,2 Z M 12,4 c 1.187671,0 2.312488,0.2560098 3.324219,0.7167969 C 15.467787,4.7821839 17.02133,3.7859084 17.160156,3.859375 17.340702,3.95492 16.105398,5.1237917 16.277344,5.2324219 18.517262,6.6475359 20,9.1447259 20,12 c 0,4.429553 -3.569472,8 -8,8 z"
       style="color:#000000;display:inline;fill:#ff5722;fill-rule:evenodd;stroke-linecap:round;-inkscape-stroke:none"
       class="UnoptimicedTransforms" />
  </g>
  <g
     id="g556"
     style="display:inline;fill:#ffff00">
    <path
       id="path552"
       d="m 3,12 c 0,4.97 4.03,9 9,9 4.971,0 9,-4.03 9,-9 z"
       style="color:#000000;fill:#ffff00;fill-opacity:0;fill-rule:evenodd;stroke-width:2;stroke-linecap:round;-inkscape-stroke:none" />
  </g>
  <g
     transform="matrix(0.00527527,0,0,-0.00527527,3.0137162,20.335688)"
     style="fill:#2b6851;fill-opacity:1;stroke:none"
     id="g8">
    <path
       id="path6"
       style="fill:#2b6851;fill-opacity:1"
       d="M 3375.8555 3576.8579 C 3368.8555 3594.8579 3352.994 3592.8302 3189.9942 3549.8302 C 3109.9943 3528.8303 2940.9392 3491.1556 2814.9393 3466.1556 C 2493.9397 3403.1557 2442.933 3384.0727 2299.9331 3278.0728 C 2096.9333 3127.073 1954.9786 2835.1704 1955.9786 2570.1707 C 1956.9786 2469.1708 1971.9301 2397.1501 1988.9301 2416.1501 C 1992.9301 2421.1501 2006.9197 2449.8317 2018.9197 2479.8317 C 2079.9196 2626.8315 2257.0438 2850.8831 2408.0437 2971.8829 C 2485.0436 3033.8829 2639.815 3094.9624 2639.815 3062.9624 C 2639.815 3051.9624 2586.9293 2986.049 2523.9294 2920.0491 C 2464.9294 2857.0492 2444.9952 2831.1358 2333.9954 2670.1359 C 2218.9955 2501.1361 2068.8262 2199.0225 1967.8263 1930.0228 C 1869.8264 1669.023 1798.1241 1461.0546 1750.1242 1305.0547 C 1669.1243 1038.055 1596.1451 827.00003 1583.1452 823.00003 C 1567.1452 817.00004 1522.9757 960.05162 1430.9758 1315.0513 C 1287.976 1871.0507 1227.0973 2061.8564 1081.0974 2409.856 C 981.0975 2646.8558 848.90058 2837.1252 580.90084 3128.1249 C 433.90099 3289.1248 224.84601 3443.038 98.846135 3485.0379 C 16.846217 3513.0379 9.8185519 3498.8719 71.81849 3429.8719 C 363.8182 3100.8723 532.96659 2856.8209 711.96641 2509.8213 C 862.96626 2214.8216 966.88641 1921.8881 1155.8862 1249.8887 C 1203.8862 1077.8889 1309.969 640.15951 1343.969 470.15968 C 1379.9459 291.22217 1416.7898 131.21502 1430.2353 88.440473 C 1518.8927 72.400339 1610.0806 63.634278 1703.4737 63.634278 C 1704.8412 63.634278 1706.1797 63.630692 1707.5464 63.634278 C 1754.3132 80.698835 1766.9521 117.34496 1836.0203 570.12494 C 1884.0202 889.12462 1925.072 1080.0342 2007.0719 1365.0339 C 2146.0718 1851.0334 2293.9781 2207.0916 2383.978 2265.0915 C 2396.978 2273.0915 2461.0021 2288.8942 2528.002 2299.8942 C 2788.0018 2342.8942 2996.8249 2457.887 3144.8247 2640.8868 C 3243.8246 2762.8867 3270.1429 2852.9314 3295.1428 3152.9311 C 3308.1428 3311.931 3315.866 3357.0865 3345.866 3452.0864 C 3364.8659 3514.0864 3377.8555 3569.8579 3375.8555 3576.8579 z " />
  </g>
</svg>
