<svg xmlns="http://www.w3.org/2000/svg" width="200" height="180" viewBox="0 0 200 180"><path fill="#ac611e" d="M88.8 72c3.4.9 6 2.5 8.5 5l.5.4c2.6 2.7 3.7 6.5 4.5 10 .4-.5.7-1.1 1-1.8.6-1.3 1.4-2.4 2.4-3.5l.4-.4c1.1-1.2 3-2.8 4.8-3h.8c.6 0 .9.2 1.3.6 1 3 .5 6.7-.9 9.5l.5-.5a149.5 149.5 0 0 1 1-1c3.5-3.3 7.7-4.4 12.5-4.4a15 15 0 0 1 9.3 3.9c.5.7.5 1 .3 2l-1.1 1.4-.4.3a28.3 28.3 0 0 1-6 4.5l.7.3c3.4 1.9 9 5.2 10.3 9.1h.7a7256 7256 0 0 1 40.1-.1c3 0 5.6.2 7.9 2.4 1.7 2.1 2 4 1.9 6.7-.5 3-2.9 4.5-5 6.2-1 .8-1.8 1.6-2 2.8a4 4 0 0 0 1 3.3c1 1.1 2.3 2 3.7 2.8 3 1.9 5 4.5 5.8 8 .6 3.7-.3 7.3-2.5 10.4-5.1 6.5-13.7 8.4-21.4 10-7.6 1.4-7.6 1.4-13.4 6.1l-.8 1.2a27 27 0 0 1-3.6 4.6l-.3.4c-5.3 5.7-15 7.7-22.4 8.2a69.8 69.8 0 0 1-23-2.6c-2.3-.5-4.4-1-6.6-1.3h-.5c-7.8-1-15.7 0-23.4 1.5a53.4 53.4 0 0 1-11.7 1.1c-4.3 0-8.1-.6-11.3-3.7l-1.4-1.5c-2.3-2.4-5-2.8-8.3-3.2-3.5-.4-7-1.1-9.5-3.9a11 11 0 0 1-2-4.7c-.2-2-.6-3.6-2.2-5-2.7-1.8-5.9-2-9-2.4-4.2-.5-8.4-1.3-11.2-4.8a12 12 0 0 1-2.2-9 9.7 9.7 0 0 1 2.6-4.5l.4-.4c1-1.2 2.3-2.2 3.6-3.1l.4-.3.3-.3c1.1-.9 1.8-1.6 2-3 .2-2.8-1.3-4.7-2.8-6.8a9 9 0 0 1-1.6-6.3c.6-2.7 2-5 4.3-6.6 2.4-1.6 5.7-2.2 8.4-2.2h2a1401.2 1401.2 0 0 0 29.3 0h1c2 .2 2 .2 3.7-.7l1.1-1.6c7.1-8.7 18.4-11.4 29-12.5l2.5-.2-.4-.3a14.7 14.7 0 0 1-6.5-9.7c-.3-2.2-.5-5 .9-7 .7-.5 1.1-.4 2-.4Z"/><path fill="#dbe99d" d="M176.2 4c1.4 1 2.5 2.4 2.9 4.1.1 2 .1 3.7-.9 5.4-1.5 1.8-3.3 3.5-5 5.2a832.9 832.9 0 0 0-11.4 11.6L160 32l-.4.4-1 1 .5.6a19 19 0 0 1 2.5 5.9l.2.5c.6 2.5.8 5 .8 7.6v.4c0 1.9 0 3.7-.3 5.5-.6 4.4.1 9 2.8 12.7 1.9 2.2 4 4 6.2 5.7a36 36 0 0 1 2.8 2.4l.5.4a24.2 24.2 0 0 1 6.7 16.2c0 4.2-1 9.6-2.9 13.5a2974.3 2974.3 0 0 1-36.6.2c-2.8 0-2.4.1-3.5-.6-.5-.6-.9-2-1.3-2.6-2.3-3-5.7-5-9-7l1.9-1.2c2-1.2 5.2-3.2 5.8-5.6-.3-1.3-1-1.8-2.1-2.5-3.7-2.3-8-3-12.3-2.3-3.4.9-6.3 2.8-8.7 5.3l-.7.4.2-.4c1.1-3 1.6-6.2.7-9.3-.8-.5-1.4-.6-2.4-.4a14 14 0 0 0-7.1 7l-.8 2.7h-.2l-.1-.4c-1-4.6-2.3-8.4-5.7-11.9L96 76c-2-2-5.4-3.5-8.2-3.8-.7.1-.7.1-1.1.6-1.5 2.6-1 6-.2 8.6 1.1 3.4 3.1 6.2 6.3 7.9l.4.2v.2h-.6a48 48 0 0 0-28.2 9.5l-.5.4a19 19 0 0 0-4 4.5c-.4.4-.4.4-1 .5h-2.2a351 351 0 0 0-3.3 0h-2.6a1277.6 1277.6 0 0 1-21.3 0l-.2-.8-.3-1v-.4c-1.1-4.2-2.5-8.1-4.1-12.1a71.3 71.3 0 0 1-3.6-11.4l-.1-.4c-.7-3.3-.8-6.4-.8-9.7V68a33 33 0 0 1 1-9.8A31 31 0 0 1 28.2 45l.4-.5c.8-1 1.8-1.9 2.8-2.7l.5-.4c1.4-1.3 3-2.3 4.6-3.2l.7-.4c3-1.8 3-1.8 3.6-1.8l-.8-2.8-.2-.8c-.5-1.5-.9-2.3-2.2-3l-.7-.4c-1.7-.8-2.3-2.5-3-4.1-.7-2.4 10.4.6 11.5-1.5 3-5.6 3.7-2.8 9.6-4.5 3-.8 1.1-12 3.9-10.4a8.4 8.4 0 0 1 3.5 4.5l.1 1.9v.7c0 .7 0 .7-.2 1l.1 1 .4.3.3.5.4.5.7 1 .5.6 1.8 2.4.3.5a242.2 242.2 0 0 1 4 5.9 4 4 0 0 0 2.8 2.2c8.6 2.2 16 .4 23.6-4l3-2 5.7-3.5 1.4-.9A43 43 0 0 1 119 16l.4-.2c2.7-.6 5.4-.8 8-.8h.6c7.5 0 14.8 2.6 20.6 7.6l-.9 1.5a6465.8 6465.8 0 0 0 14.1-14.4l.4-.4a519 519 0 0 1 1.7-1.6C167.3 4 171.4 1 176.2 4Z"/><path fill="#e29f1e" d="M92.6 93c1.8.7 3.7 1 5.6 1.2a4 4 0 0 1 3 1.6A8 8 0 0 1 103 99c.3.3.3.3.9.2.6 0 .6 0 1-.4l.1-1c0-1 .3-1.6 1-2.3 2.3-1.9 2.3-1.9 3.5-1.9l1.5.6a21 21 0 0 0 12.8 2c2.7-.3 5.5 2.1 7.5 3.6l.6.4c5 3.9 8.6 9.4 9.5 15.7.4 5.6-.3 11-4 15.4l-.5.5-.4.4c-5.3 5.7-14 7.4-21.3 8.2h-.5c-4.8.7-9.6.7-14.4.7H98c-20.3.1-20.3.1-27.3-4.2-.3-.5-.3-.5-.3-1-.4-1.5-1-2.5-2.3-3.4a3 3 0 0 0-2-.5l-1.6.7c-.4.2-.4.2-.8 0a15.7 15.7 0 0 1-6-10.2c-.3-3.1-.1-6.1.6-9.2l.2-.7A25 25 0 0 1 69.7 98c4.4-2.6 18.2-8.7 23-5Z"/><path fill="#fbf2ce" d="m142 109.4 6.7 1.8.4.1c4.3 1.4 8.4 3 12.4 5.1l.4.3c5.2 2.7 11.3 6.7 13 12.6l.2.4a11 11 0 0 1-1.3 8.3c-.6 1-1.4 2-2.2 2.9l-.5.5a34.8 34.8 0 0 1-9 6.4l-.4.2a117 117 0 0 1-49.9 11.5c-16.3 1.2-30.2 5.6-64.1-5.9a96.4 96.4 0 0 1-19.8-10.1c-2.5-2.2-3.6-5-4.3-8.4l-.2-.5-.1-2.1v-.9c.2-3.7 2.6-7 5.3-9.5l2.7-2 .3-.3a61 61 0 0 1 16.7-8h.5l5.4-1.8.5-.1c.7-.2 1.3-.3 2.1-.3l-.1.4-.9 3.3-.2.6a23.3 23.3 0 0 0 2.9 17.1c.6.9 1.3 1.6 2 2.4.4.4.4.4.4.8a905.2 905.2 0 0 1-5 2.2l-.4.2c-.6.3-1 .4-1.7.4l.3-.5c1-2 .8-4.6.2-6.6a8.4 8.4 0 0 0-3-4.2c-.6-.2-.6-.2-1.2 0-.6.6-1 1-1.2 1.9h-.5l-.6-.8c-1.6-1.9-4-3-6.4-3.5h-2c-.6 0-.6 0-1 .3-.7 1-.5 2.3-.5 3.4l.4 1.6v.5c.7 2.2 1.9 4 3.5 5.6h-.5c-1.8.3-1.8.3-3.4 1-.3.7-.3 1-.2 1.8 1.5 2.3 4.3 3.5 6.9 4.2h3.2l.2.6c1 3 2.8 5.1 5.5 6.6a14 14 0 0 0 10.8.4 10 10 0 0 0 5.8-4.6c.6-1.5.8-3 1-4.7l.4.2a92 92 0 0 0 28.1 3.5h.5a98 98 0 0 0 20.4-1.5l.7-.2a34 34 0 0 0 15.8-7l.6-.5c3.7-3.5 5.8-8.8 6.1-13.8.1-3.6 0-7.1-1.6-10.4l-.1-.8Z"/><path fill="#824405" d="M88.8 72c3.4.9 6 2.5 8.5 5l.5.4c2.6 2.7 3.7 6.5 4.5 10 .4-.5.7-1.1 1-1.8.6-1.3 1.4-2.4 2.4-3.5l.4-.4c1.1-1.2 3-2.8 4.8-3h.8c.6 0 .9.2 1.3.6 1 3 .5 6.7-.9 9.5l.5-.5.6-.6.4-.4c3.5-3.3 7.7-4.4 12.5-4.4a15 15 0 0 1 9.3 3.9c.5.7.5 1 .3 2l-1.1 1.4-.4.3a28.3 28.3 0 0 1-6 4.5l.7.3c3.4 1.9 9 5.2 10.3 9.1v.5l.4-.3 1 1.8v.4h.5c2.1.4 4.2 1 6.2 1.5l.6.1c10 2.8 22.9 7.7 28.4 17.2 1.9 3.5 2.5 6.8 1.3 10.6a17 17 0 0 1-3.5 6l-.3.3a40 40 0 0 1-10.2 7.6l-.4.3a80 80 0 0 1-21.5 7.7h-.4c-4.6 1.2-9.2 2-14 2.7l-.4.1a201.3 201.3 0 0 1-29.4 1.7c-6.2 0-12.4-.2-18.6-.9h-.5c-5.5-.6-11-1.5-16.5-2.6l-.7-.1a100.2 100.2 0 0 1-22.5-7.1c-6.8-2.8-14.3-7.5-17.3-14.4a13.9 13.9 0 0 1 2.8-14.2l.4-.5a56.2 56.2 0 0 1 33.7-16l.2-.5.7-1.4-34.6-.3v-.2h.6a2268.7 2268.7 0 0 0 31.5 0c1.8.1 1.8.1 3.5-.7l1.1-1.6c7.1-8.7 18.4-11.4 29-12.5l2.5-.2-.4-.3a14.7 14.7 0 0 1-6.5-9.7c-.3-2.2-.5-5 .9-7 .7-.5 1.1-.4 2-.4Zm-25 31a25.5 25.5 0 0 0-6.1 18.8c.4 4.6 2.7 8.1 6 11.2l1.8-.7c.8-.3 1.4-.3 2.2 0 1.5 1 2.3 2 2.8 3.7v.5c.2.6.2.6.7.8l2.1.8.5.2a77.7 77.7 0 0 0 26.9 2.9c4.8 0 9.6 0 14.4-.7h.4a35 35 0 0 0 21-8.4l.5-.4c2.3-2.4 3.4-5.4 4.1-8.6l.1-.4c.7-3.2.3-7-.7-10.1l-.3-.7a26.5 26.5 0 0 0-14.8-15.4l-.4-.2h-1c-4.2.4-7.8.3-11.7-1.3l-.5-.3-1-.5c-.9-.3-1.3-.5-2.1-.4-1.4.7-3 1.6-3.6 3l-.2 1.6c0 .5 0 .5-.5.9h-1.3c-.4-.7-.4-.7-.5-1.3a6.4 6.4 0 0 0-2.7-3.5 5 5 0 0 0-1.4-.3h-.6l-.7-.1c-4.4-.6-4.4-.6-5.4-1.7a35.5 35.5 0 0 0-28 10.7Zm78.2 6.4.2.7c.6 1.6.9 3.2 1.3 4.8v.6a22 22 0 0 1-3.5 16c-4.9 6.7-12.6 9.4-20.4 10.9l-.5.1-3.7.5-.8.1a136.1 136.1 0 0 1-15.7.7 84 84 0 0 1-27.7-3.8l-.1.7c-.4 2.6-1 5-3.2 6.7-3.1 2-7 3.2-10.7 2.7-3-.6-5.8-2-7.7-4.6-.8-1.2-1.3-2.3-1.7-3.7h-.5a12 12 0 0 1-9-3.5 2 2 0 0 1-.7-1.5c.1-.6.1-.6.4-1.1 1.1-.8 2.5-.9 3.8-1l-.5-.4A12.4 12.4 0 0 1 38 126c0-1 .2-1.7.5-2.6 1.3-.6 3-.2 4.4.2 2 .7 4.6 1.9 5.6 3.9h.5l.4-.7c.2-.5.5-.8.8-1.2 1 0 1.3 0 2 .5a10 10 0 0 1 2.6 7.6c0 1-.3 1.9-.7 2.8l-.2.6c1-.2 1.8-.6 2.7-1l.8-.3a8438.4 8438.4 0 0 0 3.6-1.7l-1.2-1.6a19.8 19.8 0 0 1-4.5-13.5v-.8c0-2.7.6-5.2 1.4-7.8l.2-1c-1.6.3-3 .7-4.6 1.2h-.4a80.9 80.9 0 0 0-12.8 4.9l-.6.3a45 45 0 0 0-8 4.8l-.4.3c-3 2.4-5.7 5.4-6.6 9.2-.4 3.2 0 6.5 2.1 9.1l2.1 2.2.4.5c12.5 13.5 38.6 16 59.9 17.6h.7c7 .3 14.1.4 21.2 0l2.2-.1c7.4-.4 14.9-1.4 22.2-2.7l.8-.2a100 100 0 0 0 24.1-7.3l.5-.3c6-2.8 12.8-6.9 15.2-13.5 1-2.7.7-5.2-.5-7.9-3.1-6-9.5-9.7-15.4-12.4l-.5-.3a75 75 0 0 0-8.4-3.2l-.4-.2-5.5-1.7-.5-.1c-.8-.3-.8-.3-1.6-.3Z"/><path fill="#5b685c" d="M176.2 4c1.4 1 2.5 2.4 2.9 4.1.1 2 .1 3.7-.9 5.4-1.5 1.8-3.3 3.5-5 5.2A832.9 832.9 0 0 0 159 33.4c-1.6 1.5-3.3 2.9-5.6 3-.8-.1-1.5-.3-2.3-.6l-.2.3-1.4 2.6c-3 5.3-4.3 11.6-5.7 17.5-2 8-2 8-3.7 11l-.2.4a20.2 20.2 0 0 1-11.4 10l-.6.2a19.2 19.2 0 0 1-17.4-4l-.4-.4c-3-2.8-5.6-7.5-5.8-11.5-.2-5 1-9 4.2-12.9 5.2-5.7 13.2-7.9 20.3-10 3.6-1 7-2.2 10.5-3.6l.5-.3c2.5-1 4.6-2.3 6.5-4.2h.5l-.3-.6a6.1 6.1 0 0 1-.2-4c.9-2.1 3-3.8 4.6-5.4a502.4 502.4 0 0 0 13-13.3C167.4 4 171.5 1 176.3 4Z"/><path fill="#ac611e" d="M188.1 107c1.6 2 1.8 4 1.7 6.4-.5 3-2.9 4.5-5 6.2-1 .8-1.8 1.6-2 2.8a4 4 0 0 0 1 3.3c1 1.1 2.3 2 3.7 2.8 3 1.9 5 4.5 5.8 8 .6 3.7-.3 7.3-2.5 10.4-5.1 6.5-13.7 8.4-21.4 10-4.8.9-4.8.9-9.2 2.7-.6.3-1.1.1-1.7 0v-1l.1-.5v-.9l.6-.2c4.7-1.7 9.3-3.5 13.2-6.7l.6-.4c3-2.3 5-5.4 5.6-9.2.2-2 .2-4-.4-5.8h-.2v-.8c.1-4.4-1-8-4-11.4l-.4-.4a57 57 0 0 0-29-14.6l-.8-.1-1.4-.3c-1.5-.3-1.5-.3-2.1-1-.7-1-.7-1-.7-1.7a11733 11733 0 0 1 40.1-.2c3.3 0 6 .1 8.4 2.7z"/><path fill="#044f51" d="M57.9 106.8c.2.4.2.4 0 1-.4 1-.8 1.6-1.8 2.1-.8.3-1.5.5-2.3.6l-2 .6-1 .2c-4 1-8 2.7-11.8 4.5l-.6.3c-2.8 1.4-5.5 3-8 4.8l-.4.3a16.6 16.6 0 0 0-6.4 9 12.3 12.3 0 0 0 4.2 11.3l.6.6c13.4 12.8 37 15.6 59.5 17.2h.7c7 .4 14.1.5 21.2 0h2.2c7.4-.4 14.9-1.4 22.2-2.7l.8-.2a100 100 0 0 0 24.1-7.4l.5-.2c6-2.8 12.6-6.7 15-13.3 1-2.7.7-5.2-.5-7.9a26.6 26.6 0 0 0-10.3-9.7l-.4-.2a65.9 65.9 0 0 0-13.4-5.9l-.5-.1c-1.4-.5-2.9-1-4.3-1.3l-.5-.2-1-.2c-1-.3-1.6-.5-2.2-1.3l-.5-1-.2-.5-.1-.4c2.2.3 4.4.9 6.6 1.5l.6.1c10 2.8 22.9 7.7 28.4 17.2 1.9 3.5 2.5 6.8 1.3 10.6a17 17 0 0 1-3.5 6l-.3.3a40 40 0 0 1-10.2 7.6l-.4.3a80 80 0 0 1-21.9 7.8c-4.6 1-9.2 2-14 2.6l-.4.1a201.3 201.3 0 0 1-29.4 1.7c-6.2 0-12.4-.2-18.6-.9h-.5c-5.5-.6-11-1.5-16.5-2.6l-.7-.1a100.2 100.2 0 0 1-22.5-7.1c-6.8-2.8-14.3-7.5-17.3-14.4a13.9 13.9 0 0 1 2.8-14.2l.4-.5c8-9.2 21.6-13.7 33.3-16Z"/><path fill="#8f5012" d="M178.2 134h.2c1 4.7.5 8.8-2.1 12.9-2 2.7-5 4.6-7.7 6.2l-.7.4c-4 2.3-8.5 3.7-12.8 5.2l-2.8 1c-1.5.7-3.1 1.1-4.7 1.5l-1 .3a154 154 0 0 1-34.2 5.6h-.7c-7.5.4-15 .3-22.4-.1h-.8a116.5 116.5 0 0 1-20.4-2.6l-6-1.2-.6-.1a95 95 0 0 1-9.4-2.8 82.6 82.6 0 0 1-15-6.1c-.2 0-.3-.2-.5-.3-4.6-2.6-11-6.2-12.8-11.5l.2-.4.6.6.7.7.4.4a33.5 33.5 0 0 1 3.4 2.4 64 64 0 0 0 19.3 9.4l.5.2c15.7 5.4 33 6.7 49.5 6.7h.6a174.6 174.6 0 0 0 52-7.1l.6-.2c8.7-2.9 20-7.7 24.7-16.2.6-1.2 1.1-2.6 1.4-4 0-.4 0-.4.5-.9Z"/><path fill="#145f1a" d="M88.8 72c3.4.9 6 2.5 8.5 5l.5.4c2.6 2.7 3.7 6.5 4.5 10 .4-.5.7-1.1 1-1.8.6-1.3 1.4-2.4 2.4-3.5l.4-.4c1.1-1.2 3-2.8 4.8-3h.8c.6 0 .9.2 1.3.6 1 3 .5 6.7-.9 9.5l.5-.5a149.5 149.5 0 0 1 1-1c3.5-3.3 7.7-4.4 12.5-4.4a15 15 0 0 1 9.3 3.9c.5.7.5 1 .3 2l-1.1 1.4-.4.3a24.6 24.6 0 0 1-6.8 4.8 17.9 17.9 0 0 1-15-.1l-.6-.3-1-.5c-.9-.3-1.3-.5-2.1-.4l-1.7 1-.6.5c-.7.5-1 .9-1.2 1.7v1.2c-.2.5-.3.7-.8 1.1h-1.3c-.4-.4-.6-.7-.6-1.3v-.5c0-1.3-.3-2.4-.9-3.6l-.2-.4c-.8-1.4-1.6-1.8-3-2.3-.3 0-.6 0-.8-.2-4.3-1.3-7.7-3-10-7a15.1 15.1 0 0 1-1.4-10.8c.6-1.3 1.2-1.5 2.6-1.4Z"/><path fill="#d58c06" d="M131.7 100.4c5 3.3 8 8.6 9.4 14.3a21 21 0 0 1-2.6 15c-.5.8-1 1.5-1.7 2.2l-.4.4c-5.3 5.7-14 7.4-21.3 8.2h-.5c-4.8.7-9.6.7-14.4.7H98c-20.3.1-20.3.1-27.3-4.2-.3-.5-.3-.5-.3-1-.4-1.5-1-2.5-2.3-3.4a3 3 0 0 0-2-.5l-1.6.7c-.4.2-.4.2-.8 0a15.7 15.7 0 0 1-6-12v-1c.7.2.8.4 1.2 1a35.3 35.3 0 0 0 16.9 11 82 82 0 0 0 28.6 3.4h.7a70 70 0 0 0 7.7-.6l.8-.1c2.8-.4 5.5-.9 8.2-1.8l.7-.3 1.9-.6.7-.3a19 19 0 0 0 10.7-10 19 19 0 0 0 0-14 19 19 0 0 0-4.4-6.8l.3-.4z"/><path fill="#d27a0d" d="M176.2 4c1.4 1 2.5 2.4 2.9 4.1.1 2 .1 3.7-.9 5.4-1.5 1.8-3.3 3.5-5 5.2A832.9 832.9 0 0 0 159 33.4c-1.6 1.5-3.3 2.9-5.6 3-.8-.1-1.5-.3-2.3-.6l.4-.2c.1-1 .2-1.7-.3-2.4a6 6 0 0 0-2.3-2l-1.5.5-.5-.8-.3-.5a5.6 5.6 0 0 1-.3-4c1-2.2 3-4 4.6-5.5a502.4 502.4 0 0 0 13-13.3C167.4 4 171.5 1 176.3 4Z"/><path fill="#ecdba1" d="M140.9 130.2c2 .2 3.9 1.9 5.1 3.4.7 1 .9 2 .7 3.2-1 2.5-3.2 3.8-5.6 4.8-16.8 7.3-38.6 7.5-57 5h-.6c-3.3-.4-6.7-1-10-1.8l.2.4c.3.7.3 1.2.3 2-1.6 2-4.4 2.9-7 3.3h-5.6c.6-.8 1-.8 2-1 2.5-.6 5-2 6.5-4.2.8-1.6 1-3.5 1.4-5.3l.3.2a92 92 0 0 0 28.1 3.5h.5a98 98 0 0 0 20.4-1.5l.7-.2a29 29 0 0 0 19.7-11.8Z"/><path fill="#553001" d="M128.7 95.2c3.9 2 7.7 5 10.3 8.6l.2.6.4.2 2 3.5.7 1.9.2.4a24 24 0 0 1-.7 18.3c-3 6.1-8.4 9.8-14.7 12-2.4.8-5 1.4-7.5 2h-.5c-1.2.3-2.5.4-3.7.6h-.8a136.1 136.1 0 0 1-15.7.7c-21.3 0-21.3 0-27.7-4-.2-.6-.2-.6-.2-1.4v-1.4l2.3.7c8 2.7 16.7 3 25.1 3h2.2c4.8 0 9.6 0 14.5-.6h.4c6.5-.8 13.8-2.2 19-6.5l.5-.4c3.5-3 5.8-7.3 6.2-11.9.1-3 0-6-1-9l-.2-.6A25.7 25.7 0 0 0 126.1 97c-.6-.2-1-.5-1.5-1h.4l.6-.2.6-.2 1-.4c.6-.3.8-.2 1.5 0z"/><path fill="#5a675c" d="M144.7 35.6c.3 0 .3 0 .5.2l-.5.4a4 4 0 0 0-1.2 2.2l.6-.3.4.3c0 .9-.3 1.3-1 1.9l-.4.5-.6.5a69350.5 69350.5 0 0 0-2.1 2.2l-1.7 1.6a1556.8 1556.8 0 0 1-7.7 7.6c0 .2-.2.3-.3.4a13098.8 13098.8 0 0 0-8.5 8.7l-.4.4-.4.5-3.2 3.5c-1.6 1.7-3.1 3.4-4.8 5 3.4 1 6.8-.6 9.7-2.1l1.2-.9c.7-.4.7-.4 1.2-.4l.4.2-.9 1 .7 1.1a20.1 20.1 0 0 1-10.3 4c4 2 8.6 2.4 12.9 1a13 13 0 0 0 4.4-2.6c.6-.2 1.2-.2 1.7-.2l.3 1.9a20.3 20.3 0 0 1-15.4 4c-3.3-.5-6.3-2.3-8.9-4.4l-.4-.4a17 17 0 0 1-5-8.1V64c.6.6.6 1 .7 1.7h.9l-.3-.8 1.3.2.7 1.6.6 1.4v-.4c.4-5.3 2.1-9.7 5.6-13.8l.5-.6c3-3.4 6.7-5.9 10.5-8.4l.8-.4.6-.5.6-.3.5-.3.4.2-.6.5h.6l.1.6.2.6.4.3a161456.8 161456.8 0 0 0-3.5 2.3c-6.1 4-12.2 8.9-13.8 16.4-.3 1.8-.3 3.5-.3 5.3h.4l.2-.4c.3-.6.8-1 1.3-1.6.6-.5 1-1 1.5-1.7h.5l.1-.3 1.3-1.5 1.8-2 2.7-2.9 2-2.2 3.2-3.3.6-.6 1.6-1.6 1.7-1.7a6455.5 6455.5 0 0 1 14.3-14.3Z"/><path fill="#22771e" d="M41.4 123c2.7.7 4.9 1.9 6.8 4l.2.6h.5v-.4a4 4 0 0 1 1.2-1.7c.8-.1 1.3 0 2 .4a9.5 9.5 0 0 1 2.8 7v.5c0 1.2-.2 2.1-.7 3.2l-.1.4c-.4.6-.6.7-1.2.9l-.5.2-.6.2a550.6 550.6 0 0 0-1.6.7c-1.2.5-1.2.5-2.2 1.3l-.1.7-.1.8c-1.3.6-3.2.1-4.5-.3-2.3-.7-4.4-2-5.8-4v-1.3c.8-1 1.4-1.3 2.6-1.5l.8-.1.7-.1-.6-.4c-2-1.7-3-4.6-3.3-7.1-.1-1.3 0-2.3.4-3.5 1-.7 2-.5 3.3-.4z"/><path fill="#044e50" d="M57.9 106.8c.2.4.2.4 0 1-.4 1-.8 1.6-1.8 2.1-.8.3-1.5.5-2.3.6l-2 .6-1 .2c-4 1-8 2.7-11.8 4.5l-.6.3c-2.8 1.4-5.5 3-8 4.8l-.4.3a16.6 16.6 0 0 0-6.4 9 12.3 12.3 0 0 0 4.2 11.3l.6.6c7.8 7.4 19.6 10.6 29.7 13.2l-.4.1-.5.3-.2 1.3h-.6l-1.3.1c-.4.1-.4.1-1-.3h-.8a5 5 0 0 1-2.4-.3 48009.2 48009.2 0 0 1-3-1 96.4 96.4 0 0 1-9.2-3.6c-6.8-2.8-14.3-7.5-17.3-14.4a13.9 13.9 0 0 1 2.8-14.2l.4-.5c8-9.2 21.6-13.7 33.3-16Z"/><path fill="#dce99f" d="M147.7 36c0 1-.5 1.5-1 2.2l-3.4 5.4-.2.4-2.1 3.4c-12.3 20.9-12.3 20.9-22.6 23.9-1.8.4-3.4.5-5.2.1l2.4-2.6 2-2.3 2-2 2.5-2.7c2.8-3.2 5.8-6.2 8.8-9.1l1.7-1.8a5612.5 5612.5 0 0 1 12.8-12.8l.6-.6.5-.5.4-.4.8-.6Z"/><path fill="#873e04" d="M176.2 4c1.4 1 2.5 2.4 2.9 4.1.1 2 .1 3.7-.9 5.4-1.5 1.8-3.3 3.5-5 5.2A832.9 832.9 0 0 0 159 33.4c-1.6 1.5-3.3 2.9-5.6 3-.8-.1-1.5-.3-2.3-.6l.4-.2c.1-1 .2-1.7-.3-2.4a6 6 0 0 0-2.3-2l-1.5.5-.5-.8-.3-.5a5.6 5.6 0 0 1-.3-4c1-2.2 3-4 4.6-5.5a502.4 502.4 0 0 0 13-13.3C167.4 4 171.5 1 176.3 4Zm-9.8 4-.6.6-2.5 2.6c-1 1.3-2.3 2.5-3.6 3.7l-.8.9-2 2a2027.6 2027.6 0 0 0-5.3 5.2l-.5.5c-2 1.8-2 1.8-2.8 4.1v.8l1 .2c2.2.8 3.8 3 4.9 5 .8-.3 1.4-.7 2-1.4.3-.1.4-.3.6-.5a149.2 149.2 0 0 0 4.7-4.6l.6-.6A2708.2 2708.2 0 0 0 173.7 15l.5-.4a8.2 8.2 0 0 0 2.4-4.2c0-1.5-.1-2.8-1.1-3.9a5.2 5.2 0 0 0-4.2-1.6c-2 .3-3.5 1.7-4.9 3.1Z"/><path fill="#ddeaa0" d="m145.8 34.3.4.2-.5.5-7.2 7-1.6 1.6A4866.3 4866.3 0 0 0 125 55.5l-.5.5a50 50 0 0 0-2.6 2.8l-1.8 2a113 113 0 0 0-4.4 4.9l-2 2-.5.5-.6.6c-.5.4-.5.4-.7.9h-.4a19.9 19.9 0 0 1 5.8-15.5 24.6 24.6 0 0 1 3.3-3 105.8 105.8 0 0 1 10-6.7l4.4-2.7a80.5 80.5 0 0 0 8.8-6.2l.6-.5 1.4-.8Z"/><path fill="#e76530" d="M67.5 134.7c1.5 1.9 1.5 4.3 1.4 6.6-.2 1.6-.8 3-2 4.1A13.7 13.7 0 0 1 57 148c-.8-.2-1.4-.5-2.1-.9l-.6-.3A9 9 0 0 1 50 142c.2-.5.4-.8.8-1.1l.4-.2.5-.2a74880.2 74880.2 0 0 1 9.2-4.1l2-1 .8-.2c2.5-1.1 2.5-1.1 3.9-.5z"/><path fill="#dce99f" d="M143.5 47.2c.2.4.2.4 0 .9a69779.4 69779.4 0 0 0-1.3 4.8l-.2.7-.7 2.8c-.9 3.4-1.8 6.9-3.5 10l-.2.5c-2.3 4-5.5 7-10 8.6-4 1-8 .8-11.8-.9a16 16 0 0 1-.9-.6l.7-.1a25 25 0 0 0 14-7l.5-.5c5.5-5.3 9.6-12.7 13.4-19.2Zm-9.3-7.8.5.3a4372.6 4372.6 0 0 1-6 3.7c-8.2 5-16.2 10.3-19 20-.5 1.6-.5 3.3-.6 5-.7-.4-1-1.4-1.3-2.2l-.2-.5a13 13 0 0 1-1-5.4v-.5c0-4.4 1.8-7.6 5-10.6.8-.8 1.7-1.4 2.7-2l.6-.4c4-2.5 8.6-3.8 13.1-5.2a781.9 781.9 0 0 0 1.6-.4 39 39 0 0 0 4-1.5l.6-.3z"/><path fill="#ac2b03" d="M67.7 132.1c1.5 1 2.6 2.1 3 3.9v1l.5.2c0 3.5 0 6.8-2.4 9.6a14.3 14.3 0 0 1-7.6 3.4c-3.3.6-6.5-.1-9.3-2-2-1.6-3.8-3.7-4.2-6.4v-1c.2-.8.7-1.2 1.4-1.6l1.4-.6L54 137l5.1-2.3c.3 0 .5-.2.8-.3a129.3 129.3 0 0 1 5.3-2.3c1-.4 1.7-.5 2.6-.1zm-5 3.4-.7.4-2.6 1.1-.5.3a814.2 814.2 0 0 0-8 3.6l-.4.2c-.4.2-.4.2-.6.9a10.3 10.3 0 0 0 5.5 5.4c2.4 1.2 5.6.7 8 0 2.1-.9 3.7-1.8 4.8-3.8 1-2.1 1-5 .2-7.3a3 3 0 0 0-1.5-1.8c-1.6-.2-2.8.4-4.1 1z"/><path fill="#5b695d" d="m134.4 37.7-.2.4-.2 1 .4.1c-1.2.7-1.2.7-1.7.7v.4l-2.2.7-.7.3c-1.4.5-2.9 1-4.3 1.3A33.2 33.2 0 0 0 110 51a13 13 0 0 0-3.3 9.2v.5c0 1.2.2 2.4.6 3.6.1.4.1.4-.1 1V65l-.6.4v.4h-.9l-.4-1-.2.6-.3-1-.2-.4c-.4-1.3-.4-2.5-.4-3.8v-.6c0-4.1 1.7-8 4.5-11a46.1 46.1 0 0 1 22-10.2l.4-.1 1.2-.4c.7-.2 1.4-.2 2.1-.2Z"/><path fill="#43860f" d="M132.7 87.7c0 .9 0 .9-.3 1.3-1.4 1.4-3 2.4-4.6 3.4l-.6.4a15.8 15.8 0 0 1-7.8 1.4h-.8c-1.5 0-2.7-.1-4.1-.7 1-.7 2-1 3.2-1.5l.7-.2 5.4-1.8.6-.1.4-.1 1-.6-.1-1c-2.4-.3-4.3.3-6.5 1l-.7.2a454.4 454.4 0 0 0-5.7 2 187.2 187.2 0 0 1 1.4-1.5c5.2-5.5 12.3-5.5 18.5-2.2Z"/><path fill="#e59a2e" d="M174 5.5a9 9 0 0 1 1.8 1.5l-.2.5-.5-.5c-.9-.5-1.3-.6-2.3-.4-2 1.2-3.6 3.1-5.2 4.8A2731.5 2731.5 0 0 1 158 21l-.4.4-2 2.3-1.4 1.1-.4.4c-.9.6-1.6.5-2.6.5l-.5-.8-1 .6c.3-.7.7-1.2 1.2-1.7l.5-.5.5-.5.6-.6a941.8 941.8 0 0 1 9.2-9.1l.5-.6c1-1 2-1.9 2.8-3 2.2-2.5 5.3-5.7 9-4z"/><path fill="#efb643" d="M86.6 94.6c.6.9.6 1.3.4 2.3-1 1.3-2.7 1.5-4.2 1.8-5.1 1-11 3.2-15 6.6-.7.6-1.2.6-2.2.6-.4-.4-.4-.4-.6-1 0-1.2 1-2 1.8-2.8a38 38 0 0 1 14.7-7.3l.6-.2c3.2-.9 3.2-.9 4.5 0z"/><path fill="#c33a0b" d="M66.4 137.5c.7.8.6 1.5.5 2.5l-.4 1.8v.6c-.3 1-.5 1.7-1.2 2.4-1.5.9-3 .9-4.6 1h-2.4l-.2-.4-1.5-.4c-.9-.4-1.5-.7-2-1.5 0-.9.4-1.5 1-2 1.1-1 2.5-1.3 4-1.4.4 0 .4 0 .8-.4l.5-1c.4-1 1.2-1.4 2.1-1.9 1.4-.4 2.3-.1 3.4.7z"/><path fill="#faf2d0" d="M54.9 121.4c.5.5.5.6.6 1.3v.5l.2.6c.7 3.8 2.1 6.8 4.8 9.6.4.4.4.4.4.8a905.2 905.2 0 0 1-5 2.2l-.4.2c-.6.3-1 .4-1.7.4l.3-.5c1-2 .8-4.6.2-6.6a8.4 8.4 0 0 0-3-4.2c-.6-.2-.6-.2-1.2 0-.6.6-1 1-1.2 1.9h-.5l-.7-.8a28 28 0 0 0-1.8-2l.6-.2a19 19 0 0 0 2.4-1.1c1.9-1 4-1.6 6-2.1z"/><path fill="#41850f" d="M88.5 74.6a14 14 0 0 1 9 6.7c1.1 2 1.8 4 2.4 6.2h-.4l-.7-.8c0-.2-.2-.4-.3-.5l-.5-.6a46 46 0 0 1-2.8-4 5 5 0 0 0-1-1.4H93c-.1.6-.3 1 0 1.7l.8 1.2.3.5 2.6 3.5.9 1.5a11 11 0 0 1-7-4.7 12.2 12.2 0 0 1-2.3-7.2V76c0-1.2 0-1.2.2-1.5z"/><path fill="#eddaa0" d="M144.3 118.8a32 32 0 0 1 13.1 6.9v.4h.4l.8 1 .4.5a7.7 7.7 0 0 1 1 4.4v.5c0 2.8-1.4 4.7-3.4 6.7-1 .9-2.1 1.6-3.3 2.3l-.5.4c-.6.3-.9.5-1.6.4l-.5-.1c.4-.8.8-1.1 1.5-1.6 2.6-1.5 4.4-3.1 5.4-6a7 7 0 0 0-.6-5.5c-3.1-4-8-6.5-12.9-7.7l.2-2.6z"/><path fill="#b97102" d="m109.9 93.9 1 .4a21 21 0 0 0 12.8 2c1.8-.2 3.3.8 4.7 1.7l.5.4a6 6 0 0 1-2.2.9l-.8.2c-4.8 1.2-9.2.1-13.7-1.7-2-.8-3.2-.6-5.2.1-1.5.5-1.5.5-2 .5 0-1 0-1.6.5-2.5 1-1 2.8-2.6 4.4-2z"/><path fill="#b55b08" d="M176.3 9.6h.2a6 6 0 0 1-1 3.7 24 24 0 0 1-2 2l-.5.6-1.6 1.5-1.6 1.6a1007 1007 0 0 1-12 12l-.5.5a11 11 0 0 1-3 2.1 5 5 0 0 1-1-1.4c-.6-1-1.5-1.8-2.3-2.6l-.5-.5c-.5-.5-1.1-.6-1.9-.8l.4-.7c1 .3 1.7.7 2.4 1.3 1.1 1 1.7 1.2 3 1.2 2.4-.4 4.8-3 6.5-4.6l.6-.6h.4l.2-.7.8-.7 1.7-1.5c.5-.6.5-.6 1-.6V21l.6-.6 2.4-2.2.3-.4a799.4 799.4 0 0 0 2.6-2.6l.4-.3c.6-.7 1.2-1.3 2-1.8l1.5-1.8.4-.6.5-1Z"/><path fill="#3c2801" d="M90.5 108.7c.5.6.5.8.5 1.5 0 2.2-1 3.6-2.4 5.1-1.4 1.4-3 1.7-5 1.6-1.7-.1-3.2-1-4.3-2.2a7.8 7.8 0 0 1-1.7-5.3l.4-.7h1.7l.2.6.3 1c0 .1 0 .3.2.5.4 1.3.7 2 2 2.9l.3.2c1.1.4 2 .3 3.1-.2a4 4 0 0 0 2.3-2.8 461.9 461.9 0 0 0 .7-2.2c.6-.3 1-.2 1.7 0z"/><path fill="#844905" d="M55.3 114.5h.6l.3 1 1-.1c.3.7.3 1.3.3 2v2.2c0 2.5 0 2.5.6 5l.4.2.5 1.3a15 15 0 0 0 3.8 5.8l.9.8v.5a51.3 51.3 0 0 1-2.3.9c-.8 0-1.1-.5-1.6-1.1a21 21 0 0 1-4.8-14v-.8l.3-3.7Z"/><path fill="#3f2a01" d="M108.5 108.6h.9c.4.1.4.1.8.8l.2.9c.2.8.4 1.4.9 2v.5l.3.2 1.2.7c1 .5 1.9.6 3 .4a4 4 0 0 0 2.4-2.2l.3-1.5c0-.8 0-.8.3-1.3.6-.3 1-.2 1.7-.2.5.6.5.8.5 1.5 0 1.7-.5 3-1.4 4.4a7.4 7.4 0 0 1-5.2 2.1 8.1 8.1 0 0 1-5.3-2.6 6.7 6.7 0 0 1-1.5-5c.5-.6.5-.6.9-.7z"/><path fill="#3d2801" d="M94.5 118.2c.7.5.8 1 1 1.7.3 1.2.5 1.8 1.4 2.5a4.3 4.3 0 0 0 5.8-1l.8-1.9.7-1 1.5.3c.4.8.2 1.7 0 2.6-.6 1.7-2 3-3.6 4a7 7 0 0 1-5.5 0A7.4 7.4 0 0 1 93 122c-.3-1-.4-2-.2-3.1.5-.7 1-.8 1.7-.6z"/><path fill="#e7642f" d="M66.9 134.5a3 3 0 0 1 1.5 1.8c.7 1.9.7 4.4.2 6.3h-.4l-.2.6c-.3.7-.4 1-1 1.3 0 .2-.1.3-.3.4l-.2.3a4 4 0 0 1-1.3-.7l.6-.2v-.7c.2-.7.3-1 .7-1.6l-.3-.7.2-.5a4 4 0 0 0 0-3.2c-.3-.5-.8-.6-1.4-.7a5 5 0 0 0-3.6 1.1 3 3 0 0 0-.7 1.4l-.7.9-1.5.1H57l-.6-1.7 1-.4.8-.5c.4-.4.8-.6 1.3-.8l.6-.3.7-.3.6-.3c4.2-1.8 4.2-1.8 5.5-1.6Z"/><path fill="#e6732f" d="M79.7 118c1 .5 1.4 1 1.8 2 .1.8.1 1.2-.3 1.8-.7 1-1.5 1.5-2.7 1.7-1.6.2-3 0-4.3-.8a4 4 0 0 1-1.4-2.4c.1-1 .3-1.6 1-2.2 1.7-1 4.1-1 5.9-.1z"/><path fill="#e6742f" d="M124.5 117.9c.8.8 1.2 1.6 1.2 2.7 0 .7 0 1-.4 1.6-1.4 1.2-2.6 1.5-4.5 1.4-1.3-.2-2-.7-2.9-1.7-.3-.7-.3-1.2-.2-2 .6-1 1.4-2 2.5-2.3 1.4-.2 3.1-.5 4.3.3z"/><path fill="#6d3b04" d="M141.3 117h.2v2.7l1.6.6c.4.2.4.2.5.7.4 4.2-1.8 8.6-4.4 11.8-.8 1-1.7 1.9-2.6 2.7l-.7-.4h.5l-.5-.6c-.2-.6-.2-.6-.2-1.3.4-.5.7-.8 1.2-1.1.4-.5.5-.9.8-1.5l.8-1.3a15.6 15.6 0 0 0 2-4.3c.7-2.6.8-5.2.8-8Z"/><path fill="#803e06" d="m173.7 3.2-1.7.2-.4 1.3h.7c1 .2 1.8.6 2.7 1l-.4.3-.7-.3a5.2 5.2 0 0 0-3.8-.2c-1.4.7-2.5 1.7-3.7 2.8l-.6.6-2.3 2.4a57 57 0 0 1-2 2.3l-.4.4-1 .8-.8-.2-.4-.9-.4-.4a149.3 149.3 0 0 1 5.6-6c2.1-2.1 6.3-6.3 9.6-4.1Z"/><path fill="#4c9610" d="M40 125.5c3 0 4.8.9 6.7 3 1.4 1.6 2 3.6 2.2 5.7h-.5l-.9-1.2c-1.3-2-1.3-2-3-3.9l-1 .2c0 1.4.6 2.1 1.5 3.2l1.3 1.7.4.7c-2.2-.4-4-2.2-5.3-3.9-.4-.5-.7-1-.9-1.7l-.3-.7c-.2-1-.2-2-.1-3.1Z"/><path fill="#468b0f" d="M111 81.3c.3 4.7-1.2 7.6-4.2 11.1l-.2-.4.5-1.2c.5-1.1.7-2 .7-3.3l-.8-.2-.4.7-.4 1-.3.4-1.3 2.4h-.2c.2-3.5 1-6 3.6-8.5 2.3-2 2.3-2 3-2Z"/><path fill="#237a1f" d="M41.8 135.3h-1.5v1l.6.3-.8.2a7.6 7.6 0 0 0 3 2 8.2 8.2 0 0 0 3.8 1H48v1l-.1.5-.1.5c-1.3.6-3.2.1-4.5-.3-2.3-.7-4.4-2-5.8-4v-1.3c1.2-1.6 2.6-1.8 4.3-.9z"/><path fill="#b46e03" d="M109.9 93.9a28 28 0 0 1 2.2 1l1.8.7v.5l.6.2-.4.2c-.2.6-.2.6-.2 1.3l1.2.6c-.7.3-.8.2-1.5 0l-.5-.3-1.1-.4c-1.8-.8-3.2-.5-5 .2-1.5.5-1.5.5-2 .5 0-1 0-1.6.5-2.5 1-1 2.8-2.6 4.4-2z"/><path fill="#3b2701" d="M120.5 109c.5.5.5.7.5 1.4 0 1.7-.5 3-1.4 4.4a7.4 7.4 0 0 1-5.3 2.1c-.6 0-1.1-.2-1.7-.5.8-.2 1.5-.2 2.3-.2l-.4-.2c.2-.8.2-.8.4-1l-.5-.2-.6-.2-.7-.3c-.5-.2-.8-.4-1.2-.9 1.3.4 1.3.4 1.7.7 1.5.1 2.5 0 3.7-.9.8-.8 1-1.7 1.2-2.8 0-.8 0-.8.3-1.3.6-.3 1-.2 1.7-.2z"/><path fill="#eddba0" d="M55 119v2.4l-.8.3-3 1-.6.2c-1.2.5-2.3 1-3.4 1.7-.6.3-1 .2-1.6 0l-1-.7c2.3-2.4 7-4.9 10.5-4.9z"/><path fill="#4c9611" d="m46.4 136.9 1.6.3c1 .2 1.3.6 2 1.3-.3.7-.3.7-1 1l-.6.3-.4.2c-3 0-5.6-.7-8-2.8v-.4a10 10 0 0 1 6.4 0z"/><path fill="#b67103" d="m95 92 2.5-.1h.8c1.8-.1 1.8-.1 2.5.4l.8 1.4.3.6c.5 1.2.7 2.2.8 3.5a15 15 0 0 1-2-2.4c-.6-.7-1.3-.9-2.2-1h-.6l-.7-.1c-4.4-.6-4.4-.6-5.4-1.7l-1.1-.2v-.2L95 92z"/><path fill="#b75f09" d="m159.8 27 .8.9-3 3.2-.4.5a11 11 0 0 1-2.8 2c-.5-.4-.8-.8-1.1-1.4-.6-1-1.5-1.8-2.3-2.6l-.5-.5c-.5-.5-1.1-.6-1.9-.8l.4-.7c1 .3 1.7.7 2.4 1.3 1.1 1 1.7 1.2 3 1.2 1-.1 1.5-.6 2.3-1l1.3-.7c.8-.4 1.2-.8 1.8-1.4z"/><path fill="#b72f03" d="m64.5 136.6.2.9H64l.2.4.6-.2.9.6-.7.9s0-.2-.2-.2h-1.3c0 .3 0 .7-.2 1 1 .2 1 .2 2 0 .2.3.2.3.2.8v1l-.2 1.5-.5.1c-.6.2-.6.2-.8.7l-.2.4-1.3.3-.1-.4c-.1-.5-.3-1-.6-1.4l1.3-.6-.2-1-.6-.2c-.8-.3-.8-.5-1.1-1.2l-.9-.2a5 5 0 0 1 2.8-3l1.5-.2z"/><path fill="#864405" d="m158.8 13.5.3.2v.4c.2.2.2.2.2.5l.7.2c-2.8 3.3-2.8 3.3-3.9 3.8-.5.3-1 .7-1.4 1.2l-.5.5-.6.6-.6.6-1.4 1.4-.6-.2v-.6c-.5 0-.5 0-.9.2l2.5-2.8.4-.3a522.3 522.3 0 0 1 2.4-2.4l.3-.3c.6-.6 1-1.2 1.5-2 .9-1 .9-1 1.6-1z"/><path fill="#804906" d="M141.3 117h.2v2.7l1.6.6c.4.2.4.2.5.7.2 1.9-.1 3.6-.8 5.3l-.4.2-.5 1-.2.5-.2.5-.8-.3-.2-.6-.7.4.1-.3c.4-1 .6-2 .7-3 0-.5.2-1 .3-1.4.3-1.2.3-2.5.3-3.8v-.7l.1-1.7z"/><path fill="#83490c" d="M128.1 169.6h1.9a590 590 0 0 1 4.8 0h1.8c.4 0 .4 0 1 .5-.1 1-.1 1-.4 1.3h-2.8a619.6 619.6 0 0 1-5 0h-1.8c-.4 0-.4 0-1-.5l.1-1c.5-.3.8-.3 1.4-.3z"/><path fill="#663702" d="M91.2 89.6c2-.1 3.3.2 5 1a15.3 15.3 0 0 0 3 1l.3.4a454.2 454.2 0 0 1-7.1.3h-.8c-.8-.1-1-.3-1.6-1l-.4-.3-.4-.3v-.4h-1.7c1.2-.7 2.4-.6 3.7-.7z"/><path fill="#1e6f1b" d="M38.4 135.3c0 .2 0 .3.2.4l-.4.3c-.3.4-.3.4-.3 1 .7 1.9 2.6 2.8 4.3 3.7l.2-.4h.5v-1l-1.1-.6c.1 0 .3 0 .4-.2l1.1.5c1.6.7 3 .8 4.7.8v1l-.1.5-.1.5c-1.3.6-3.2.1-4.5-.3-2.3-.7-4.4-2-5.8-4v-1.3l.9-.9z"/><path fill="#4c9510" d="m50.4 128 .8.2c.5.7.8 1.4 1 2.2l.4.6c.4 1.8.2 3-.7 4.5h-.5a474.5 474.5 0 0 1-.6-2 12 12 0 0 1-.7-3.8v-.5c0-.5 0-.5.3-1.2Z"/><path fill="#83490c" d="M64.8 168h2.9c.7.1 1 .3 1.5.8l-.2 1a343.2 343.2 0 0 1-5.3.1h-.4c-.6 0-1 0-1.6-.3-.2-.4-.2-.4-.1-.8.4-1.1 2.2-.7 3.2-.7z"/><path fill="#d99107" d="M131.7 100.4c3.4 2.3 6.4 6 7.9 9.8l-.2.7-.6-1c0-.3-.2-.5-.3-.7l-.2-1-.9-.1c0 .2-.2.4-.4.6h-.4l-1.4-2.4c-1-2.1-2.3-4-3.8-5.7l.3-.2z"/><path fill="#aa2702" d="m53.8 137.7-.1.4c-.2.5-.2.5.3 1 .4 0 .9-.2 1.3-.4a4 4 0 0 1-1.6 1.2 65774 65774 0 0 0-1.8.7l-.6.3c-.3 0-.3 0-.5.2-.5.2-.5.2-.7.9l.5 1.3c-.8-.6-.9-1.3-1.1-2.2l-.2-.4-1.5-.2c.6-1 1.1-1.3 2.2-1.7l2.4-1c.8-.3.8-.3 1.4-.1Z"/><path fill="#e4a11d" d="m76.7 95.6-.4.5.9.2-.6.2-5.7 3-.5.4c-.2 0-.4.2-.5.3-.2 0-.3 0-.4.2l-.5-.3v-.6l-.6-.2c.6-.3 1-.4 1.7-.4v-.5c.3-.8.6-1 1.3-1.3l.4-.2.5-.2c1.3-.7 3-1.5 4.4-1Z"/><path fill="#e35e29" d="m64.3 136.2.2.6h-.3c-1.3.3-2.2.6-3.1 1.5l-.4 1-.7 1-1.5.1H57l-.6-1.7 1.8-.8.5-.3.5-.2.4-.2.4-.2.4.2c.8 0 1-.1 1.6-.5.8-.5 1.4-.6 2.3-.5z"/><path fill="#b25908" d="M176.3 9.6h.2a6 6 0 0 1-1 3.7 30 30 0 0 1-3.1 3c-1.7 1.7-1.7 1.7-2.6 2.1l-.6.4-.2-.4-.7.7-.4-.3a1371.5 1371.5 0 0 1 2.7-2.7l3.2-3 1.6-1.8.4-.6.5-1Z"/><path fill="#e3a11c" d="m69.9 98 .4.2-.2.7-1.3.4.4 1c-.5.6-1 1-1.7 1.5a14 14 0 0 0-2.6 2.8l-.4-.2v-.4l-.8.4-.7-.4c2-2.3 4.2-4.6 6.9-6z"/><path fill="#925112" d="M178.2 134h.2l.2 1.8.1.5v2.7h-.5l.2 1.9-2.6.2-.4-.8.6-1a13 13 0 0 0 1.7-4.4c0-.4 0-.4.5-.9Z"/><path fill="#935112" d="M23.8 142c.9.7 1.8 1.5 2.6 2.4.4.4.4.4.9.5l2 1.4.4.3 1 .7-.5.2-.6-.2.2 1.1-.7.2-.2-.6-.7-.2c-1.7-.5-2.8-2.3-3.6-3.8-.8-1.5-.8-1.5-.8-2Z"/><path fill="#83490b" d="M18.8 109.8a451.7 451.7 0 0 1 5 0h.8c.7 0 .7 0 1.3.4-.2.9-.2.9-.4 1-1 .2-2 .1-3 .1h-2.4c-.7 0-1.1-.2-1.7-.6l.4-1z"/><path fill="#c53909" d="M64.7 136.8c.8 0 1.1.2 1.7.7.6.8.6 1.5.5 2.5l-.4 1.1h-.7l-.2.7-.7-.3.3-.2v-1h-.7c-.8.2-.8.2-1.5-.3.2-1 .2-1 .4-1.3h1.8v-.6l-.9-.2-.4.4-.2-1c.3 0 .7 0 1 .2v-.7z"/><path fill="#b36d03" d="m94.3 92 3-.1h.8c2-.1 2-.1 2.7.4l.8 1.4.3.6c.5 1.2.7 2.2.8 3.5-.6-.6-1.2-1.2-1.7-2a5.6 5.6 0 0 0-2-1.7l.3-.4-.2-.6h.4v-.5h-1.3v-.2l-3.9-.2V92z"/><path fill="#7f4609" d="M42.8 161.9h.4a126.7 126.7 0 0 1 3.1 0h.8c.7 0 .7 0 1.3.4v.9H41l-.2-.9c.8-.5 1.2-.4 2.1-.4z"/><path fill="#7e4609" d="M171 109.5h2.3c.7 0 1 .3 1.5.7-.2.7-.2.7-.7.9H169c-.6 0-.6 0-1-.4.3-1.7 1.8-1.2 3.2-1.2z"/><path fill="#82480b" d="M178.8 148.1h2.3c2 0 2 0 2.5.5l-.2 1H177l-.2-.8c.5-.7 1-.7 2-.7z"/><path fill="#efb745" d="M64.2 108c.6.3.9.4 1.2 1 0 1.1-.6 2-1.3 3l-1.3.4-.9-.7c.2-1.3.5-2.2 1.3-3.3.5-.3.5-.3 1-.3Z"/><path fill="#cf400c" d="M65.6 140.7c.8.3.8.3 1 .9 0 .7-.2 1-.6 1.7v.5c-.3.8-.6 1-1.3 1.4-1.3.5-2.6.5-4 .5H60l-1.7.1v-.6c1.2-.3 2.4-.7 3.6-.7 1.3 0 1.3 0 2.3-.6l.3-.4.3-.3c.5-.5.5-.9.6-1.5l.1-.6v-.4Z"/><path fill="#c13506" d="m64.5 136.6.2.9H64l.2.4.6-.2.9.6-.7.9s0-.2-.2-.2h-1l-.6.1h-.5l-.2 1.6-1.1-.2-.2-.5-.9-.2a5 5 0 0 1 2.8-3l1.5-.2z"/><path fill="#fdfced" d="M72 59.4c.6.3.6.3 1.1.8V62c-.3.5-.3.5-.9.8H71c-.7-.4-.7-.4-1.1-1-.2-1-.2-1.3.3-2 .7-.5 1-.5 1.8-.4z"/><path fill="#55645a" d="m128 43.5.4.2-.6.5h.6l.1.6.2.6.4.3-2.6 1.7-1.3-.7V46l-.8.2a10 10 0 0 1 2.2-1.8l.4-.2 1-.6Z"/><path fill="#46890e" d="M96.5 80.2c.9.8 1.4 1.6 1.8 2.7l.2.4c.6 1.4 1 2.8 1.4 4.2h-.4l-.7-.9-.4-.5-.4-.6-.4-.5c-.7-1-1.3-1.8-1.8-2.9h.5l.2.5.6-1-.3-.4c-.3-.6-.3-.6-.3-1Z"/><path fill="#e6a51f" d="m82.1 93.7-.4.9-1 .2-.5.1h-.5v.5c-2.2 1-2.2 1-3.4.9l-.2-.7-1 .2c.1-.4.1-.4.5-.5l.4-.2.6-.2.5-.1.5-.2c3-1 3-1 4.5-.9Z"/><path fill="#905012" d="M29.6 147.3c1.5 0 2.6.9 3.8 1.7-.7.6-1 .8-2 .7v.4c-1.4-.2-2.3-1-3.3-2.1l.4-.2.4.3c.4.3.4.3.9.3l-.2-1zm-.7.5.4.2z"/><path fill="#fdfcec" d="m67.1 69 1 .7c.2 1.5.2 1.5-.2 2.1-.6.4-1.2.2-1.9 0-.4-.4-.4-.4-.5-1.1 0-.8 0-.8.4-1.3.6-.4.6-.4 1.2-.3Z"/><path fill="#eedfaa" d="m66.7 148.2.4.2-.2.9h-.4l-.3.8.9.4h-5.8c.5-.8 1-.8 2-1 1-.2 1.8-.5 2.7-1l.7-.3z"/><path fill="#b4baa0" d="M148.7 31.1c1.2.4 2 1.3 2.7 2.3l.2.5c-1.4.1-2-.2-3.2-1a6 6 0 0 1-1-1.2c.6-.6.6-.6 1.3-.6z"/><path fill="#c07804" d="M90.7 92.2h8.8v.2l-3.2.2-.2 1.1c-1.4.1-2.4 0-3.7-.6l-1.7-.7v-.2z"/><path fill="#4f2e0d" d="m106.6 143.3.2.6H93v-.2a72.6 72.6 0 0 1 6.3-.4h7.3Z"/><path fill="#be7102" d="m108 94.1.5.2-.3.3c-.5.6-.5 1.1-.6 1.9l.2.9-2.3.6.2-1.3.4-.2-.2-.2c-.5.8-.4 1.2-.4 2.1h-.4c-.2-1.4-.2-1.4.2-2.1.7-1 1.7-1.7 2.8-2.2Z"/><path fill="#c23605" d="m59.2 140.3.4.6-.2.4-.7.2-.4.5h-.4l-.7 1.3h-.8l-.2.4-.7-1h.7l.2-.8c.6-1.3 1.3-1.8 2.8-1.6z"/><path fill="#cd8103" d="M90.8 94.8c.7.2.7.2 1.2.8-.1 1-.1 1-.5 1.3-1.6 0-1.6 0-2.1-.2v-1.5c.6-.4.6-.4 1.4-.4z"/><path fill="#e19d1a" d="M71 97.4c.2 0 .4 0 .6.2v.8l1.5-.4c-.6.7-1.4 1.1-2.2 1.5l-.4.3-1 .6-.5-.3v-.6l-.6-.2c.6-.3 1-.4 1.7-.4v-.6c.2-.5.2-.5.9-1Z"/><path fill="#a42902" d="m53.8 137.7-.1.4c-.2.5-.2.5.3 1 .4 0 .9-.2 1.3-.4-.5.7-1.1 1-1.8 1.3l-.7.3c-.5.2-.5.2-1.2 0l1-.3c-.2-.1-.2-.2-.3-.4l-.9-.2.2-1.3c1.3-.7 1.3-.7 2.2-.4z"/><path fill="#fcfbea" d="M63.9 63.9c.4.4.4.4.5 1 0 .7 0 .7-.3 1.1a2 2 0 0 1-1.5.2c-.4-.2-.4-.2-.7-.6 0-.6 0-1 .3-1.5.6-.3 1-.3 1.7-.2z"/><path fill="#895015" d="M23.8 142a34 34 0 0 1 2.7 2.5l.7.5-.4 1.5a9.2 9.2 0 0 1-3-4.1v-.4z"/><path fill="#894c0d" d="M168.3 109.6h5.6l-.8.6.2.5h-5l-.2-.5.5-.2-.3-.4z"/><path fill="#1d6d1b" d="m107 87 .8.3c.4 1 0 2-.4 3l-.2.5-.4 1.2h-.2l.2-2.8h-.5c0-1.2 0-1.2.4-1.8l.3-.3z"/><path fill="#854a0c" d="M42.6 161.9h1.1v.2l1.7.2-.2.7-4.3.2-.2-.9c.7-.4 1-.4 1.9-.4z"/><path fill="#482402" d="m128.7 95.2.6.6-.9.5v-.5c-.5 0-.5 0-1 .3l-.5.8.5.5c-1-.2-2-.6-2.8-1.1V96l.4-.2.6-.1.6-.2 1-.4c.6-.3.9-.2 1.5 0z"/><path fill="#ed6b35" d="m64.5 135.3-.8.4.6.5-.7.1c-1.1.3-2 .8-3 1.4l-.6-.5-.6.4c-.7.3-.7.3-1.3 0 5.5-2.6 5.5-2.6 6.4-2.3z"/><path fill="#d1430f" d="m56.6 140.9.4.4-1 1.7v.5l.2.4-.3.2v.4c-.6-.3-.8-.4-1.2-1 0-1.1.5-1.7 1.2-2.4l.7-.2z"/><path fill="#e7a721" d="m65.8 101 .4.2-1.3 1.3 1 .2-.7 2-.7-.3v-.4l-.8.4-.7-.4 2.8-3z"/><path fill="#864b0d" d="M135.3 169.6c1.6 0 1.6 0 2.1.4l.3.3-.5.6h-1.1c-.9 0-.9 0-1.7.2l-.4-1h1.3v-.5z"/><path fill="#ecd99c" d="M153.3 140.3v.4l1.5-.4c-.8.9-1.8 1.7-3 2.1-.6 0-.6 0-1-.2.2-.7.6-1 1.2-1.5l.5-.2.8-.2Z"/><path fill="#df9a19" d="M82.5 93.4h.8a19710.4 19710.4 0 0 0 1.4 0v.3l1.5.2v.2l-.5.1-4.5.9c-.6.1-.6.1-1.5-.1l2-.7-.2-.4c.4-.4.4-.4 1-.5z"/><path fill="#a54e0a" d="M80.6 162a52.1 52.1 0 0 1 8 .3v.3H84l.3.6-.7.2v-.6h-2.1l.2-.7h-1v-.2z"/><path fill="#ea6835" d="M62.3 141c.5.1.5.1 1 .8-.2.7-.2.7-.5 1h-1.3c-.4-.4-.4-.4-.5-1v-.5c.7-.4.7-.4 1.3-.4z"/><path fill="#fbf3cb" d="m50.6 46.4-1.5-2c-1-1.7-2.1-3.2-3.3-4.8L44 37.1l-.3-.5a696.5 696.5 0 0 1-6.5-9.1l-.3-.4c-1-1.6-1-3-.9-5 1-4 5.2-6.7 8.5-8.8a25 25 0 0 1 5.5-2.5l.4-.2c3-1 6.7-1.7 9.6-.4 1.7 1 2.5 2.6 3 4.3l.3.5a186.2 186.2 0 0 1 2.7 7.8l.9 2.5a2864.2 2864.2 0 0 1 2 5.7l.2.5a282.5 282.5 0 0 0 1.2 4.2h-.6A28 28 0 0 0 52 44.4l-1.4 2Z"/><path fill="#586355" d="M51.9 56.7a7.3 7.3 0 0 1-2.6-6.4c0-.7 0-.7.2-1.1 0-.5 0-.5-.2-.8 0-.2-.2-.3-.3-.4 0-.2-.2-.3-.3-.5l-.4-.5-.8-1a167.6 167.6 0 0 1-2.2-3c0-.2-.2-.4-.3-.5a367.7 367.7 0 0 1-5-7l-.4-.5-1.8-2.5c-4.5-6.2-4.5-6.2-4.1-10.1a10.6 10.6 0 0 1 2.7-5.5 28 28 0 0 1 4.5-4l.4-.2c3.2-2.3 6.8-4 10.6-5h.6c2.9-.7 6.4-.7 9 .7A8.8 8.8 0 0 1 65 13l.2.6a175.8 175.8 0 0 1 3.3 9.2l.2.7a159.5 159.5 0 0 0 2.7 7.6l.2.8.4 1.2c.5 1.8.5 1.8 1.6 3.2l1.4.7c1.6.8 2.3 2.5 3 4.1.7 2.3 0 4.7-1 6.8-3.1 5.6-9.1 8.7-15 10.4-3.5.9-7.1.7-10-1.5Zm-1.3-10.3.7-1a27.8 27.8 0 0 1 19-9.7c-.4-1.8-1-3.4-1.5-5.1l-.3-.8A673.5 673.5 0 0 0 64 17l-.3-.8-.4-1.3c-.6-1.8-1.4-3.5-3-4.4l-.6-.3c-2.8-1.4-6.6-.5-9.3.4a25.9 25.9 0 0 0-14 10.2 7.7 7.7 0 0 0-.2 5.1c1.3 2.2 2.8 4.2 4.2 6.2a212 212 0 0 1 4.9 6.7c1.7 2.3 3.3 4.6 4.8 7l.3.6h.2Z"/><path fill="#b8b297" d="M54 55.4c-1.3-1-2.2-2-2.4-3.7 0-2.3.7-4 2-5.8.4-.4.4-.4.9-.4v-.4c4-3.9 10.9-7.4 16.5-7.4 1.3 0 2.2.3 3.2 1.2a7.7 7.7 0 0 1 1.8 5.6c-.4 3-2.9 5.5-5.2 7.4-4.4 3.3-11.4 6.5-16.8 3.5Z"/><path fill="#5b685c" d="M41.8 37c-1.2-.3-1.7-1.2-2.4-2.2l-.7-1-.4-.6-1.1-1.6c-2.2-3-3.9-5.4-3.5-9.2.3-2 1-3.5 2.3-5l.4-.5a24.5 24.5 0 0 1 4.9-4.2c3.2-2.3 6.8-4 10.6-5h.6c2.9-.7 6.4-.7 9 .7A8.8 8.8 0 0 1 65 13l.2.6a175.8 175.8 0 0 1 3.3 9.2l.2.7 1.7 4.5c.6 1.8 1.2 3.5 1.3 5.4H71l-.5 1.5a4 4 0 0 1-.8-2.4h-.4A7576.7 7576.7 0 0 1 63 15c-.5-1.8-1.3-3.6-3-4.5-3.7-1.6-8-.2-11.6 1.2-3 1.2-5.6 3-8.1 5l-.5.4c-1.6 1.3-3.2 3-3.6 5.1-.3 4.2 2.2 6.9 4.5 10l.4.5.6 1c.6.8 1 1.4 1.2 2.5H42l-.2.8z"/><path fill="#929277" d="M56.2 56.3c-1.8-.5-3-1.3-4-2.8a6.7 6.7 0 0 1-.2-4.9 9 9 0 0 1 2-3h.5V45c4-3.9 10.9-7.4 16.5-7.4 1.3 0 2.2.3 3.2 1.2 1 1.2 1.5 2.2 1.5 3.8l-.4-.1-.5-.3-.4-.2c-2.8-1-5.6 0-8.1 1.2a33.2 33.2 0 0 0-6.5 4.4l-.5.4c-2.5 2.1-2.5 2.1-3.8 5 0 1.1 0 1.8.7 2.7v.5Z"/><path fill="#b5ba98" d="M50.6 46.4c-1.7-2.1-1.7-2.1-1.7-2.9.3-1 1-1.7 1.5-2.5l-.3-.4a49.3 49.3 0 0 1-4-5.5l-.4-.7a219.3 219.3 0 0 0-5-7.5l-.3-.6-.3-.5-.3-.4c-.2-.6 0-1 0-1.5H41c.4.3.4.3.6.7l.4.6.3.6a1363 1363 0 0 0 1.2 2c2 3.2 4.2 6.3 6.3 9.4l.5.6.5.7.4.6.4.4c.6 0 .9-.4 1.3-.8A26.5 26.5 0 0 1 69 31.8c.6 1.3 1 2.5 1.3 3.9h-.6A28 28 0 0 0 52 44.4l-1.4 2Z"/><path fill="#e3e3ca" d="M51.7 40a14 14 0 0 1-2.4-3l-1.5-2.8-1-1.8h.4c4.9.2 9-.4 13-3.4l.3-.4h.4l1.5 5-1.4.4a32.1 32.1 0 0 0-9.3 6Z"/><path fill="#58665a" d="M41.8 37c-1.2-.3-1.7-1.2-2.4-2.2l-.7-1-.4-.6-1.1-1.6c-2.2-3-3.9-5.4-3.5-9.2.3-2 1-3.5 2.3-5l.4-.5c2.6-3 6.2-5.3 9.7-7l.6-.3.5-.2.4-.2h1c-1.6.9-3.2 1.6-4.9 2.4l1.1.3-.2.8 1.3-.2c-.5.5-1 .8-1.6 1.2a33.5 33.5 0 0 0-4.6 3.3c-1.5 1.3-3 3-3.5 5.1-.3 4.2 2.2 6.9 4.5 10l.4.5.6 1c.6.8 1 1.4 1.2 2.5H42l-.2.8z"/><path fill="#fdfbe2" d="m62.2 33.3-.2-.6a1048.8 1048.8 0 0 0-3-8.5l-1-2.8c-.5-1.8-1.2-3.6-2-5.4l-.2-.5c0-.1 0-.3-.2-.4l.1-1.3.5-.4c.5 0 1 0 1.4.4l1 2c0 .4.2.7.3 1.1l.2.7a363.3 363.3 0 0 0 4.2 11.7l.3.8.2.6.2.6.1 1.1 1-.2c-.4.5-.6.6-1.2.8l-.4.2-1.3.1Z"/><path fill="#e4e4cd" d="M48.9 43.6a1036 1036 0 0 0-2.7-3.5l-.4-.5a217.3 217.3 0 0 0-6.7-9.4l-1.4-2c.8.2 1.1.6 1.7 1.2l2.2 1.4a7 7 0 0 1 4 3.6l.3.6h.4l.6.8.4.6c0 .2.2.3.3.5l3 4.1-1.7 2.6Z"/><path fill="#e3e4cb" d="m64.1 32.4-.9-2.4-.2-.6c0-.3-.2-.5-.3-.7l-.2-.6c-.1-.7 0-1 .1-1.7l.6-.7c.9-1.1 1.4-2.4 2-3.8 1 .8 1.2 1.7 1.6 2.8l.2.6a217.7 217.7 0 0 1 1.4 4.2l.2.5a522364 522364 0 0 0 .4 1.8l-1.5.3-.4.1c-1 .2-2 .3-3 .2Z"/><path fill="#949c77" d="M50.8 41.2c-1-.6-1.5-1.4-2.1-2.4a573490.1 573490.1 0 0 0-2-2.8c-4.2-6.3-4.2-6.3-6-9.3l-.4-.5c-.4-.7-.7-1.1-.6-2l.2-.3h1c.4.3.4.3.6.7l.4.6.3.6a1363 1363 0 0 0 1.2 2c1.8 3 4 5.9 6 8.8l1.5 2.3.5.6c0 .2.2.3.3.5l-.3.2c-.4.4-.4.4-.6 1Z"/><path fill="#baa263" d="M45.9 32.4c-1 0-1.5-.1-2.1-.8a26 26 0 0 1-1.4-2l-.3-.5-1.2-1.9-.4-.6-.3-.6-.3-.5c-.3-.7-.2-1 0-1.6h1c.4.3.4.3.6.7l.4.6.3.6a565.8 565.8 0 0 0 3.4 5.3c.3.5.3.5.3 1.3Z"/><path fill="#515c4f" d="m71.8 53.5-.4-.2v-.5l-.4-1.3.4-.3c2-1.6 3.3-3.5 4.3-5.9.3.8.1 1-.2 1.7h.6l.2-.4h.7l.4-1.3c.3.6.2.9 0 1.5a20 20 0 0 1-5.6 6.7Z"/><path fill="#5e6a5b" d="M70.5 34.8a4 4 0 0 1-.8-2.4h-.4c-.8-1.4-1.2-2.7-.7-4.2l1-.9c.8.6 1 1.4 1.3 2.3l.1.4c.4 1.1.6 2.2.6 3.3H71l-.5 1.5z"/><path fill="#f3f4dd" d="m62.2 33.3-.7-2-.2-.6c-.5-1.5-.5-1.5-.1-2.5l.3-.5h.5l.2-.4c.5.5.7.9 1 1.5l.1.5.2.6.2.5c.4 1.3.4 1.3.4 2l1-.2c-.4.5-.6.6-1.2.8l-.4.2-1.3.1Z"/><path fill="#566357" d="M68.6 29.9c-.8-.4-1-1.5-1.2-2.3l-.2-.6-.2-.6-.2-.5c-.1-.6 0-.9.1-1.4l.4.7.3-.8.2-.4.4-1-.7-.2h.5l.2-.7 1 2.7.2.7.3.8.3.6c.1.6.1.6-.1 1.3l-.4-.5c-.7.4-.7.4-.8.9v1.3Z"/><path fill="#5c6658" d="M66.7 55.6V55l-.4-.2v-.5l.6-.3c2.1-1.1 2.1-1.1 4-2.5l.5.5v.8l.4.2c-.6 1-1.1 1.3-2.2 1.7l-1.9 1h-1Z"/><path fill="#556256" d="M61.8 50c-.5-.7-.6-.9-.5-1.7.6-.5 1-.8 1.9-1l.9.4c.2.4.2.4.2 1-.5 1.2-1.2 1.5-2.5 1.3Z"/><path fill="#536054" d="M61.3 54.2c-.6 0-.6 0-1-.3-.3-.4-.3-.4-.3-1 .3-.7.6-1 1.3-1.4h1.3c.4.5.4.5.5 1-.1 1-.8 1.5-1.8 1.7Z"/><path fill="#556255" d="M68.4 46.4c-.4-.7-.4-.7-.4-1 .3-.8.8-1 1.5-1.4.8 0 .8 0 1.5.2l.2 1.1c-.8 1.2-1.5 1.3-2.8 1Z"/><path fill="#bea96c" d="M45.9 32.4c-1 0-1.4-.2-2-1-1-1.2-1-1.2-1.2-2 .1-.7.1-.7.4-1.2l.4-.3 1.2 1.8.3.5.4.5.3.5c.2.4.2.4.2 1.2Z"/><path fill="#546154" d="M66.9 50.9c-.4-.4-.4-.4-.5-1 0-.7 0-.7.4-1.1.7-.4 1.3-.4 2-.3.5.7.5.7.4 1.2-.4 1.3-1 1.3-2.3 1.2Z"/><path fill="#e0d197" d="M52.1 28.6c-.4-.4-.4-.4-.5-1.2v-.7c.8-.5 1-.6 1.8-.5.5.4.5.4.8.9 0 .5-.1.8-.4 1.2-.6.4-1 .4-1.7.3Z"/><path fill="#556254" d="M42.9 39a7.3 7.3 0 0 1-1.7-1.8l.2-.5.4.2v-.4c.2-.4.2-.4.9-.8V35a5 5 0 0 1 1.2 2.6l-.6.2c-.3.5-.4.8-.4 1.3Z"/><path fill="#dbcb8d" d="m44.4 21.7-.5-.4c.1-1.2.1-1.2.7-1.7h1.3c.4.4.4.4.5 1 0 .5 0 .5-.3.9-.6.3-1 .3-1.7.2Z"/><path fill="#e5d69d" d="m54.5 21.5-.5-1 .7-1 1.5.3.2 1c-.5.9-1 .8-2 .7Z"/><path fill="#baa160" d="M42.4 26.7c-.5-.5-.7-.8-.8-1.5-.5.4-.5.6-.7 1.2-.6-.5-1-.9-1.2-1.7V24c.2-.2.2-.2.7-.3.5 0 .5 0 1 .5l.2.5.4.5.4 1.4Z"/><path fill="#e4d49a" d="M51.9 15.8c-.7 0-.7 0-1-.5 0-1 0-1 .3-1.3 1.2 0 1.2 0 1.8.2v1c-.5.5-.5.5-1.1.6z"/><path fill="#894806" d="M151.6 20.6c.4 0 .7 0 1 .2v1c-.5.7-.5.7-1 1.1l-.6-.2v-.6l-.9.2.6-.8.4-.4.5-.5Z"/><path fill="#bc7404" d="M101 94.6c.6 0 .6 0 1.3.4a6 6 0 0 1 .4 2.8c-1.5-1.4-1.5-1.4-2-2.2l.3-1z"/><path fill="#4c8f0e" d="m108 87.3.5.4v1l-.2.5v.4l.6-.2c-.3.9-.7 1.4-1.3 2.1l-.5.5c0 .2-.2.3-.3.4l-.2-.4.5-1.2c.5-1.2.8-2.3 1-3.5z"/><path fill="#ea6834" d="M64 138.7c.7 0 .7 0 1.2.5l-.3 1-1.2.3-.7-.5c.2-1.2.2-1.2 1-1.3z"/></svg>